<svg width="50" height="50" viewBox="0 0 50 50" fill="none" xmlns="http://www.w3.org/2000/svg">
<g clip-path="url(#clip0_956_5346)">
<circle cx="25" cy="25" r="25" fill="white"/>
<path d="M28.9779 15.9872C29.4547 15.4426 29.8182 14.81 30.0476 14.1258C30.277 13.4415 30.3678 12.7191 30.3147 12C28.851 12.1171 27.4923 12.7994 26.5313 13.8999C26.0711 14.4273 25.7224 15.0409 25.5058 15.7043C25.2892 16.3677 25.2091 17.0675 25.2702 17.7621C25.9842 17.768 26.6899 17.611 27.3329 17.3032C27.9758 16.9954 28.5387 16.5452 28.9779 15.9872ZM32.1559 25.2866C32.1644 24.3289 32.4189 23.389 32.8955 22.5558C33.3721 21.7226 34.0551 21.0235 34.8799 20.5244C34.3594 19.781 33.6712 19.1681 32.87 18.7341C32.0688 18.3002 31.1766 18.0573 30.2642 18.0246C28.2969 17.8246 26.4809 19.162 25.4341 19.162C24.3874 19.162 22.9119 18.0496 21.2724 18.0746C20.2007 18.1096 19.1563 18.4193 18.2413 18.9735C17.3262 19.5277 16.5718 20.3075 16.0514 21.2369C13.8318 25.0616 15.4839 30.7488 17.7035 33.836C18.7124 35.3484 19.9735 37.0608 21.6382 36.9983C23.3028 36.9358 23.8451 35.9734 25.7746 35.9734C27.7042 35.9734 28.2969 36.9983 29.9363 36.9608C31.5758 36.9233 32.736 35.4109 33.7954 33.8985C34.5458 32.8005 35.132 31.6007 35.5357 30.3363C34.5362 29.9138 33.6835 29.2105 33.0829 28.3131C32.4822 27.4156 32.16 26.3635 32.1559 25.2866Z" fill="black"/>
</g>
<defs>
<clipPath id="clip0_956_5346">
<rect width="50" height="50" fill="white"/>
</clipPath>
</defs>
</svg>
