<svg width="50" height="50" viewBox="0 0 50 50" fill="none" xmlns="http://www.w3.org/2000/svg">
<rect width="50" height="50" rx="25" fill="white"/>
<g clip-path="url(#clip0_956_5344)">
<path d="M34.9895 25.1871C34.9895 24.3677 34.9214 23.7697 34.7742 23.1497H25.1992V26.848H30.8195C30.7062 27.7671 30.0943 29.1512 28.7346 30.0813L28.7155 30.2051L31.7429 32.4969L31.9527 32.5174C33.8789 30.7789 34.9895 28.221 34.9895 25.1871Z" fill="#4285F4"/>
<path d="M25.1993 34.9314C27.9527 34.9314 30.2643 34.0456 31.9527 32.5175L28.7346 30.0814C27.8734 30.6683 26.7176 31.078 25.1993 31.078C22.5024 31.078 20.2135 29.3396 19.3976 26.9368L19.278 26.9467L16.13 29.3274L16.0889 29.4392C17.7659 32.6946 21.2106 34.9314 25.1993 34.9314Z" fill="#34A853"/>
<path d="M19.3975 26.9367C19.1822 26.3166 19.0576 25.6522 19.0576 24.9657C19.0576 24.2791 19.1822 23.6148 19.3861 22.9947L19.3804 22.8627L16.193 20.4437L16.0888 20.4922C15.3976 21.8431 15.001 23.3601 15.001 24.9657C15.001 26.5713 15.3976 28.0882 16.0888 29.4391L19.3975 26.9367Z" fill="#FBBC05"/>
<path d="M25.1993 18.8534C27.1142 18.8534 28.406 19.6617 29.1425 20.3372L32.0207 17.5911C30.253 15.9855 27.9527 15 25.1993 15C21.2106 15 17.7659 17.2367 16.0889 20.4921L19.3863 22.9947C20.2135 20.5918 22.5024 18.8534 25.1993 18.8534Z" fill="#EB4335"/>
</g>
<defs>
<clipPath id="clip0_956_5344">
<rect width="20" height="20" fill="white" transform="translate(15 15)"/>
</clipPath>
</defs>
</svg>
