<svg width="17" height="16" viewBox="0 0 17 16" fill="none" xmlns="http://www.w3.org/2000/svg">
<path d="M8.5 1.442C10.636 1.442 10.8893 1.45 11.7333 1.48867C13.9013 1.58733 14.914 2.616 15.0127 4.768C15.0513 5.61133 15.0587 5.86467 15.0587 8.00067C15.0587 10.1373 15.0507 10.39 15.0127 11.2333C14.9133 13.3833 13.9033 14.414 11.7333 14.5127C10.8893 14.5513 10.6373 14.5593 8.5 14.5593C6.364 14.5593 6.11067 14.5513 5.26733 14.5127C3.094 14.4133 2.08667 13.38 1.988 11.2327C1.94933 10.3893 1.94133 10.1367 1.94133 8C1.94133 5.864 1.95 5.61133 1.988 4.76733C2.08733 2.616 3.09733 1.58667 5.26733 1.488C6.11133 1.45 6.364 1.442 8.5 1.442ZM8.5 0C6.32733 0 6.05533 0.00933333 5.202 0.048C2.29667 0.181333 0.682 1.79333 0.548667 4.70133C0.509333 5.55533 0.5 5.82733 0.5 8C0.5 10.1727 0.509333 10.4453 0.548 11.2987C0.681333 14.204 2.29333 15.8187 5.20133 15.952C6.05533 15.9907 6.32733 16 8.5 16C10.6727 16 10.9453 15.9907 11.7987 15.952C14.7013 15.8187 16.32 14.2067 16.4513 11.2987C16.4907 10.4453 16.5 10.1727 16.5 8C16.5 5.82733 16.4907 5.55533 16.452 4.702C16.3213 1.79933 14.7073 0.182 11.7993 0.0486667C10.9453 0.00933333 10.6727 0 8.5 0ZM8.5 3.892C6.23133 3.892 4.392 5.73133 4.392 8C4.392 10.2687 6.23133 12.1087 8.5 12.1087C10.7687 12.1087 12.608 10.2693 12.608 8C12.608 5.73133 10.7687 3.892 8.5 3.892ZM8.5 10.6667C7.02733 10.6667 5.83333 9.47333 5.83333 8C5.83333 6.52733 7.02733 5.33333 8.5 5.33333C9.97267 5.33333 11.1667 6.52733 11.1667 8C11.1667 9.47333 9.97267 10.6667 8.5 10.6667ZM12.7707 2.77C12.24 2.77 11.81 3.2 11.81 3.73C11.81 4.26 12.24 4.69 12.7707 4.69C13.3007 4.69 13.73 4.26 13.73 3.73C13.73 3.2 13.3007 2.77 12.7707 2.77Z" fill="#EAE5D9"/>
</svg>
