<svg width="50" height="50" viewBox="0 0 50 50" fill="none" xmlns="http://www.w3.org/2000/svg">
<g clip-path="url(#clip0_1175_5802)">
<mask id="mask0_1175_5802" style="mask-type:luminance" maskUnits="userSpaceOnUse" x="0" y="0" width="50" height="50">
<path d="M25 50C38.8071 50 50 38.8071 50 25C50 11.1929 38.8071 0 25 0C11.1929 0 0 11.1929 0 25C0 38.8071 11.1929 50 25 50Z" fill="white"/>
</mask>
<g mask="url(#mask0_1175_5802)">
<path d="M10.5 129C47.7792 129 78 98.7792 78 61.5C78 24.2208 47.7792 -6 10.5 -6C-26.7792 -6 -57 24.2208 -57 61.5C-57 98.7792 -26.7792 129 10.5 129Z" fill="url(#paint0_radial_1175_5802)"/>
</g>
<path d="M32.0312 19.9219C33.1099 19.9219 33.9844 19.0474 33.9844 17.9688C33.9844 16.8901 33.1099 16.0156 32.0312 16.0156C30.9526 16.0156 30.0781 16.8901 30.0781 17.9688C30.0781 19.0474 30.9526 19.9219 32.0312 19.9219Z" fill="white"/>
<path d="M25 18.75C23.7639 18.75 22.5555 19.1166 21.5277 19.8033C20.4999 20.4901 19.6988 21.4662 19.2258 22.6082C18.7527 23.7503 18.6289 25.0069 18.8701 26.2193C19.1113 27.4317 19.7065 28.5453 20.5806 29.4194C21.4547 30.2935 22.5683 30.8888 23.7807 31.1299C24.9931 31.3711 26.2497 31.2473 27.3918 30.7742C28.5338 30.3012 29.5099 29.5001 30.1967 28.4723C30.8834 27.4445 31.25 26.2361 31.25 25C31.25 23.3424 30.5915 21.7527 29.4194 20.5806C28.2473 19.4085 26.6576 18.75 25 18.75ZM25 28.125C24.3819 28.125 23.7778 27.9417 23.2638 27.5983C22.7499 27.255 22.3494 26.7669 22.1129 26.1959C21.8764 25.6249 21.8145 24.9965 21.935 24.3903C22.0556 23.7842 22.3533 23.2273 22.7903 22.7903C23.2273 22.3533 23.7842 22.0556 24.3903 21.935C24.9965 21.8145 25.6249 21.8764 26.1959 22.1129C26.7669 22.3494 27.255 22.7499 27.5983 23.2638C27.9417 23.7777 28.125 24.3819 28.125 25C28.125 25.8288 27.7958 26.6237 27.2097 27.2097C26.6237 27.7958 25.8288 28.125 25 28.125Z" fill="white"/>
<path d="M32.8125 12.5H17.1875C14.5987 12.5 12.5 14.5987 12.5 17.1875V32.8125C12.5 35.4013 14.5987 37.5 17.1875 37.5H32.8125C35.4013 37.5 37.5 35.4013 37.5 32.8125V17.1875C37.5 14.5987 35.4013 12.5 32.8125 12.5Z" stroke="white" stroke-width="3" stroke-miterlimit="10"/>
</g>
<defs>
<radialGradient id="paint0_radial_1175_5802" cx="0" cy="0" r="1" gradientUnits="userSpaceOnUse" gradientTransform="translate(10.5 61.5) scale(67.5)">
<stop stop-color="#FFD676"/>
<stop offset="0.25" stop-color="#F2A454"/>
<stop offset="0.38" stop-color="#F05C3C"/>
<stop offset="0.7" stop-color="#C22F86"/>
<stop offset="0.96" stop-color="#6666AD"/>
<stop offset="0.99" stop-color="#5C6CB2"/>
</radialGradient>
<clipPath id="clip0_1175_5802">
<rect width="50" height="50" fill="white"/>
</clipPath>
</defs>
</svg>
