<svg width="17" height="16" viewBox="0 0 17 16" fill="none" xmlns="http://www.w3.org/2000/svg">
<path d="M8.5 0C4.08241 0 0.5 3.58241 0.5 8C0.5 12.4176 4.08241 16 8.5 16C12.9176 16 16.5 12.4176 16.5 8C16.5 3.58241 12.9176 0 8.5 0ZM12.5134 6.12103V7.20425C12.0027 7.20444 11.5064 7.10434 11.0383 6.90688C10.7373 6.77981 10.4569 6.61609 10.2005 6.41825L10.2082 9.75241C10.2049 10.5032 9.90791 11.2086 9.37031 11.7399C8.93281 12.1724 8.37844 12.4475 7.77756 12.5365C7.63637 12.5574 7.49269 12.5681 7.34737 12.5681C6.70416 12.5681 6.0935 12.3597 5.59397 11.9753C5.49997 11.9029 5.41006 11.8245 5.32447 11.7399C4.74184 11.1641 4.44141 10.3837 4.492 9.56262C4.53059 8.93766 4.78081 8.34163 5.19794 7.87447C5.74981 7.25628 6.52187 6.91316 7.34737 6.91316C7.49269 6.91316 7.63637 6.92406 7.77756 6.94497V7.34547V8.45959C7.64369 8.41544 7.50072 8.39116 7.35184 8.39116C6.59766 8.39116 5.9875 9.00647 5.99878 9.76122C6.00594 10.2441 6.26972 10.6662 6.65878 10.8989C6.84162 11.0083 7.05197 11.0761 7.27644 11.0884C7.45231 11.098 7.62119 11.0735 7.77756 11.0219C8.31641 10.8439 8.70512 10.3378 8.70512 9.74084L8.70691 7.50812V3.43187H10.1987C10.2001 3.57969 10.2151 3.72391 10.243 3.86366C10.3556 4.42931 10.6744 4.92006 11.1182 5.25462C11.5051 5.54647 11.9869 5.71947 12.5091 5.71947L12.5134 5.71912V6.12103Z" fill="#EAE5D9"/>
</svg>
