<svg width="45" height="50" viewBox="0 0 45 50" fill="none" xmlns="http://www.w3.org/2000/svg">
<g clip-path="url(#clip0_1553_7210)">
<path d="M13.8011 16.207L13.8095 16.2219L13.8188 16.2362L21.4296 27.8675L21.4329 49.3124C20.0416 48.9814 16.5683 47.7525 15.2115 43.6823L15.2115 43.6821C14.2631 40.8414 12.2593 38.5444 10.2008 36.8498C8.14168 35.1546 5.98819 34.0295 4.67489 33.5448L4.50178 34.0139L4.67488 33.5448C3.41212 33.0788 2.74332 32.878 2.38113 32.7951C2.3723 32.6702 2.3643 32.5162 2.36025 32.3362C2.34796 31.7895 2.37223 31.0041 2.52039 30.0632C2.81654 28.1824 3.60683 25.6837 5.5889 23.2209L5.9013 22.8327L5.51475 22.5194L5.51468 22.5193L5.51456 22.5193L5.51422 22.519L5.51271 22.5177L5.50166 22.5085C5.4912 22.4997 5.47462 22.4856 5.4524 22.4662C5.40794 22.4274 5.34091 22.3675 5.25506 22.2864C5.08333 22.1241 4.83651 21.8774 4.54446 21.5466C3.96013 20.8846 3.19649 19.8875 2.49049 18.557C1.08214 15.9029 -0.10429 11.9094 0.83661 6.56814L0.839016 6.55646L0.850314 6.50197C0.860276 6.45409 0.875008 6.3837 0.893997 6.29408C0.93198 6.11481 0.986968 5.85874 1.05485 5.55217C1.19072 4.93852 1.37775 4.12486 1.58309 3.32084C1.7894 2.51303 2.0105 1.7297 2.21367 1.17006C2.27794 0.993032 2.33661 0.849241 2.38815 0.738878C2.39982 0.746112 2.41185 0.753603 2.42424 0.761356C2.59421 0.867697 2.80816 1.00762 3.0518 1.1707C3.5386 1.49653 4.13352 1.90784 4.71189 2.31254C5.2898 2.71692 5.84916 3.11328 6.26418 3.40864C6.47164 3.55629 6.64294 3.67863 6.76233 3.76403L6.85895 3.83321L13.8011 16.207Z" fill="#EAE5D9" stroke="#951717"/>
<path d="M30.2207 16.2362L30.2301 16.2219L30.2384 16.207L37.1806 3.83321L37.2772 3.76403C37.3966 3.67863 37.5679 3.55629 37.7754 3.40864C38.1904 3.11327 38.7497 2.71692 39.3276 2.31254C39.906 1.90784 40.5009 1.49653 40.9877 1.17069C41.2314 1.00762 41.4453 0.867696 41.6153 0.761355C41.6277 0.753603 41.6397 0.746114 41.6514 0.738881C41.7029 0.849243 41.7616 0.993032 41.8258 1.17006C42.029 1.72969 42.2501 2.51303 42.4564 3.32084C42.6617 4.12486 42.8488 4.93852 42.9846 5.55217C43.0525 5.85874 43.1075 6.11481 43.1455 6.29407C43.1645 6.3837 43.1792 6.45409 43.1892 6.50196L43.2005 6.55646L43.2029 6.56818C44.1438 11.9094 42.9574 15.903 41.549 18.557C40.843 19.8875 40.0794 20.8846 39.4951 21.5466C39.203 21.8774 38.9562 22.1241 38.7845 22.2864C38.6986 22.3675 38.6316 22.4274 38.5871 22.4662C38.5649 22.4856 38.5483 22.4997 38.5379 22.5085L38.5268 22.5177L38.5253 22.519L38.525 22.5193L38.5248 22.5193L38.5248 22.5194L38.1382 22.8327L38.4506 23.2209C40.4327 25.6837 41.223 28.1824 41.5191 30.0632C41.6673 31.0041 41.6916 31.7895 41.6793 32.3362C41.6752 32.5162 41.6672 32.6702 41.6584 32.7951C41.2962 32.878 40.6274 33.0788 39.3646 33.5448L39.5377 34.0139L39.3646 33.5448C38.0513 34.0295 35.8978 35.1546 33.8387 36.8498C31.7803 38.5444 29.7765 40.8414 28.8281 43.6821L28.828 43.6823C27.4712 47.7526 23.9978 48.9815 22.6065 49.3125L22.6099 27.8675L30.2207 16.2362Z" fill="#EAE5D9" stroke="#951717"/>
<path d="M15.2904 13.4244H28.7494C35.1978 0.570448 41.9539 0 41.9539 0C41.9539 0 35.1102 5.96564 34.7597 12.4588C34.4092 18.9519 38.8404 22.9072 38.8404 22.9072C35.274 26.2767 32.0143 29.9568 29.0999 33.9038C24.4951 40.2217 24.8885 48.988 24.8885 48.988C24.0219 49.4529 22.9653 49.8509 21.9932 50C21.0211 49.8509 20.0179 49.4529 19.1512 48.988C19.1512 48.988 19.5447 40.2217 14.9399 33.9038C12.0254 29.9568 8.76574 26.2767 5.19936 22.9072C5.19936 22.9072 9.63064 18.9519 9.28012 12.4588C8.92959 5.96564 2.08594 0 2.08594 0C2.08594 0 8.84196 0.570448 15.2904 13.4244Z" fill="#951717"/>
</g>
<defs>
<clipPath id="clip0_1553_7210">
<rect width="45" height="50" fill="white"/>
</clipPath>
</defs>
</svg>
