<svg width="161" height="23" viewBox="0 0 161 23" fill="none" xmlns="http://www.w3.org/2000/svg">
<path d="M7.99706 22.28C6.4664 22.28 5.00106 22.0653 3.60106 21.636C2.20106 21.188 1.0904 20.6187 0.269063 19.928L1.52906 17.1C2.31306 17.716 3.28373 18.2293 4.44106 18.64C5.5984 19.0507 6.78373 19.256 7.99706 19.256C9.02373 19.256 9.8544 19.144 10.4891 18.92C11.1237 18.696 11.5904 18.3973 11.8891 18.024C12.1877 17.632 12.3371 17.1933 12.3371 16.708C12.3371 16.1107 12.1224 15.6347 11.6931 15.28C11.2637 14.9067 10.7037 14.6173 10.0131 14.412C9.34106 14.188 8.58506 13.9827 7.74506 13.796C6.92373 13.6093 6.09306 13.3947 5.25306 13.152C4.43173 12.8907 3.67573 12.564 2.98506 12.172C2.31306 11.7613 1.7624 11.22 1.33306 10.548C0.903729 9.876 0.689063 9.01733 0.689063 7.972C0.689063 6.908 0.969063 5.93733 1.52906 5.06C2.10773 4.164 2.97573 3.45467 4.13306 2.932C5.30906 2.39067 6.79306 2.12 8.58506 2.12C9.76106 2.12 10.9277 2.26933 12.0851 2.568C13.2424 2.86667 14.2504 3.296 15.1091 3.856L13.9611 6.684C13.0837 6.16133 12.1784 5.77867 11.2451 5.536C10.3117 5.27467 9.41573 5.144 8.55706 5.144C7.54906 5.144 6.72773 5.26533 6.09306 5.508C5.47706 5.75067 5.01973 6.068 4.72106 6.46C4.44106 6.852 4.30106 7.3 4.30106 7.804C4.30106 8.40133 4.5064 8.88667 4.91706 9.26C5.3464 9.61467 5.89706 9.89467 6.56906 10.1C7.25973 10.3053 8.02506 10.5107 8.86506 10.716C9.70506 10.9027 10.5357 11.1173 11.3571 11.36C12.1971 11.6027 12.9531 11.92 13.6251 12.312C14.3157 12.704 14.8664 13.236 15.2771 13.908C15.7064 14.58 15.9211 15.4293 15.9211 16.456C15.9211 17.5013 15.6317 18.472 15.0531 19.368C14.4931 20.2453 13.6251 20.9547 12.4491 21.496C11.2731 22.0187 9.78906 22.28 7.99706 22.28ZM28.4064 22V18.976L28.2104 18.332V13.04C28.2104 12.0133 27.9024 11.22 27.2864 10.66C26.6704 10.0813 25.7371 9.792 24.4864 9.792C23.6464 9.792 22.8158 9.92267 21.9944 10.184C21.1918 10.4453 20.5104 10.8093 19.9504 11.276L18.5784 8.728C19.3811 8.112 20.3331 7.65467 21.4344 7.356C22.5544 7.03867 23.7118 6.88 24.9064 6.88C27.0718 6.88 28.7424 7.40267 29.9184 8.448C31.1131 9.47467 31.7104 11.0707 31.7104 13.236V22H28.4064ZM23.7024 22.196C22.5824 22.196 21.6024 22.0093 20.7624 21.636C19.9224 21.244 19.2691 20.712 18.8024 20.04C18.3544 19.3493 18.1304 18.5747 18.1304 17.716C18.1304 16.876 18.3264 16.12 18.7184 15.448C19.1291 14.776 19.7918 14.244 20.7064 13.852C21.6211 13.46 22.8344 13.264 24.3464 13.264H28.6864V15.588H24.5984C23.4038 15.588 22.6011 15.784 22.1904 16.176C21.7798 16.5493 21.5744 17.016 21.5744 17.576C21.5744 18.2107 21.8264 18.7147 22.3304 19.088C22.8344 19.4613 23.5344 19.648 24.4304 19.648C25.2891 19.648 26.0544 19.452 26.7264 19.06C27.4171 18.668 27.9118 18.0893 28.2104 17.324L28.7984 19.424C28.4624 20.3013 27.8558 20.9827 26.9784 21.468C26.1198 21.9533 25.0278 22.196 23.7024 22.196ZM39.0583 18.668L39.1423 14.272L46.9543 7.048H51.1543L44.5183 13.712L42.6703 15.252L39.0583 18.668ZM36.2023 22V1.224H39.7023V22H36.2023ZM47.4863 22L42.0263 15.252L44.2383 12.452L51.7423 22H47.4863ZM60.0576 22.196C58.7883 22.196 57.6683 21.9627 56.6976 21.496C55.7269 21.0107 54.9709 20.2827 54.4296 19.312C53.8883 18.3227 53.6176 17.0813 53.6176 15.588V7.048H57.1176V15.112C57.1176 16.456 57.4163 17.464 58.0136 18.136C58.6296 18.7893 59.4976 19.116 60.6176 19.116C61.4389 19.116 62.1483 18.948 62.7456 18.612C63.3616 18.276 63.8376 17.772 64.1736 17.1C64.5283 16.428 64.7056 15.5973 64.7056 14.608V7.048H68.2056V22H64.8736V17.968L65.4616 19.2C64.9576 20.1707 64.2203 20.9173 63.2496 21.44C62.2789 21.944 61.2149 22.196 60.0576 22.196ZM72.7882 22V7.048H76.1202V11.164L75.7282 9.96C76.1762 8.952 76.8762 8.18667 77.8282 7.664C78.7989 7.14133 80.0029 6.88 81.4402 6.88V10.212C81.2909 10.1747 81.1509 10.156 81.0202 10.156C80.8895 10.1373 80.7589 10.128 80.6282 10.128C79.3029 10.128 78.2482 10.52 77.4642 11.304C76.6802 12.0693 76.2882 13.2173 76.2882 14.748V22H72.7882ZM92.5549 22V18.976L92.3589 18.332V13.04C92.3589 12.0133 92.0509 11.22 91.4349 10.66C90.8189 10.0813 89.8855 9.792 88.6349 9.792C87.7949 9.792 86.9642 9.92267 86.1429 10.184C85.3402 10.4453 84.6589 10.8093 84.0989 11.276L82.7269 8.728C83.5295 8.112 84.4815 7.65467 85.5829 7.356C86.7029 7.03867 87.8602 6.88 89.0549 6.88C91.2202 6.88 92.8909 7.40267 94.0669 8.448C95.2615 9.47467 95.8589 11.0707 95.8589 13.236V22H92.5549ZM87.8509 22.196C86.7309 22.196 85.7509 22.0093 84.9109 21.636C84.0709 21.244 83.4175 20.712 82.9509 20.04C82.5029 19.3493 82.2789 18.5747 82.2789 17.716C82.2789 16.876 82.4749 16.12 82.8669 15.448C83.2775 14.776 83.9402 14.244 84.8549 13.852C85.7695 13.46 86.9829 13.264 88.4949 13.264H92.8349V15.588H88.7469C87.5522 15.588 86.7495 15.784 86.3389 16.176C85.9282 16.5493 85.7229 17.016 85.7229 17.576C85.7229 18.2107 85.9749 18.7147 86.4789 19.088C86.9829 19.4613 87.6829 19.648 88.5789 19.648C89.4375 19.648 90.2029 19.452 90.8749 19.06C91.5655 18.668 92.0602 18.0893 92.3589 17.324L92.9469 19.424C92.6109 20.3013 92.0042 20.9827 91.1269 21.468C90.2682 21.9533 89.1762 22.196 87.8509 22.196ZM104.663 22V5.48H98.1667V2.4H114.799V5.48H108.303V22H104.663ZM125.613 22V18.976L125.417 18.332V13.04C125.417 12.0133 125.109 11.22 124.493 10.66C123.877 10.0813 122.944 9.792 121.693 9.792C120.853 9.792 120.023 9.92267 119.201 10.184C118.399 10.4453 117.717 10.8093 117.157 11.276L115.785 8.728C116.588 8.112 117.54 7.65467 118.641 7.356C119.761 7.03867 120.919 6.88 122.113 6.88C124.279 6.88 125.949 7.40267 127.125 8.448C128.32 9.47467 128.917 11.0707 128.917 13.236V22H125.613ZM120.909 22.196C119.789 22.196 118.809 22.0093 117.969 21.636C117.129 21.244 116.476 20.712 116.009 20.04C115.561 19.3493 115.337 18.5747 115.337 17.716C115.337 16.876 115.533 16.12 115.925 15.448C116.336 14.776 116.999 14.244 117.913 13.852C118.828 13.46 120.041 13.264 121.553 13.264H125.893V15.588H121.805C120.611 15.588 119.808 15.784 119.397 16.176C118.987 16.5493 118.781 17.016 118.781 17.576C118.781 18.2107 119.033 18.7147 119.537 19.088C120.041 19.4613 120.741 19.648 121.637 19.648C122.496 19.648 123.261 19.452 123.933 19.06C124.624 18.668 125.119 18.0893 125.417 17.324L126.005 19.424C125.669 20.3013 125.063 20.9827 124.185 21.468C123.327 21.9533 122.235 22.196 120.909 22.196ZM133.409 22V7.048H136.909V22H133.409ZM135.173 4.584C134.52 4.584 133.979 4.37867 133.549 3.968C133.139 3.55733 132.933 3.06267 132.933 2.484C132.933 1.88667 133.139 1.392 133.549 0.999998C133.979 0.589333 134.52 0.384 135.173 0.384C135.827 0.384 136.359 0.579999 136.769 0.971999C137.199 1.34533 137.413 1.82133 137.413 2.4C137.413 3.016 137.208 3.53867 136.797 3.968C136.387 4.37867 135.845 4.584 135.173 4.584ZM141.503 22V1.224H145.003V22H141.503ZM154.217 22.196C152.966 22.196 151.762 22.0373 150.605 21.72C149.466 21.384 148.561 20.9827 147.889 20.516L149.233 17.856C149.905 18.2853 150.707 18.64 151.641 18.92C152.574 19.2 153.507 19.34 154.441 19.34C155.542 19.34 156.335 19.1907 156.821 18.892C157.325 18.5933 157.577 18.192 157.577 17.688C157.577 17.2773 157.409 16.9693 157.073 16.764C156.737 16.54 156.298 16.372 155.757 16.26C155.215 16.148 154.609 16.0453 153.937 15.952C153.283 15.8587 152.621 15.7373 151.949 15.588C151.295 15.42 150.698 15.1867 150.157 14.888C149.615 14.5707 149.177 14.1507 148.841 13.628C148.505 13.1053 148.337 12.4147 148.337 11.556C148.337 10.604 148.607 9.78267 149.149 9.092C149.69 8.38267 150.446 7.84133 151.417 7.468C152.406 7.076 153.573 6.88 154.917 6.88C155.925 6.88 156.942 6.992 157.969 7.216C158.995 7.44 159.845 7.75733 160.517 8.168L159.173 10.828C158.463 10.3987 157.745 10.1093 157.017 9.96C156.307 9.792 155.598 9.708 154.889 9.708C153.825 9.708 153.031 9.86667 152.509 10.184C152.005 10.5013 151.753 10.9027 151.753 11.388C151.753 11.836 151.921 12.172 152.257 12.396C152.593 12.62 153.031 12.7973 153.573 12.928C154.114 13.0587 154.711 13.1707 155.365 13.264C156.037 13.3387 156.699 13.46 157.353 13.628C158.006 13.796 158.603 14.0293 159.145 14.328C159.705 14.608 160.153 15.0093 160.489 15.532C160.825 16.0547 160.993 16.736 160.993 17.576C160.993 18.5093 160.713 19.3213 160.153 20.012C159.611 20.7027 158.837 21.244 157.829 21.636C156.821 22.0093 155.617 22.196 154.217 22.196Z" fill="#EAE5D9"/>
</svg>
