<svg width="200" height="200" viewBox="0 0 200 200" fill="none" xmlns="http://www.w3.org/2000/svg">
<path d="M90.72 165.9C91.9933 166.4 93.2933 166.8 94.62 167.1C96.2867 170.867 98.3333 174.39 100.76 177.67C96.0519 177.771 91.3718 176.921 87 175.17L29.43 152.15C26.6459 151.037 24.2594 149.114 22.5785 146.631C20.8977 144.148 19.9995 141.218 20 138.22V61.76C20.0015 58.7632 20.9006 55.8356 22.5814 53.3546C24.2621 50.8735 26.6475 48.9528 29.43 47.84L87 24.8C95.3452 21.4615 104.655 21.4615 113 24.8L170.57 47.83C176.27 50.1 180 55.62 180 61.75V102.55C176.916 100.003 173.562 97.7998 170 95.98V61.76C170 60.7615 169.701 59.7859 169.141 58.9589C168.581 58.1319 167.787 57.4914 166.86 57.12L109.29 34.1C103.33 31.7158 96.6804 31.7158 90.72 34.1L33.14 57.12C32.2131 57.4914 31.4187 58.1319 30.8591 58.9589C30.2994 59.7859 30.0002 60.7615 30 61.76V138.22C29.9982 139.22 30.2965 140.198 30.8563 141.027C31.416 141.856 32.2115 142.498 33.14 142.87L90.72 165.9ZM57.03 60.42C55.818 59.8816 54.4417 59.8467 53.2039 60.3231C51.9662 60.7994 50.9684 61.748 50.43 62.96C49.8916 64.172 49.8568 65.5483 50.3331 66.786C50.8094 68.0238 51.758 69.0216 52.97 69.56L95 88.24V122.05C97.5046 116.605 100.883 111.605 105 107.25V88.25L147.03 69.56C147.63 69.2934 148.172 68.9112 148.624 68.4353C149.077 67.9593 149.431 67.3989 149.667 66.786C149.903 66.1732 150.016 65.5199 149.999 64.8634C149.982 64.2069 149.837 63.5601 149.57 62.96C149.303 62.3598 148.921 61.8181 148.445 61.3657C147.969 60.9132 147.409 60.5589 146.796 60.3231C146.183 60.0872 145.53 59.9744 144.873 59.991C144.217 60.0076 143.57 60.1534 142.97 60.42L100 79.52L57.03 60.42ZM170 182.41C165.086 185.693 159.573 187.976 153.777 189.129C147.981 190.281 142.014 190.281 136.218 189.128C130.422 187.974 124.909 185.691 119.996 182.407C115.082 179.123 110.863 174.904 107.58 169.99C100.95 160.066 98.5332 147.914 100.862 136.208C103.192 124.502 110.076 114.2 120 107.57C129.924 100.94 142.076 98.5232 153.782 100.852C165.488 103.182 175.79 110.066 182.42 119.99C189.05 129.914 191.467 142.066 189.138 153.772C186.808 165.478 179.924 175.78 170 182.41ZM148.54 121.46C147.841 120.76 146.951 120.282 145.98 120.088C145.01 119.894 144.004 119.992 143.09 120.37C142.176 120.748 141.394 121.389 140.844 122.211C140.294 123.034 140 124.001 140 124.99V139.99H125C123.674 139.99 122.402 140.517 121.464 141.454C120.527 142.392 120 143.664 120 144.99C120 146.316 120.527 147.588 121.464 148.526C122.402 149.463 123.674 149.99 125 149.99H140V164.99C140 166.316 140.527 167.588 141.464 168.526C142.402 169.463 143.674 169.99 145 169.99C146.326 169.99 147.598 169.463 148.536 168.526C149.473 167.588 150 166.316 150 164.99V149.99H165C166.326 149.99 167.598 149.463 168.536 148.526C169.473 147.588 170 146.316 170 144.99C170 143.664 169.473 142.392 168.536 141.454C167.598 140.517 166.326 139.99 165 139.99H150V124.99C150.001 124.333 149.873 123.682 149.622 123.075C149.372 122.467 149.004 121.925 148.54 121.46Z" fill="#647484"/>
</svg>
