<svg width="150" height="150" viewBox="0 0 150 150" fill="none" xmlns="http://www.w3.org/2000/svg">
<path d="M37.2709 59.7447C37.2709 62.1473 39.2366 64.113 41.6391 64.113C44.0417 64.113 46.0074 62.1473 46.0074 59.7447V51.0081H54.744C57.1465 51.0081 59.1123 49.0424 59.1123 46.6399C59.1123 44.2373 57.1465 42.2716 54.744 42.2716H46.0074V33.535C46.0074 31.1325 44.0417 29.1667 41.6391 29.1667C39.2366 29.1667 37.2709 31.1325 37.2709 33.535V42.2716H28.5343C26.1317 42.2716 24.166 44.2373 24.166 46.6399C24.166 49.0424 26.1317 51.0081 28.5343 51.0081H37.2709V59.7447Z" fill="#647484"/>
<path d="M80.9525 99.0593C88.1901 99.0593 94.0573 93.1921 94.0573 85.9544C94.0573 78.7168 88.1901 72.8496 80.9525 72.8496C73.7149 72.8496 67.8477 78.7168 67.8477 85.9544C67.8477 93.1921 73.7149 99.0593 80.9525 99.0593Z" fill="#647484"/>
<path d="M115.897 51.008H102.049L96.6325 45.1109C95.8184 44.2171 94.8269 43.5029 93.7212 43.014C92.6156 42.5251 91.4201 42.2722 90.2111 42.2715H62.2541C62.9967 43.582 63.4773 45.0235 63.4773 46.6398C63.4773 51.4449 59.5458 55.3763 54.7407 55.3763H50.3724V59.7446C50.3724 64.5497 46.441 68.4812 41.6359 68.4812C40.0196 68.4812 38.5781 68.0007 37.2676 67.258V112.164C37.2676 116.969 41.199 120.901 46.0041 120.901H115.897C120.702 120.901 124.633 116.969 124.633 112.164V59.7446C124.633 54.9395 120.702 51.008 115.897 51.008ZM80.9504 107.796C68.8939 107.796 59.109 98.0107 59.109 85.9543C59.109 73.8978 68.8939 64.1129 80.9504 64.1129C93.0068 64.1129 102.792 73.8978 102.792 85.9543C102.792 98.0107 93.0068 107.796 80.9504 107.796Z" fill="#647484"/>
<path fill-rule="evenodd" clip-rule="evenodd" d="M20.5645 4.83871C16.3938 4.83871 12.3939 6.49553 9.44469 9.44469C6.49553 12.3939 4.83871 16.3938 4.83871 20.5645V29.6371C4.83871 30.9733 3.75553 32.0565 2.41935 32.0565C1.08318 32.0565 0 30.9733 0 29.6371V20.5645C0 15.1105 2.16661 9.8798 6.02321 6.02321C9.8798 2.16661 15.1105 0 20.5645 0H29.6371C30.9733 0 32.0565 1.08318 32.0565 2.41935C32.0565 3.75553 30.9733 4.83871 29.6371 4.83871H20.5645ZM117.944 2.41935C117.944 1.08318 119.027 0 120.363 0H129.436C134.89 0 140.12 2.16661 143.977 6.02321C147.833 9.8798 150 15.1105 150 20.5645V29.6371C150 30.9733 148.917 32.0565 147.581 32.0565C146.244 32.0565 145.161 30.9733 145.161 29.6371V20.5645C145.161 16.3938 143.504 12.3939 140.555 9.44469C137.606 6.49553 133.606 4.83871 129.436 4.83871H120.363C119.027 4.83871 117.944 3.75553 117.944 2.41935ZM2.41935 117.944C3.75553 117.944 4.83871 119.027 4.83871 120.363V129.436C4.83871 133.606 6.49553 137.606 9.44469 140.555C12.3939 143.504 16.3938 145.161 20.5645 145.161H29.6371C30.9733 145.161 32.0565 146.244 32.0565 147.581C32.0565 148.917 30.9733 150 29.6371 150H20.5645C15.1105 150 9.8798 147.833 6.02321 143.977C2.16661 140.12 0 134.89 0 129.436V120.363C0 119.027 1.08318 117.944 2.41935 117.944ZM147.581 117.944C148.917 117.944 150 119.027 150 120.363V129.436C150 134.89 147.833 140.12 143.977 143.977C140.12 147.833 134.89 150 129.436 150H120.363C119.027 150 117.944 148.917 117.944 147.581C117.944 146.244 119.027 145.161 120.363 145.161H129.436C133.606 145.161 137.606 143.504 140.555 140.555C143.504 137.606 145.161 133.606 145.161 129.436V120.363C145.161 119.027 146.244 117.944 147.581 117.944Z" fill="#647484"/>
</svg>
