<svg width="24" height="24" viewBox="0 0 24 24" fill="none" xmlns="http://www.w3.org/2000/svg">
<path d="M9.75 22.5C7.56196 22.5 5.46354 21.6308 3.91637 20.0836C2.36919 18.5365 1.5 16.438 1.5 14.25C1.5 12.062 2.36919 9.96354 3.91637 8.41637C5.46354 6.86919 7.56196 6 9.75 6C9.94891 6 10.1397 6.07902 10.2803 6.21967C10.421 6.36032 10.5 6.55109 10.5 6.75V13.5H17.25C17.4489 13.5 17.6397 13.579 17.7803 13.7197C17.921 13.8603 18 14.0511 18 14.25C18 16.438 17.1308 18.5365 15.5836 20.0836C14.0365 21.6308 11.938 22.5 9.75 22.5Z" fill="#EAE5D9"/>
<path d="M21 10.5H14.25C13.8522 10.5 13.4706 10.342 13.1893 10.0607C12.908 9.77936 12.75 9.39782 12.75 9V2.25C12.75 2.05109 12.829 1.86032 12.9697 1.71967C13.1103 1.57902 13.3011 1.5 13.5 1.5C15.688 1.5 17.7865 2.36919 19.3336 3.91637C20.8808 5.46354 21.75 7.56196 21.75 9.75C21.75 9.94891 21.671 10.1397 21.5303 10.2803C21.3897 10.421 21.1989 10.5 21 10.5ZM14.25 9H20.205C20.0343 7.47939 19.3521 6.06189 18.2701 4.97991C17.1881 3.89793 15.7706 3.21567 14.25 3.045V9Z" fill="#EAE5D9"/>
</svg>
