<svg width="22" height="15" viewBox="0 0 22 15" fill="none" xmlns="http://www.w3.org/2000/svg">
<path d="M21 8.53564C21.5523 8.53564 22 8.08793 22 7.53564C22 6.98336 21.5523 6.53564 21 6.53564V8.53564ZM0.292892 6.82854C-0.0976315 7.21906 -0.0976315 7.85223 0.292892 8.24275L6.65685 14.6067C7.04738 14.9972 7.68054 14.9972 8.07107 14.6067C8.46159 14.2162 8.46159 13.583 8.07107 13.1925L2.41421 7.53564L8.07107 1.87879C8.46159 1.48827 8.46159 0.855101 8.07107 0.464577C7.68054 0.0740523 7.04738 0.0740523 6.65685 0.464577L0.292892 6.82854ZM21 6.53564L1 6.53564V8.53564L21 8.53564V6.53564Z" fill="#182531"/>
</svg>
