<svg width="32" height="26" viewBox="0 0 32 26" fill="none" xmlns="http://www.w3.org/2000/svg">
<path d="M9.86636 0.50293C9.08896 0.50293 8.31917 0.65605 7.60094 0.953549C6.88272 1.25105 6.23012 1.6871 5.68042 2.2368C5.13071 2.78651 4.69466 3.4391 4.39716 4.15733C4.09966 4.87555 3.94654 5.64534 3.94654 6.42274C3.94654 7.20015 4.09966 7.96993 4.39716 8.68816C4.69466 9.40639 5.13071 10.059 5.68042 10.6087C6.23012 11.1584 6.88272 11.5944 7.60094 11.8919C8.31917 12.1894 9.08896 12.3426 9.86636 12.3426C11.4364 12.3426 12.9421 11.7189 14.0523 10.6087C15.1625 9.4985 15.7862 7.99278 15.7862 6.42274C15.7862 4.85271 15.1625 3.34698 14.0523 2.2368C12.9421 1.12662 11.4364 0.50293 9.86636 0.50293ZM23.6793 3.13396C22.4581 3.13396 21.287 3.61905 20.4235 4.48253C19.5601 5.346 19.075 6.51712 19.075 7.73826C19.075 8.9594 19.5601 10.1305 20.4235 10.994C21.287 11.8575 22.4581 12.3426 23.6793 12.3426C24.9004 12.3426 26.0715 11.8575 26.935 10.994C27.7985 10.1305 28.2836 8.9594 28.2836 7.73826C28.2836 6.51712 27.7985 5.346 26.935 4.48253C26.0715 3.61905 24.9004 3.13396 23.6793 3.13396ZM21.0482 7.73826C21.0482 7.04047 21.3254 6.37125 21.8188 5.87784C22.3123 5.38443 22.9815 5.10723 23.6793 5.10723C24.3771 5.10723 25.0463 5.38443 25.5397 5.87784C26.0331 6.37125 26.3103 7.04047 26.3103 7.73826C26.3103 8.43605 26.0331 9.10526 25.5397 9.59868C25.0463 10.0921 24.3771 10.3693 23.6793 10.3693C22.9815 10.3693 22.3123 10.0921 21.8188 9.59868C21.3254 9.10526 21.0482 8.43605 21.0482 7.73826ZM0 17.9335C0 17.1485 0.311846 16.3956 0.866937 15.8405C1.42203 15.2854 2.17489 14.9736 2.95991 14.9736H16.7728C17.5578 14.9736 18.3107 15.2854 18.8658 15.8405C19.4209 16.3956 19.7327 17.1485 19.7327 17.9335V18.632C19.7317 18.7385 19.7242 18.8448 19.7104 18.9504C19.6807 19.2218 19.6324 19.4908 19.5656 19.7555C19.3477 20.6192 18.96 21.4309 18.4251 22.1431C17.0912 23.923 14.547 25.4977 9.86636 25.4977C5.18576 25.4977 2.64155 23.923 1.30762 22.1431C0.773169 21.4308 0.385896 20.6191 0.168386 19.7555C0.0822927 19.4116 0.0272585 19.0607 0.00394657 18.707L0 18.632V17.9335ZM19.8643 22.3668C20.8812 22.6786 22.1362 22.8667 23.6766 22.8667C27.3206 22.8667 29.357 21.8195 30.4634 20.5566C30.9051 20.0564 31.2327 19.4661 31.4237 18.8267C31.4984 18.5683 31.5464 18.303 31.5671 18.0348L31.5697 17.973V17.9335C31.5697 17.1485 31.2579 16.3956 30.7028 15.8405C30.1477 15.2854 29.3948 14.9736 28.6098 14.9736H19.8564C20.3747 15.5143 20.7536 16.1918 20.9325 16.9469H28.6111C28.8705 16.9468 29.1195 17.049 29.3042 17.2312C29.4888 17.4134 29.5943 17.661 29.5978 17.9203L29.5912 17.9809C29.578 18.0801 29.5574 18.1781 29.5294 18.2742C29.4183 18.6379 29.2298 18.9731 28.9768 19.2569C28.3572 19.9673 26.9417 20.8934 23.6766 20.8934C22.4387 20.8934 21.4666 20.7605 20.7022 20.5553C20.5007 21.1922 20.2191 21.8009 19.8643 22.3668Z" fill="#EAE5D9"/>
</svg>
