<svg width="24" height="24" viewBox="0 0 24 24" fill="none" xmlns="http://www.w3.org/2000/svg">
<g clip-path="url(#clip0_3463_22154)">
<path d="M14.0013 23.7791H25.002H14.0013ZM19.3501 3.76043C19.8367 3.27385 20.4966 3.00049 21.1847 3.00049C21.8729 3.00049 22.5328 3.27385 23.0194 3.76043C23.506 4.24701 23.7793 4.90696 23.7793 5.59509C23.7793 6.28322 23.506 6.94316 23.0194 7.42974L8.33969 22.1107C8.04891 22.4015 7.68946 22.6142 7.29464 22.7292L3.78422 23.7534C3.67904 23.7841 3.56755 23.7859 3.46142 23.7588C3.35529 23.7316 3.25842 23.6763 3.18095 23.5989C3.10348 23.5214 3.04826 23.4245 3.02107 23.3184C2.99388 23.2123 2.99572 23.1008 3.0264 22.9956L4.05068 19.4852C4.16584 19.0908 4.37855 18.7318 4.66916 18.4414L19.3501 3.76043Z" fill="#EAE5D9"/>
<path d="M14.0013 23.7791H25.002M19.3501 3.76043C19.8367 3.27385 20.4966 3.00049 21.1847 3.00049C21.8729 3.00049 22.5328 3.27385 23.0194 3.76043C23.506 4.24701 23.7793 4.90696 23.7793 5.59509C23.7793 6.28322 23.506 6.94316 23.0194 7.42974L8.33969 22.1107C8.04891 22.4015 7.68946 22.6142 7.29464 22.7292L3.78422 23.7534C3.67904 23.7841 3.56755 23.7859 3.46142 23.7588C3.35529 23.7316 3.25842 23.6763 3.18095 23.5989C3.10348 23.5214 3.04826 23.4245 3.02107 23.3184C2.99388 23.2123 2.99572 23.1008 3.0264 22.9956L4.05068 19.4852C4.16584 19.0908 4.37855 18.7318 4.66916 18.4414L19.3501 3.76043Z" stroke="#EAE5D9" stroke-width="1.66667" stroke-linecap="round" stroke-linejoin="round"/>
</g>
<defs>
<clipPath id="clip0_3463_22154">
<rect width="24" height="24" fill="white"/>
</clipPath>
</defs>
</svg>
