<svg width="30" height="30" viewBox="0 0 30 30" fill="none" xmlns="http://www.w3.org/2000/svg">
<path d="M12.6921 0.810869C14.1777 0.239476 15.8223 0.239476 17.3079 0.810869L27.9407 4.89944C28.5469 5.13285 29.0681 5.54445 29.4357 6.07999C29.8034 6.61552 30.0001 7.24987 30 7.89944V22.098C30.0001 22.7476 29.8034 23.3819 29.4357 23.9175C29.0681 24.453 28.5469 24.8646 27.9407 25.098L17.3079 29.1887C15.8223 29.7601 14.1777 29.7601 12.6921 29.1887L2.06143 25.098C1.45485 24.8649 0.933149 24.4535 0.565138 23.9179C0.197127 23.3824 8.60197e-05 22.7478 0 22.098V7.89944C8.60197e-05 7.24962 0.197127 6.61509 0.565138 6.07952C0.933149 5.54396 1.45485 5.13251 2.06143 4.89944L12.6921 0.810869ZM16.5386 2.81015C15.5482 2.42923 14.4518 2.42923 13.4614 2.81015L10.4957 3.9523L22.4743 8.48658L26.6486 6.69944L16.5386 2.81015ZM27.8571 8.51016L16.0714 13.5652V27.3394C16.2286 27.2994 16.3843 27.2494 16.5386 27.1894L27.1714 23.1009C27.3735 23.0229 27.5471 22.8856 27.6696 22.7069C27.792 22.5283 27.8574 22.3167 27.8571 22.1002V8.51016ZM13.9286 27.3373V13.5652L2.14286 8.5123V22.098C2.14263 22.3146 2.20803 22.5261 2.33045 22.7048C2.45286 22.8834 2.62653 23.0208 2.82857 23.0987L13.4614 27.1873C13.6143 27.2473 13.77 27.2973 13.9286 27.3373ZM3.35143 6.69944L15 11.6923L19.6371 9.70373L7.49357 5.10515L3.35143 6.69944Z" fill="#EAE5D9"/>
</svg>
