<svg width="30" height="30" viewBox="0 0 30 30" fill="none" xmlns="http://www.w3.org/2000/svg">
<path d="M15.0168 0C16.1928 0.0123077 17.3641 0.143077 18.5128 0.389232C18.7572 0.441616 18.9785 0.566005 19.1457 0.745018C19.3129 0.92403 19.4176 1.14872 19.4453 1.3877L19.7177 3.73693C19.7562 4.06814 19.8751 4.38605 20.0648 4.6651C20.2546 4.94414 20.5099 5.17652 20.8102 5.34353C21.1105 5.51055 21.4475 5.60754 21.794 5.6267C22.1405 5.64586 22.4868 5.58666 22.8052 5.45386L25.0483 4.5077C25.2762 4.41132 25.5296 4.3853 25.7736 4.43326C26.0176 4.48122 26.24 4.60077 26.4101 4.77539C28.0317 6.43872 29.2396 8.43329 29.943 10.6093C30.0165 10.8381 30.0141 11.0832 29.936 11.3106C29.8579 11.538 29.708 11.7365 29.5072 11.8785L27.5189 13.2877C27.2387 13.4849 27.0109 13.7427 26.8539 14.0402C26.6968 14.3377 26.615 14.6665 26.615 15C26.615 15.3336 26.6968 15.6624 26.8539 15.9599C27.0109 16.2574 27.2387 16.5152 27.5189 16.7123L29.5104 18.12C29.7116 18.2621 29.8616 18.4608 29.9397 18.6886C30.0178 18.9163 30.0201 19.1618 29.9462 19.3908C29.2433 21.5666 28.0359 23.5612 26.4149 25.2247C26.2451 25.3992 26.0231 25.5189 25.7794 25.5671C25.5358 25.6153 25.2825 25.5897 25.0547 25.4939L22.802 24.5447C22.4841 24.4108 22.1378 24.3507 21.7913 24.3692C21.4447 24.3878 21.1075 24.4844 20.8071 24.6512C20.5066 24.8181 20.2513 25.0506 20.0617 25.3298C19.8722 25.609 19.7538 25.9272 19.7161 26.2585L19.4437 28.6062C19.4165 28.8424 19.3141 29.0647 19.1503 29.2429C18.9866 29.4211 18.7695 29.5463 18.5289 29.6016C16.2083 30.1328 13.7901 30.1328 11.4695 29.6016C11.2286 29.5466 11.0112 29.4215 10.8471 29.2433C10.6831 29.0651 10.5804 28.8426 10.5531 28.6062L10.2823 26.2616C10.243 25.9313 10.1235 25.6145 9.93355 25.3365C9.74358 25.0586 9.48838 24.8273 9.18845 24.6612C8.88852 24.4952 8.55221 24.399 8.20654 24.3803C7.86086 24.3617 7.51545 24.4211 7.19804 24.5539L4.94533 25.5016C4.71726 25.5978 4.4637 25.6236 4.21972 25.5753C3.97574 25.5271 3.75339 25.4072 3.58345 25.2324C1.96222 23.567 0.755398 21.5702 0.0537816 19.3923C-0.0200862 19.1633 -0.017811 18.9179 0.0602909 18.6901C0.138393 18.4624 0.288441 18.2637 0.489583 18.1216L2.48113 16.7123C2.76127 16.5152 2.98909 16.2574 3.14613 15.9599C3.30316 15.6624 3.385 15.3336 3.385 15C3.385 14.6665 3.30316 14.3377 3.14613 14.0402C2.98909 13.7427 2.76127 13.4849 2.48113 13.2877L0.489583 11.8816C0.288441 11.7395 0.138393 11.5408 0.0602909 11.313C-0.017811 11.0853 -0.0200862 10.8398 0.0537816 10.6108C0.757218 8.43483 1.9651 6.44026 3.58665 4.77693C3.75679 4.60231 3.97922 4.48275 4.22319 4.4348C4.46716 4.38684 4.72063 4.41286 4.94853 4.50924L7.19163 5.4554C7.5105 5.58812 7.85734 5.64718 8.2043 5.62784C8.55126 5.60849 8.88865 5.51128 9.18938 5.344C9.49011 5.17673 9.74579 4.94406 9.93587 4.66469C10.126 4.38531 10.2452 4.06703 10.2839 3.73539L10.5563 1.3877C10.5838 1.14824 10.6886 0.923054 10.8561 0.743716C11.0237 0.564378 11.2454 0.439884 11.4904 0.387693C12.6375 0.14359 13.813 0.014359 15.0168 0ZM15.0168 2.3077C14.29 2.31511 13.5648 2.37528 12.8474 2.4877L12.6712 3.99078C12.591 4.68201 12.3429 5.34551 11.9467 5.92778C11.5506 6.51005 11.0175 6.99481 10.3905 7.343C9.76348 7.6912 9.06004 7.89308 8.33687 7.93237C7.6137 7.97167 6.89103 7.84729 6.2271 7.56925L4.78671 6.96309C3.87111 8.03072 3.14223 9.23409 2.62853 10.5262L3.9055 11.4293C4.48943 11.8407 4.96429 12.3784 5.29165 12.9988C5.61901 13.6192 5.78967 14.3049 5.78983 15.0004C5.78998 15.6959 5.61963 16.3817 5.29255 17.0022C4.96547 17.6227 4.49085 18.1606 3.9071 18.5723L2.62693 19.477C3.13964 20.7724 3.87025 21.9785 4.78671 23.0493L6.23671 22.4385C6.89921 22.1608 7.62037 22.0363 8.34213 22.075C9.0639 22.1138 9.7661 22.3147 10.3922 22.6616C11.0184 23.0085 11.5509 23.4918 11.947 24.0724C12.3431 24.6531 12.5917 25.3149 12.6728 26.0047L12.8474 27.5185C14.2734 27.7493 15.7298 27.7493 17.1542 27.5185L17.3304 26.0047C17.4099 25.3139 17.6574 24.6507 18.0531 24.0688C18.4487 23.4868 18.9814 23.0024 19.6081 22.6547C20.2347 22.307 20.9378 22.1056 21.6605 22.067C22.3831 22.0284 23.1051 22.1535 23.7681 22.4324L25.2165 23.0416C26.133 21.9731 26.8624 20.7687 27.3763 19.4754L26.0977 18.5708C25.5138 18.1593 25.0389 17.6216 24.7116 17.0012C24.3842 16.3808 24.2135 15.6951 24.2134 14.9997C24.2132 14.3042 24.3836 13.6184 24.7107 12.9979C25.0377 12.3773 25.5124 11.8394 26.0961 11.4277L27.3731 10.5246C26.859 9.23191 26.1296 8.02801 25.2133 6.96001L23.7761 7.56463C23.1124 7.84363 22.3897 7.96885 21.6662 7.93019C20.9428 7.89153 20.239 7.69007 19.6117 7.34207C18.9843 6.99407 18.4509 6.50929 18.0547 5.92686C17.6584 5.34444 17.4103 4.6807 17.3304 3.98924L17.1558 2.4877C16.449 2.37682 15.7329 2.31665 15.0168 2.3077ZM14.9976 9.23079C16.5911 9.23079 18.1193 9.83862 19.2461 10.9206C20.3729 12.0025 21.0059 13.4699 21.0059 15C21.0059 16.5301 20.3729 17.9976 19.2461 19.0795C18.1193 20.1614 16.5911 20.7693 14.9976 20.7693C13.4041 20.7693 11.8759 20.1614 10.7491 19.0795C9.62232 17.9976 8.98931 16.5301 8.98931 15C8.98931 13.4699 9.62232 12.0025 10.7491 10.9206C11.8759 9.83862 13.4041 9.23079 14.9976 9.23079ZM14.9976 11.5385C14.0415 11.5385 13.1246 11.9032 12.4485 12.5523C11.7724 13.2015 11.3926 14.082 11.3926 15C11.3926 15.9181 11.7724 16.7985 12.4485 17.4477C13.1246 18.0969 14.0415 18.4616 14.9976 18.4616C15.9537 18.4616 16.8706 18.0969 17.5467 17.4477C18.2228 16.7985 18.6026 15.9181 18.6026 15C18.6026 14.082 18.2228 13.2015 17.5467 12.5523C16.8706 11.9032 15.9537 11.5385 14.9976 11.5385Z" fill="#EAE5D9"/>
</svg>
