<svg width="24" height="24" viewBox="0 0 24 24" fill="none" xmlns="http://www.w3.org/2000/svg">
<path fill-rule="evenodd" clip-rule="evenodd" d="M12 14.1221L17.303 19.4251C17.5844 19.7065 17.966 19.8646 18.364 19.8646C18.7619 19.8646 19.1436 19.7065 19.425 19.4251C19.7064 19.1437 19.8645 18.7621 19.8645 18.3641C19.8645 17.9662 19.7064 17.5845 19.425 17.3031L14.12 12.0001L19.424 6.69711C19.5632 6.55778 19.6737 6.39238 19.749 6.21036C19.8244 6.02834 19.8631 5.83326 19.8631 5.63626C19.8631 5.43926 19.8242 5.2442 19.7488 5.06221C19.6733 4.88022 19.5628 4.71488 19.4235 4.57561C19.2841 4.43634 19.1187 4.32588 18.9367 4.25054C18.7547 4.17519 18.5596 4.13644 18.3626 4.13648C18.1656 4.13653 17.9706 4.17538 17.7886 4.25081C17.6066 4.32624 17.4412 4.43678 17.302 4.57611L12 9.87911L6.69697 4.57611C6.55867 4.43278 6.3932 4.31843 6.21024 4.23973C6.02727 4.16103 5.83046 4.11956 5.63129 4.11774C5.43212 4.11591 5.23459 4.15377 5.05021 4.22911C4.86583 4.30444 4.6983 4.41574 4.55739 4.55652C4.41649 4.69729 4.30503 4.86471 4.22952 5.04902C4.15401 5.23333 4.11597 5.43083 4.1176 5.63C4.11924 5.82917 4.16053 6.02602 4.23905 6.20906C4.31758 6.3921 4.43177 6.55767 4.57497 6.69611L9.87997 12.0001L4.57597 17.3041C4.43277 17.4425 4.31858 17.6081 4.24005 17.7912C4.16153 17.9742 4.12024 18.1711 4.1186 18.3702C4.11697 18.5694 4.15501 18.7669 4.23052 18.9512C4.30603 19.1355 4.41749 19.3029 4.55839 19.4437C4.6993 19.5845 4.86683 19.6958 5.05121 19.7711C5.23559 19.8464 5.43312 19.8843 5.63229 19.8825C5.83146 19.8807 6.02827 19.8392 6.21124 19.7605C6.3942 19.6818 6.55967 19.5674 6.69797 19.4241L12 14.1221Z" fill="#EAE5D9"/>
</svg>
