<svg width="30" height="30" viewBox="0 0 30 30" fill="none" xmlns="http://www.w3.org/2000/svg">
<path d="M1.875 22.0312C1.875 22.9015 2.2207 23.7361 2.83606 24.3514C3.45141 24.9668 4.28601 25.3125 5.15625 25.3125H24.8438C25.714 25.3125 26.5486 24.9668 27.1639 24.3514C27.7793 23.7361 28.125 22.9015 28.125 22.0312V13.0078H1.875V22.0312ZM5.74219 17.5781C5.74219 17.1119 5.92738 16.6648 6.25704 16.3352C6.58669 16.0055 7.0338 15.8203 7.5 15.8203H10.3125C10.7787 15.8203 11.2258 16.0055 11.5555 16.3352C11.8851 16.6648 12.0703 17.1119 12.0703 17.5781V18.75C12.0703 19.2162 11.8851 19.6633 11.5555 19.993C11.2258 20.3226 10.7787 20.5078 10.3125 20.5078H7.5C7.0338 20.5078 6.58669 20.3226 6.25704 19.993C5.92738 19.6633 5.74219 19.2162 5.74219 18.75V17.5781ZM24.8438 4.6875H5.15625C4.28601 4.6875 3.45141 5.0332 2.83606 5.64856C2.2207 6.26391 1.875 7.09851 1.875 7.96875V9.49219H28.125V7.96875C28.125 7.09851 27.7793 6.26391 27.1639 5.64856C26.5486 5.0332 25.714 4.6875 24.8438 4.6875Z" fill="#647484"/>
</svg>
