<svg width="24" height="24" viewBox="0 0 24 24" fill="none" xmlns="http://www.w3.org/2000/svg">
<path d="M8.14244 4.28577C7.63591 4.28577 7.13434 4.38553 6.66637 4.57937C6.1984 4.77321 5.7732 5.05733 5.41503 5.4155C5.05686 5.77367 4.77274 6.19887 4.5789 6.66684C4.38506 7.13481 4.2853 7.63638 4.2853 8.14291C4.2853 8.64944 4.38506 9.151 4.5789 9.61897C4.77274 10.0869 5.05686 10.5122 5.41503 10.8703C5.7732 11.2285 6.1984 11.5126 6.66637 11.7064C7.13434 11.9003 7.63591 12.0001 8.14244 12.0001C9.16542 12.0001 10.1465 11.5937 10.8699 10.8703C11.5932 10.147 11.9996 9.16589 11.9996 8.14291C11.9996 7.11993 11.5932 6.13885 10.8699 5.4155C10.1465 4.69214 9.16542 4.28577 8.14244 4.28577ZM17.1424 6.00005C16.3468 6.00005 15.5837 6.31612 15.0211 6.87873C14.4585 7.44134 14.1424 8.2044 14.1424 9.00005C14.1424 9.7957 14.4585 10.5588 15.0211 11.1214C15.5837 11.684 16.3468 12.0001 17.1424 12.0001C17.9381 12.0001 18.7012 11.684 19.2638 11.1214C19.8264 10.5588 20.1424 9.7957 20.1424 9.00005C20.1424 8.2044 19.8264 7.44134 19.2638 6.87873C18.7012 6.31612 17.9381 6.00005 17.1424 6.00005ZM15.4282 9.00005C15.4282 8.5454 15.6088 8.10936 15.9303 7.78787C16.2517 7.46638 16.6878 7.28577 17.1424 7.28577C17.5971 7.28577 18.0331 7.46638 18.3546 7.78787C18.6761 8.10936 18.8567 8.5454 18.8567 9.00005C18.8567 9.45471 18.6761 9.89074 18.3546 10.2122C18.0331 10.5337 17.5971 10.7143 17.1424 10.7143C16.6878 10.7143 16.2517 10.5337 15.9303 10.2122C15.6088 9.89074 15.4282 9.45471 15.4282 9.00005ZM1.71387 15.6429C1.71387 15.1314 1.91706 14.6409 2.27873 14.2792C2.64041 13.9175 3.13095 13.7143 3.64244 13.7143H12.6424C13.1539 13.7143 13.6445 13.9175 14.0061 14.2792C14.3678 14.6409 14.571 15.1314 14.571 15.6429V16.0981C14.5704 16.1674 14.5655 16.2367 14.5564 16.3055C14.5371 16.4823 14.5056 16.6576 14.4622 16.8301C14.3202 17.3928 14.0675 17.9217 13.719 18.3858C12.8499 19.5455 11.1922 20.5715 8.14244 20.5715C5.09272 20.5715 3.43501 19.5455 2.56587 18.3858C2.21764 17.9216 1.9653 17.3928 1.82358 16.8301C1.76749 16.606 1.73163 16.3774 1.71644 16.1469L1.71387 16.0981V15.6429ZM14.6567 18.5315C15.3193 18.7346 16.137 18.8572 17.1407 18.8572C19.515 18.8572 20.8419 18.1749 21.5627 17.3521C21.8505 17.0261 22.064 16.6415 22.1884 16.2249C22.2371 16.0565 22.2684 15.8836 22.2819 15.7089L22.2836 15.6686V15.6429C22.2836 15.1314 22.0804 14.6409 21.7187 14.2792C21.357 13.9175 20.8665 13.7143 20.355 13.7143H14.6516C14.9893 14.0666 15.2362 14.5081 15.3527 15.0001H20.3559C20.5249 15 20.6871 15.0666 20.8074 15.1853C20.9277 15.304 20.9965 15.4653 20.9987 15.6343L20.9944 15.6738C20.9859 15.7384 20.9724 15.8023 20.9542 15.8649C20.8818 16.1018 20.759 16.3203 20.5942 16.5052C20.1904 16.9681 19.2682 17.5715 17.1407 17.5715C16.3342 17.5715 15.7007 17.4849 15.2027 17.3512C15.0714 17.7661 14.8879 18.1627 14.6567 18.5315Z" fill="#EAE5D9"/>
</svg>
