<svg width="14" height="15" viewBox="0 0 14 15" fill="none" xmlns="http://www.w3.org/2000/svg">
<g clip-path="url(#clip0_2708_20998)">
<path d="M11.2 1.8834V0.483398H9.8V1.8834H4.2V0.483398H2.8V1.8834H0V14.4834H14V1.8834H11.2ZM12.6 13.0834H1.4V6.0834H12.6V13.0834ZM12.6 4.6834H1.4V3.2834H2.8V3.9834H4.2V3.2834H9.8V3.9834H11.2V3.2834H12.6V4.6834Z" fill="#647484"/>
<path d="M4.26922 9.72339H4.33922L5.17922 8.88339L6.36922 10.0734L5.03922 11.4034C4.89922 11.4734 4.89922 11.6134 5.03922 11.6834L5.31922 11.9634C5.38922 12.0334 5.59922 12.0334 5.66922 11.9634L6.99922 10.6334L8.32922 11.9634C8.39922 12.0334 8.60922 12.0334 8.67922 11.9634L8.95922 11.6834C9.02922 11.6134 9.02922 11.4034 8.95922 11.3334L7.62922 10.0034L8.81922 8.81339L9.65922 9.65339H9.72922L9.79922 9.58339V8.32339L8.32922 6.85339H8.18922L7.55922 7.48339V7.62339L8.11922 8.18339L6.99922 9.37339L5.80922 8.18339L6.36922 7.62339V7.48339L5.80922 6.92339H5.66922L4.19922 8.39339V9.65339C4.19922 9.65339 4.19922 9.72339 4.26922 9.72339Z" fill="#647484"/>
</g>
<defs>
<clipPath id="clip0_2708_20998">
<rect width="14" height="14" fill="white" transform="translate(0 0.483398)"/>
</clipPath>
</defs>
</svg>
