<svg width="24" height="24" viewBox="0 0 24 24" fill="none" xmlns="http://www.w3.org/2000/svg">
<path d="M10.3845 2.06707C11.4244 1.6671 12.5756 1.6671 13.6155 2.06707L21.0585 4.92907C21.4828 5.09246 21.8477 5.38058 22.105 5.75545C22.3623 6.13033 22.5001 6.57437 22.5 7.02907V16.9681C22.5001 17.4228 22.3623 17.8668 22.105 18.2417C21.8477 18.6166 21.4828 18.9047 21.0585 19.0681L13.6155 21.9316C12.5756 22.3315 11.4244 22.3315 10.3845 21.9316L2.943 19.0681C2.51839 18.9049 2.1532 18.6169 1.8956 18.242C1.63799 17.8671 1.50006 17.4229 1.5 16.9681V7.02907C1.50006 6.5742 1.63799 6.13003 1.8956 5.75513C2.1532 5.38023 2.51839 5.09222 2.943 4.92907L10.3845 2.06707ZM13.077 3.46657C12.3838 3.19992 11.6162 3.19992 10.923 3.46657L8.847 4.26607L17.232 7.44007L20.154 6.18907L13.077 3.46657ZM21 7.45657L12.75 10.9951V20.6371C12.86 20.6091 12.969 20.5741 13.077 20.5321L20.52 17.6701C20.6614 17.6155 20.783 17.5193 20.8687 17.3943C20.9544 17.2692 21.0002 17.1212 21 16.9696V7.45657ZM11.25 20.6356V10.9951L3 7.45807V16.9681C2.99984 17.1197 3.04562 17.2677 3.13131 17.3928C3.217 17.5178 3.33857 17.614 3.48 17.6686L10.923 20.5306C11.03 20.5726 11.139 20.6076 11.25 20.6356ZM3.846 6.18907L12 9.68407L15.246 8.29207L6.7455 5.07307L3.846 6.18907Z" fill="#EAE5D9"/>
</svg>
