<svg width="14" height="14" viewBox="0 0 14 14" fill="none" xmlns="http://www.w3.org/2000/svg">
<path fill-rule="evenodd" clip-rule="evenodd" d="M6.99934 8.76818L11.4185 13.1873C11.653 13.4218 11.9711 13.5536 12.3027 13.5536C12.6343 13.5536 12.9523 13.4218 13.1868 13.1873C13.4213 12.9529 13.5531 12.6348 13.5531 12.3032C13.5531 11.9716 13.4213 11.6535 13.1868 11.419L8.76601 6.99985L13.186 2.58068C13.3021 2.46457 13.3941 2.32674 13.4569 2.17505C13.5197 2.02337 13.552 1.8608 13.552 1.69664C13.5519 1.53247 13.5195 1.36992 13.4567 1.21826C13.3938 1.06661 13.3017 0.92882 13.1856 0.812764C13.0695 0.696709 12.9317 0.604659 12.78 0.541871C12.6283 0.479083 12.4657 0.446786 12.3015 0.446825C12.1374 0.446864 11.9748 0.479237 11.8232 0.542096C11.6715 0.604956 11.5337 0.697071 11.4177 0.813181L6.99934 5.23235L2.58018 0.813181C2.46493 0.69374 2.32704 0.598449 2.17457 0.532866C2.02209 0.467284 1.85808 0.432725 1.69211 0.431205C1.52614 0.429685 1.36152 0.461235 1.20788 0.524013C1.05423 0.586792 0.914618 0.679542 0.797197 0.796852C0.679777 0.914162 0.586895 1.05368 0.523971 1.20727C0.461048 1.36086 0.429343 1.52545 0.430706 1.69142C0.43207 1.8574 0.466474 2.02144 0.531913 2.17397C0.597351 2.32651 0.692512 2.46448 0.811845 2.57985L5.23268 6.99985L0.812678 11.4198C0.693346 11.5352 0.598185 11.6732 0.532746 11.8257C0.467308 11.9783 0.432903 12.1423 0.43154 12.3083C0.430176 12.4742 0.461881 12.6388 0.524804 12.7924C0.587728 12.946 0.68061 13.0855 0.798031 13.2028C0.915451 13.3202 1.05506 13.4129 1.20871 13.4757C1.36236 13.5385 1.52697 13.57 1.69294 13.5685C1.85892 13.567 2.02293 13.5324 2.1754 13.4668C2.32787 13.4012 2.46576 13.306 2.58101 13.1865L6.99934 8.76818Z" fill="#647484"/>
</svg>
