<svg width="36" height="28" viewBox="0 0 36 28" fill="none" xmlns="http://www.w3.org/2000/svg">
<path d="M14 6.17188H22V21.8278H14V6.17188Z" fill="#FF5F00"/>
<path d="M14.2338 13.9998C14.2338 10.8741 15.7183 8.10163 18 6.30768C16.3231 5.00305 14.2064 4.21484 11.8971 4.21484C6.42607 4.21484 2 8.59082 2 13.9998C2 19.4088 6.42607 23.7847 11.8969 23.7847C14.2062 23.7847 16.323 22.9965 18 21.6918C15.7183 19.9251 14.2338 17.1255 14.2338 13.9998Z" fill="#EB001B"/>
<path d="M33.9999 13.9998C33.9999 19.4086 29.5738 23.7847 24.103 23.7847C21.7937 23.7847 19.677 22.9965 18 21.6918C20.3093 19.8979 21.7663 17.1255 21.7663 13.9998C21.7663 10.8741 20.2817 8.10163 18 6.30768C19.6768 5.00305 21.7937 4.21484 24.103 4.21484C29.5738 4.21484 33.9999 8.61806 33.9999 13.9998Z" fill="#F79E1B"/>
</svg>
