<svg width="20" height="20" viewBox="0 0 20 20" fill="none" xmlns="http://www.w3.org/2000/svg">
<path fill-rule="evenodd" clip-rule="evenodd" d="M9.99971 11.7682L14.4189 16.1873C14.6534 16.4218 14.9714 16.5536 15.303 16.5536C15.6347 16.5536 15.9527 16.4218 16.1872 16.1873C16.4217 15.9529 16.5534 15.6348 16.5534 15.3032C16.5534 14.9716 16.4217 14.6535 16.1872 14.419L11.7664 9.99985L16.1864 5.58068C16.3024 5.46457 16.3945 5.32674 16.4573 5.17505C16.5201 5.02337 16.5524 4.8608 16.5523 4.69664C16.5523 4.53247 16.5199 4.36992 16.457 4.21826C16.3942 4.06661 16.3021 3.92882 16.186 3.81276C16.0698 3.69671 15.932 3.60466 15.7803 3.54187C15.6286 3.47908 15.4661 3.44679 15.3019 3.44683C15.1377 3.44686 14.9752 3.47924 14.8235 3.5421C14.6719 3.60496 14.5341 3.69707 14.418 3.81318L9.99971 8.23235L5.58054 3.81318C5.46529 3.69374 5.32741 3.59845 5.17493 3.53287C5.02246 3.46728 4.85845 3.43272 4.69248 3.4312C4.5265 3.42968 4.36189 3.46123 4.20824 3.52401C4.05459 3.58679 3.91498 3.67954 3.79756 3.79685C3.68014 3.91416 3.58726 4.05368 3.52434 4.20727C3.46141 4.36086 3.42971 4.52545 3.43107 4.69142C3.43244 4.8574 3.46684 5.02144 3.53228 5.17397C3.59772 5.32651 3.69288 5.46448 3.81221 5.57985L8.23304 9.99985L3.81304 14.4198C3.69371 14.5352 3.59855 14.6732 3.53311 14.8257C3.46767 14.9783 3.43327 15.1423 3.43191 15.3083C3.43054 15.4742 3.46225 15.6388 3.52517 15.7924C3.58809 15.946 3.68098 16.0855 3.7984 16.2028C3.91582 16.3202 4.05543 16.4129 4.20907 16.4757C4.36272 16.5385 4.52734 16.57 4.69331 16.5685C4.85928 16.567 5.02329 16.5324 5.17577 16.4668C5.32824 16.4012 5.46613 16.306 5.58138 16.1865L9.99971 11.7682Z" fill="#EAE5D9"/>
</svg>
