<svg width="14" height="15" viewBox="0 0 14 15" fill="none" xmlns="http://www.w3.org/2000/svg">
<g clip-path="url(#clip0_2708_20969)">
<path d="M11.2 1.55002V0.150024H9.8V1.55002H4.2V0.150024H2.8V1.55002H0V14.15H14V1.55002H11.2ZM12.6 12.75H1.4V5.75002H12.6V12.75ZM1.4 4.35002V2.95002H2.8V3.65002H4.2V2.95002H9.8V3.65002H11.2V2.95002H12.6V4.35002H1.4Z" fill="#647484"/>
<path d="M8.6807 9.52999L9.4507 8.68999L10.2207 9.52999L10.7807 8.97L9.9407 8.19999L10.7807 7.42999L10.2207 6.87L9.4507 7.70999L8.6807 6.87L8.1207 7.42999L8.9607 8.19999L8.1207 8.97L8.6807 9.52999ZM3.7807 11.63L4.5507 10.79L5.3207 11.63L5.8807 11.07L5.0407 10.3L5.8807 9.52999L5.3207 8.97L4.5507 9.80999L3.7807 8.97L3.2207 9.52999L4.0607 10.3L3.2207 11.07L3.7807 11.63Z" fill="#647484"/>
</g>
<defs>
<clipPath id="clip0_2708_20969">
<rect width="14" height="14" fill="white" transform="translate(0 0.150024)"/>
</clipPath>
</defs>
</svg>
