<svg width="24" height="24" viewBox="0 0 24 24" fill="none" xmlns="http://www.w3.org/2000/svg">
<path d="M12.0122 2.25C12.7462 2.258 13.4772 2.343 14.1942 2.503C14.3468 2.53705 14.4848 2.6179 14.5892 2.73426C14.6935 2.85062 14.7589 2.99667 14.7762 3.152L14.9462 4.679C14.9702 4.89428 15.0444 5.10093 15.1629 5.28231C15.2813 5.46368 15.4406 5.61473 15.6281 5.72329C15.8155 5.83185 16.0259 5.89489 16.2421 5.90735C16.4584 5.9198 16.6745 5.88132 16.8732 5.795L18.2732 5.18C18.4155 5.11735 18.5737 5.10044 18.7259 5.13161C18.8782 5.16278 19.017 5.24049 19.1232 5.354C20.1353 6.43516 20.8892 7.73163 21.3282 9.146C21.3741 9.29474 21.3726 9.45406 21.3238 9.60189C21.2751 9.74971 21.1816 9.87871 21.0562 9.971L19.8152 10.887C19.6404 11.0152 19.4982 11.1827 19.4002 11.3761C19.3022 11.5695 19.2511 11.7832 19.2511 12C19.2511 12.2168 19.3022 12.4305 19.4002 12.6239C19.4982 12.8173 19.6404 12.9848 19.8152 13.113L21.0582 14.028C21.1838 14.1204 21.2774 14.2495 21.3262 14.3976C21.3749 14.5456 21.3763 14.7051 21.3302 14.854C20.8915 16.2683 20.1379 17.5647 19.1262 18.646C19.0202 18.7595 18.8816 18.8372 18.7296 18.8686C18.5775 18.8999 18.4194 18.8833 18.2772 18.821L16.8712 18.204C16.6728 18.117 16.4567 18.0779 16.2404 18.09C16.0241 18.102 15.8136 18.1648 15.6261 18.2733C15.4386 18.3817 15.2792 18.5328 15.1609 18.7143C15.0426 18.8958 14.9687 19.1026 14.9452 19.318L14.7752 20.844C14.7582 20.9975 14.6943 21.142 14.5921 21.2578C14.4899 21.3736 14.3544 21.4551 14.2042 21.491C12.7558 21.8363 11.2466 21.8363 9.79822 21.491C9.64782 21.4552 9.51214 21.3739 9.40975 21.2581C9.30736 21.1423 9.24326 20.9976 9.22622 20.844L9.05722 19.32C9.03267 19.1053 8.95812 18.8994 8.83955 18.7187C8.72098 18.538 8.56171 18.3877 8.37451 18.2798C8.18731 18.1718 7.97741 18.1093 7.76166 18.0972C7.54591 18.0851 7.33032 18.1237 7.13222 18.21L5.72622 18.826C5.58387 18.8885 5.42561 18.9053 5.27333 18.8739C5.12106 18.8426 4.98228 18.7647 4.87622 18.651C3.86434 17.5685 3.11112 16.2706 2.67322 14.855C2.62711 14.7061 2.62853 14.5466 2.67728 14.3986C2.72602 14.2505 2.81968 14.1214 2.94522 14.029L4.18822 13.113C4.36306 12.9848 4.50525 12.8173 4.60327 12.6239C4.70128 12.4305 4.75235 12.2168 4.75235 12C4.75235 11.7832 4.70128 11.5695 4.60327 11.3761C4.50525 11.1827 4.36306 11.0152 4.18822 10.887L2.94522 9.973C2.81968 9.88065 2.72602 9.75148 2.67728 9.60345C2.62853 9.45541 2.62711 9.29588 2.67322 9.147C3.11226 7.73263 3.86614 6.43616 4.87822 5.355C4.9844 5.24149 5.12323 5.16378 5.2755 5.13261C5.42777 5.10144 5.58597 5.11835 5.72822 5.181L7.12822 5.796C7.32723 5.88227 7.54371 5.92066 7.76026 5.90809C7.97681 5.89551 8.18739 5.83232 8.37509 5.72359C8.56278 5.61487 8.72236 5.46363 8.841 5.28204C8.95964 5.10045 9.03404 4.89356 9.05822 4.678L9.22822 3.152C9.24537 2.99635 9.31082 2.84998 9.41537 2.73341C9.51993 2.61684 9.65835 2.53592 9.81122 2.502C10.5272 2.34333 11.2609 2.25933 12.0122 2.25ZM12.0122 3.75C11.5586 3.75482 11.106 3.79393 10.6582 3.867L10.5482 4.844C10.4982 5.2933 10.3433 5.72457 10.0961 6.10305C9.84881 6.48152 9.5161 6.79662 9.12475 7.02294C8.73341 7.24927 8.29436 7.38049 7.843 7.40603C7.39165 7.43157 6.9406 7.35073 6.52622 7.17L5.62722 6.776C5.05576 7.46996 4.60083 8.25215 4.28022 9.092L5.07722 9.679C5.44167 9.94646 5.73805 10.296 5.94237 10.6992C6.14668 11.1025 6.2532 11.5482 6.2533 12.0002C6.2534 12.4523 6.14707 12.8981 5.94293 13.3014C5.73879 13.7048 5.44256 14.0544 5.07822 14.322L4.27922 14.91C4.59922 15.752 5.05522 16.536 5.62722 17.232L6.53222 16.835C6.94571 16.6545 7.39581 16.5735 7.84629 16.5987C8.29677 16.6239 8.73504 16.7545 9.12583 16.98C9.51662 17.2055 9.849 17.5196 10.0962 17.897C10.3435 18.2745 10.4986 18.7047 10.5492 19.153L10.6582 20.137C11.5482 20.287 12.4572 20.287 13.3462 20.137L13.4562 19.153C13.5058 18.704 13.6603 18.2729 13.9072 17.8947C14.1542 17.5164 14.4867 17.2015 14.8778 16.9755C15.2689 16.7495 15.7077 16.6186 16.1588 16.5935C16.6098 16.5684 17.0604 16.6498 17.4742 16.831L18.3782 17.227C18.9502 16.5325 19.4055 15.7496 19.7262 14.909L18.9282 14.321C18.5638 14.0535 18.2674 13.704 18.0631 13.3008C17.8587 12.8975 17.7522 12.4518 17.7521 11.9998C17.752 11.5477 17.8584 11.1019 18.0625 10.6986C18.2666 10.2952 18.5629 9.94562 18.9272 9.678L19.7242 9.091C19.4034 8.25073 18.9481 7.46819 18.3762 6.774L17.4792 7.167C17.065 7.34835 16.6139 7.42974 16.1624 7.40461C15.7109 7.37948 15.2716 7.24853 14.88 7.02233C14.4885 6.79613 14.1556 6.48103 13.9082 6.10245C13.6609 5.72388 13.5061 5.29245 13.4562 4.843L13.3472 3.867C12.9061 3.79493 12.4592 3.75582 12.0122 3.75ZM12.0002 8.25C12.9948 8.25 13.9486 8.64509 14.6519 9.34835C15.3551 10.0516 15.7502 11.0054 15.7502 12C15.7502 12.9946 15.3551 13.9484 14.6519 14.6516C13.9486 15.3549 12.9948 15.75 12.0002 15.75C11.0057 15.75 10.0518 15.3549 9.34857 14.6516C8.6453 13.9484 8.25022 12.9946 8.25022 12C8.25022 11.0054 8.6453 10.0516 9.34857 9.34835C10.0518 8.64509 11.0057 8.25 12.0002 8.25ZM12.0002 9.75C11.4035 9.75 10.8312 9.98705 10.4092 10.409C9.98727 10.831 9.75022 11.4033 9.75022 12C9.75022 12.5967 9.98727 13.169 10.4092 13.591C10.8312 14.0129 11.4035 14.25 12.0002 14.25C12.597 14.25 13.1692 14.0129 13.5912 13.591C14.0132 13.169 14.2502 12.5967 14.2502 12C14.2502 11.4033 14.0132 10.831 13.5912 10.409C13.1692 9.98705 12.597 9.75 12.0002 9.75Z" fill="#EAE5D9"/>
</svg>
