<svg width="24" height="24" viewBox="0 0 24 24" fill="none" xmlns="http://www.w3.org/2000/svg">
<path d="M2 12H22M12 22V2M3 15V9M21 15V9M15 21H9M15 3H9M3 4.5C3 4.10218 3.15804 3.72064 3.43934 3.43934C3.72064 3.15804 4.10218 3 4.5 3H19.5C19.8978 3 20.2794 3.15804 20.5607 3.43934C20.842 3.72064 21 4.10218 21 4.5V19.5C21 19.8978 20.842 20.2794 20.5607 20.5607C20.2794 20.842 19.8978 21 19.5 21H4.5C4.10218 21 3.72064 20.842 3.43934 20.5607C3.15804 20.2794 3 19.8978 3 19.5V12V4.5Z" stroke="#EAE5D9" stroke-width="1.66667" stroke-linecap="round" stroke-linejoin="round"/>
<path d="M12.0002 11.9999C12.0002 11.9999 15.9487 10.2269 16.5497 9.62642C16.8382 9.33786 17.0003 8.9465 17.0003 8.53842C17.0003 8.13034 16.8382 7.73898 16.5497 7.45042C16.2611 7.16186 15.8697 6.99976 15.4617 6.99976C15.0536 6.99976 14.6622 7.16186 14.3737 7.45042C13.7732 8.05142 12.0002 11.9999 12.0002 11.9999ZM12.0002 11.9999C12.0002 11.9999 8.05166 10.2269 7.45066 9.62642M12.0002 11.9999C12.0002 11.9999 10.2272 8.05142 9.62666 7.45042M12.0002 11.9999C12.0002 11.9999 15.9487 13.7729 16.5497 14.3734M12.0002 11.9999C12.0002 11.9999 13.7732 15.9484 14.3737 16.5494M12.0002 11.9999C12.0002 11.9999 8.05166 13.7729 7.45066 14.3734C7.30779 14.5163 7.19445 14.6859 7.11712 14.8726C7.0398 15.0593 7 15.2594 7 15.4614C7 15.6635 7.0398 15.8636 7.11712 16.0502C7.19445 16.2369 7.30779 16.4065 7.45066 16.5494C7.59354 16.6923 7.76316 16.8056 7.94984 16.883C8.13652 16.9603 8.3366 17.0001 8.53866 17.0001C8.74072 17.0001 8.94081 16.9603 9.12749 16.883C9.31417 16.8056 9.48379 16.6923 9.62666 16.5494C10.2272 15.9484 12.0002 11.9999 12.0002 11.9999Z" stroke="#EAE5D9" stroke-width="1.66667" stroke-linecap="round" stroke-linejoin="round"/>
</svg>
