<svg width="36" height="42" viewBox="0 0 36 42" fill="none" xmlns="http://www.w3.org/2000/svg">
<path d="M25.7858 9.9507C24.5803 8.58536 22.4011 8 19.6132 8H11.5221C11.2463 7.99996 10.9794 8.09772 10.7697 8.2757C10.5599 8.45369 10.4209 8.70021 10.3777 8.97092L7.00874 30.2022C6.94178 30.6209 7.26804 31 7.69509 31H12.6903L13.9448 23.0934L13.9058 23.341C13.9952 22.7821 14.4762 22.3699 15.0459 22.3699H17.4196C22.0827 22.3699 25.734 20.4879 26.8006 15.0436C26.8322 14.8826 26.8597 14.7259 26.8834 14.5728C26.7487 14.5019 26.7487 14.5019 26.8834 14.5728C27.201 12.5605 26.8812 11.1908 25.7858 9.9507Z" fill="#27346A"/>
<path d="M15.8561 13.848C15.9926 13.7833 16.142 13.7498 16.2933 13.75H22.6365C23.3877 13.75 24.0883 13.7986 24.7285 13.901C24.9077 13.9294 25.0859 13.9633 25.2629 14.0026C25.5139 14.0577 25.7619 14.125 26.0061 14.2044C26.3209 14.3089 26.614 14.4305 26.8834 14.573C27.2009 12.5599 26.8812 11.1909 25.7858 9.95075C24.5795 8.58537 22.401 8 19.6132 8H11.5214C10.9517 8 10.467 8.41214 10.3777 8.97095L7.00874 30.202C6.94178 30.6214 7.26804 31 7.69439 31H12.6902L15.2929 14.5994C15.3186 14.4382 15.3832 14.2856 15.4813 14.1547C15.5794 14.0239 15.708 13.9186 15.8561 13.848Z" fill="#27346A"/>
<path d="M26.6997 15.4636C25.6157 20.8232 21.9047 22.6769 17.1651 22.6769H14.7519C14.1729 22.6769 13.6839 23.0828 13.594 23.633L12.0077 33.3124C11.9484 33.6731 12.2383 34 12.6174 34H16.8972C17.1424 33.9999 17.3794 33.9157 17.5658 33.7624C17.7522 33.6091 17.8757 33.3968 17.914 33.1637L17.9557 32.9538L18.7623 28.033L18.8142 27.7611C18.8526 27.528 18.976 27.3157 19.1624 27.1624C19.3487 27.0091 19.5858 26.9249 19.8309 26.9248H20.4715C24.6173 26.9248 27.8635 25.3036 28.8122 20.6147C29.2081 18.6552 29.0033 17.0192 27.9558 15.8701C27.6381 15.5221 27.2435 15.2346 26.7839 15C26.759 15.1515 26.732 15.3051 26.6997 15.4636Z" fill="#2790C3"/>
<path d="M25.881 14.3573C25.7145 14.312 25.5463 14.2719 25.3768 14.2371C25.1994 14.2008 25.0209 14.1692 24.8415 14.1424C24.1995 14.0457 23.4981 14 22.745 14H16.3916C16.2399 13.9998 16.0902 14.0315 15.9536 14.0927C15.8051 14.1587 15.6761 14.2574 15.5778 14.3802C15.4795 14.5031 15.4148 14.6464 15.3894 14.7977L14.039 22.7677L14 23C14.0888 22.4756 14.5707 22.0888 15.1414 22.0888H17.5199C22.191 22.0888 25.8485 20.3228 26.917 15.2141C26.9488 15.063 26.9755 14.9166 27 14.7722C26.7295 14.6394 26.4366 14.5243 26.1212 14.4271C26.0416 14.4025 25.9616 14.3792 25.8811 14.3573" fill="#1F264F"/>
</svg>
