<svg width="36" height="36" viewBox="0 0 36 36" fill="none" xmlns="http://www.w3.org/2000/svg">
<path d="M35.9155 18.0794C35.8761 28.022 27.7871 36.0396 17.8789 35.9998C7.97055 35.9602 -0.0392553 27.8632 0.000144734 17.9206C0.0399447 7.97801 8.12875 -0.0393929 18.0371 0.000207101C27.9651 0.0398071 35.9551 8.13681 35.9155 18.0794Z" fill="#221F1F"/>
<path d="M24.4248 26.9106C22.5262 30.324 20.1726 33.1224 17.5422 33.0628C15.9008 33.023 14.3384 32.4078 12.9144 31.4354C13.3692 30.602 16.237 26.4344 24.4248 26.9106ZM35.4406 18.0794C35.401 27.7442 27.5298 35.5632 17.8786 35.5038C8.22721 35.464 0.474609 27.5854 0.474609 17.9206C0.474609 11.6494 3.59941 7.14461 6.56601 4.72341C10.205 1.76641 12.677 4.02881 13.5472 5.75541C13.4484 5.02121 13.1518 2.91741 12.3408 1.40941C14.1208 0.794011 16.0392 0.456611 18.0368 0.476411C27.688 0.536011 35.4802 8.39481 35.4406 18.0794ZM17.028 7.99801C19.5596 6.27141 23.9304 5.31881 26.2442 8.93061C24.84 0.675011 18.7682 5.41801 17.028 7.99801ZM13.5078 15.7972C14.0418 15.2018 14.6548 14.6064 15.3668 14.0706C18.5312 11.6296 21.9922 11.0146 23.1194 12.7212C23.5546 13.376 23.5744 14.289 23.2382 15.2812C24.3654 13.4158 24.7214 11.6892 24.0292 10.7366C22.8624 9.14901 19.2432 10.2406 15.9404 13.1776C14.9712 13.9912 14.1604 14.9042 13.5078 15.7972ZM7.98981 17.2658C9.59181 17.5634 11.3322 15.5194 11.8662 12.6616C12.4002 9.80381 11.5498 7.26361 9.94781 6.94601C8.34581 6.64841 6.60561 8.69241 6.07161 11.5502C5.53761 14.3882 6.38781 16.9482 7.98981 17.2658ZM30.259 13.8126C14.9318 24.1124 4.35101 18.893 4.35101 18.893C4.19261 22.4652 10.3038 33.4398 17.5818 33.5788C24.8796 33.7176 30.259 13.8126 30.259 13.8126ZM6.50661 11.61C7.00101 8.99041 8.50421 7.08521 9.86861 7.36301C11.2334 7.62101 11.9454 9.96301 11.4706 12.5824C10.9762 15.202 9.47321 17.1072 8.10861 16.8294C6.72421 16.5714 6.01221 14.2296 6.50661 11.61ZM9.41381 13.8326C10.027 13.9716 10.6994 13.2174 10.9368 12.1656C11.174 11.1138 10.8576 10.1416 10.2446 10.0224C9.82921 9.92321 9.39421 10.2406 9.07761 10.7764C9.35461 10.9154 9.49301 11.2726 9.35461 11.5704C9.23581 11.8482 8.95901 11.987 8.68221 11.9276C8.56341 12.8602 8.86021 13.6936 9.41381 13.8326Z" fill="#05BC52"/>
</svg>
