<svg width="20" height="20" viewBox="0 0 20 20" fill="none" xmlns="http://www.w3.org/2000/svg">
<path d="M16.7685 16.0704C16.9044 15.7286 16.8251 15.3388 16.5665 15.0773L13.5156 11.9922C14.1016 11.0938 14.4141 10.1172 14.4141 8.98438C14.4141 6.01562 11.9922 3.59375 8.98438 3.59375C6.01562 3.59375 3.51562 5.89844 3.51562 8.90625C3.51562 11.9141 5.89844 14.2969 8.90625 14.2969C10.1172 14.2969 11.0938 13.9062 11.9922 13.2812L15.0786 16.3677C15.344 16.6331 15.7313 16.736 16.0935 16.6373L16.1516 16.6215C16.4324 16.545 16.6609 16.3409 16.7685 16.0704ZM8.98438 12.3047C7.10938 12.3047 5.58594 10.7812 5.58594 8.90625C5.58594 6.99219 7.10938 5.50781 8.98438 5.50781C10.8984 5.50781 12.3828 6.99219 12.3828 8.90625C12.3828 10.7812 10.8984 12.3047 8.98438 12.3047Z" fill="#EAE5D9"/>
</svg>
