<svg width="16" height="16" viewBox="0 0 16 16" fill="none" xmlns="http://www.w3.org/2000/svg">
<path fill-rule="evenodd" clip-rule="evenodd" d="M7.9997 9.41425L11.535 12.9496C11.7226 13.1372 11.9771 13.2426 12.2424 13.2426C12.5077 13.2426 12.7621 13.1372 12.9497 12.9496C13.1373 12.762 13.2427 12.5076 13.2427 12.2423C13.2427 11.977 13.1373 11.7225 12.9497 11.5349L9.41303 7.99959L12.949 4.46425C13.0419 4.37136 13.1155 4.2611 13.1657 4.13975C13.216 4.0184 13.2418 3.88835 13.2418 3.75702C13.2417 3.62568 13.2159 3.49564 13.1656 3.37432C13.1153 3.25299 13.0416 3.14276 12.9487 3.04992C12.8558 2.95707 12.7455 2.88343 12.6242 2.8332C12.5028 2.78297 12.3728 2.75714 12.2415 2.75717C12.1101 2.7572 11.9801 2.7831 11.8588 2.83338C11.7374 2.88367 11.6272 2.95736 11.5344 3.05025L7.9997 6.58559L4.46436 3.05025C4.37216 2.9547 4.26185 2.87847 4.13987 2.826C4.01789 2.77353 3.88669 2.74589 3.75391 2.74467C3.62113 2.74345 3.48944 2.76869 3.36652 2.81892C3.2436 2.86914 3.13191 2.94334 3.03798 3.03719C2.94404 3.13104 2.86974 3.24265 2.8194 3.36553C2.76906 3.4884 2.74369 3.62006 2.74478 3.75284C2.74588 3.88562 2.7734 4.01686 2.82575 4.13888C2.8781 4.26091 2.95423 4.37129 3.0497 4.46359L6.58636 7.99959L3.05036 11.5356C2.9549 11.6279 2.87877 11.7383 2.82642 11.8603C2.77407 11.9823 2.74654 12.1135 2.74545 12.2463C2.74436 12.3791 2.76972 12.5108 2.82006 12.6336C2.8704 12.7565 2.94471 12.8681 3.03864 12.962C3.13258 13.0558 3.24427 13.13 3.36719 13.1803C3.49011 13.2305 3.6218 13.2557 3.75458 13.2545C3.88735 13.2533 4.01856 13.2256 4.14054 13.1732C4.26252 13.1207 4.37283 13.0445 4.46503 12.9489L7.9997 9.41425Z" fill="#EAE5D9"/>
</svg>
