<svg width="12" height="12" viewBox="0 0 12 12" fill="none" xmlns="http://www.w3.org/2000/svg">
<path d="M5.73187 9.81456C5.89551 9.7106 6.10449 9.7106 6.26813 9.81456L8.69102 11.3539C9.06674 11.5926 9.54362 11.2583 9.4473 10.8237L8.78663 7.8426C8.74789 7.66779 8.80558 7.48561 8.93788 7.36496L11.1597 5.33894C11.4812 5.04573 11.3007 4.51018 10.8672 4.47147L7.99098 4.2146C7.80381 4.19789 7.64182 4.07765 7.57164 3.90334L6.46382 1.15194C6.29565 0.734269 5.70435 0.73427 5.53619 1.15194L4.42836 3.90334C4.35818 4.07765 4.19619 4.19789 4.00902 4.2146L1.13278 4.47147C0.699346 4.51018 0.518808 5.04573 0.840348 5.33894L3.06212 7.36496C3.19442 7.48561 3.25211 7.66779 3.21337 7.8426L2.5527 10.8237C2.45639 11.2583 2.93326 11.5926 3.30898 11.3539L5.73187 9.81456Z" stroke="#182531"/>
</svg>
