<svg width="24" height="23" viewBox="0 0 24 23" fill="none" xmlns="http://www.w3.org/2000/svg">
<path d="M11.4637 18.6291C11.791 18.4212 12.209 18.4212 12.5363 18.6291L17.382 21.7078C18.1335 22.1852 19.0872 21.5165 18.8946 20.6473L17.5733 14.6852C17.4958 14.3356 17.6112 13.9712 17.8758 13.7299L22.3193 9.67788C22.9624 9.09146 22.6013 8.02035 21.7344 7.94294L15.982 7.42921C15.6076 7.39578 15.2836 7.15529 15.1433 6.80667L12.9276 1.30387C12.5913 0.468538 11.4087 0.46854 11.0724 1.30387L8.85672 6.80667C8.71636 7.1553 8.39238 7.39578 8.01805 7.42921L2.26555 7.94294C1.39869 8.02035 1.03762 9.09146 1.6807 9.67788L6.12423 13.7299C6.38884 13.9712 6.50422 14.3356 6.42674 14.6852L5.1054 20.6473C4.91277 21.5165 5.86652 22.1852 6.61796 21.7078L11.4637 18.6291Z" stroke="#182531"/>
</svg>
