<svg width="36" height="12" viewBox="0 0 36 12" fill="none" xmlns="http://www.w3.org/2000/svg">
<g clip-path="url(#clip0_2920_18824)">
<path d="M18.6163 3.93074C18.5958 5.51246 20.0594 6.39507 21.1619 6.91988C22.2947 7.45829 22.6752 7.80358 22.6707 8.28513C22.6623 9.02201 21.7671 9.34725 20.9295 9.35989C19.4682 9.382 18.6185 8.97449 17.943 8.66628L17.4165 11.0725C18.0943 11.3776 19.3492 11.6436 20.6505 11.6553C23.7053 11.6553 25.7038 10.1823 25.7146 7.89863C25.7266 5.00028 21.6105 4.83986 21.6386 3.54438C21.6483 3.15156 22.032 2.73237 22.8729 2.62579C23.2891 2.57195 24.438 2.53074 25.7406 3.11667L26.2519 0.788602C25.5514 0.53945 24.651 0.300874 23.5301 0.300874C20.6549 0.300874 18.6327 1.79386 18.6163 3.93074ZM31.1645 0.501404C30.6067 0.501404 30.1367 0.81923 29.9269 1.30696L25.5633 11.4843H28.6158L29.2233 9.84446H32.9534L33.3057 11.4843H35.9962L33.6484 0.501404H31.1645ZM31.5916 3.46829L32.4725 7.59248H30.0599L31.5916 3.46829ZM14.9153 0.501541L12.5092 11.4841H15.418L17.823 0.501266L14.9153 0.501541ZM10.6123 0.501541L7.58464 7.97678L6.35993 1.62066C6.21623 0.911118 5.64873 0.501404 5.01851 0.501404H0.0693207L0 0.820329C1.01605 1.03569 2.17046 1.38305 2.86985 1.75472C3.29787 1.98176 3.41992 2.18023 3.56053 2.71973L5.88017 11.4843H8.95404L13.6667 0.501404L10.6123 0.501541Z" fill="url(#paint0_linear_2920_18824)"/>
</g>
<defs>
<linearGradient id="paint0_linear_2920_18824" x1="1654.89" y1="34.4322" x2="1686.99" y2="-1131.72" gradientUnits="userSpaceOnUse">
<stop stop-color="#222357"/>
<stop offset="1" stop-color="#254AA5"/>
</linearGradient>
<clipPath id="clip0_2920_18824">
<rect width="36" height="11.4" fill="white" transform="translate(0 0.300781)"/>
</clipPath>
</defs>
</svg>
