<svg width="24" height="24" viewBox="0 0 24 24" fill="none" xmlns="http://www.w3.org/2000/svg">
<path d="M17 8H5M17 8C17.2652 8 17.5196 8.10536 17.7071 8.29289C17.8946 8.48043 18 8.73478 18 9V11.6M17 8L13 4M5 8C4.73478 8 4.48043 8.10536 4.29289 8.29289C4.10536 8.48043 4 8.73478 4 9V19C4 19.2652 4.10536 19.5196 4.29289 19.7071C4.48043 19.8946 4.73478 20 5 20H17C17.2652 20 17.5196 19.8946 17.7071 19.7071C17.8946 19.5196 18 19.2652 18 19V16.4M5 8L9 4L13 8M19 12H15C14.4696 12 13.9609 12.2107 13.5858 12.5858C13.2107 12.9609 13 13.4696 13 14C13 14.5304 13.2107 15.0391 13.5858 15.4142C13.9609 15.7893 14.4696 16 15 16H19C19.2652 16 19.5196 15.8946 19.7071 15.7071C19.8946 15.5196 20 15.2652 20 15V13C20 12.7348 19.8946 12.4804 19.7071 12.2929C19.5196 12.1054 19.2652 12 19 12Z" stroke="#EAE5D9" stroke-width="1.66667" stroke-linecap="round" stroke-linejoin="round"/>
</svg>
