<svg width="12" height="12" viewBox="0 0 12 12" fill="none" xmlns="http://www.w3.org/2000/svg">
<path fill-rule="evenodd" clip-rule="evenodd" d="M1.84249 1.14832C1.64976 0.95056 1.33728 0.95056 1.14455 1.14832C0.951817 1.34608 0.951817 1.66671 1.14455 1.86447L5.41997 6.25144L1.40873 10.3673C1.216 10.5651 1.216 10.8857 1.40873 11.0835C1.60147 11.2812 1.91395 11.2812 2.10668 11.0835L6.11792 6.96759L10.1292 11.0835C10.3219 11.2812 10.6344 11.2812 10.8271 11.0835C11.0198 10.8857 11.0198 10.5651 10.8271 10.3673L6.81586 6.25144L11.0913 1.86447C11.284 1.66671 11.284 1.34608 11.0913 1.14832C10.8986 0.95056 10.5861 0.95056 10.3933 1.14832L6.11792 5.53528L1.84249 1.14832Z" fill="#951717"/>
<path d="M1.14455 1.14832L0.786473 0.799348L1.14455 1.14832ZM1.84249 1.14832L2.20057 0.799348L2.20057 0.799348L1.84249 1.14832ZM1.14455 1.86447L1.50263 1.5155L1.14455 1.86447ZM5.41997 6.25144L5.77805 6.60041L6.11815 6.25144L5.77805 5.90247L5.41997 6.25144ZM1.40873 10.3673L1.76681 10.7163H1.76681L1.40873 10.3673ZM1.40873 11.0835L1.76681 10.7345L1.76681 10.7345L1.40873 11.0835ZM2.10668 11.0835L2.46475 11.4324H2.46475L2.10668 11.0835ZM6.11792 6.96759L6.476 6.61862L6.11792 6.2512L5.75984 6.61862L6.11792 6.96759ZM10.1292 11.0835L9.77108 11.4324L10.1292 11.0835ZM10.8271 11.0835L10.469 10.7345L10.469 10.7345L10.8271 11.0835ZM10.8271 10.3673L10.469 10.7163L10.8271 10.3673ZM6.81586 6.25144L6.45779 5.90247L6.11769 6.25144L6.45779 6.60041L6.81586 6.25144ZM11.0913 1.86447L11.4494 2.21344L11.0913 1.86447ZM11.0913 1.14832L11.4494 0.799348L11.0913 1.14832ZM10.3933 1.14832L10.7514 1.49729V1.49729L10.3933 1.14832ZM6.11792 5.53528L5.75984 5.88426L6.11792 6.25167L6.47599 5.88426L6.11792 5.53528ZM1.50263 1.49729C1.50326 1.49664 1.50233 1.4977 1.49989 1.49871C1.49778 1.49959 1.49559 1.5 1.49352 1.5C1.49145 1.5 1.48927 1.49959 1.48715 1.49871C1.48471 1.4977 1.48378 1.49664 1.48442 1.49729L2.20057 0.799348C1.81159 0.400217 1.17546 0.400217 0.786473 0.799348L1.50263 1.49729ZM1.50263 1.5155C1.50193 1.51479 1.50156 1.51423 1.50114 1.51318C1.50059 1.51179 1.5 1.50943 1.5 1.5064C1.5 1.50336 1.50059 1.501 1.50114 1.49961C1.50156 1.49856 1.50193 1.498 1.50263 1.49729L0.786473 0.799348C0.404509 1.19128 0.404509 1.82152 0.786473 2.21344L1.50263 1.5155ZM5.77805 5.90247L1.50263 1.5155L0.786473 2.21344L5.0619 6.60041L5.77805 5.90247ZM1.76681 10.7163L5.77805 6.60041L5.0619 5.90247L1.05066 10.0184L1.76681 10.7163ZM1.76681 10.7345C1.76612 10.7338 1.76574 10.7332 1.76533 10.7322C1.76478 10.7308 1.76419 10.7284 1.76419 10.7254C1.76419 10.7224 1.76478 10.72 1.76533 10.7186C1.76574 10.7176 1.76612 10.717 1.76681 10.7163L1.05066 10.0184C0.668695 10.4103 0.668694 11.0405 1.05066 11.4324L1.76681 10.7345ZM1.7486 10.7345C1.74797 10.7352 1.7489 10.7341 1.75134 10.7331C1.75345 10.7322 1.75564 10.7318 1.75771 10.7318C1.75977 10.7318 1.76196 10.7322 1.76408 10.7331C1.76652 10.7341 1.76745 10.7352 1.76681 10.7345L1.05066 11.4324C1.43964 11.8316 2.07577 11.8316 2.46475 11.4324L1.7486 10.7345ZM5.75984 6.61862L1.7486 10.7345L2.46475 11.4324L6.476 7.31656L5.75984 6.61862ZM10.4872 10.7345L6.476 6.61862L5.75984 7.31656L9.77108 11.4324L10.4872 10.7345ZM10.469 10.7345C10.4684 10.7352 10.4693 10.7341 10.4718 10.7331C10.4739 10.7322 10.4761 10.7318 10.4781 10.7318C10.4802 10.7318 10.4824 10.7322 10.4845 10.7331C10.4869 10.7341 10.4879 10.7352 10.4872 10.7345L9.77108 11.4324C10.1601 11.8316 10.7962 11.8316 11.1852 11.4324L10.469 10.7345ZM10.469 10.7163C10.4697 10.717 10.4701 10.7176 10.4705 10.7186C10.4711 10.72 10.4717 10.7224 10.4717 10.7254C10.4717 10.7284 10.4711 10.7308 10.4705 10.7322C10.4701 10.7332 10.4697 10.7338 10.469 10.7345L11.1852 11.4324C11.5671 11.0405 11.5671 10.4103 11.1852 10.0184L10.469 10.7163ZM6.45779 6.60041L10.469 10.7163L11.1852 10.0184L7.17394 5.90247L6.45779 6.60041ZM10.7332 1.5155L6.45779 5.90247L7.17394 6.60041L11.4494 2.21344L10.7332 1.5155ZM10.7332 1.49729C10.7339 1.498 10.7343 1.49856 10.7347 1.49961C10.7352 1.501 10.7358 1.50336 10.7358 1.5064C10.7358 1.50943 10.7352 1.51179 10.7347 1.51318C10.7343 1.51423 10.7339 1.51479 10.7332 1.5155L11.4494 2.21344C11.8313 1.82152 11.8313 1.19128 11.4494 0.799348L10.7332 1.49729ZM10.7514 1.49729C10.7521 1.49664 10.7511 1.4977 10.7487 1.49871C10.7466 1.49959 10.7444 1.5 10.7423 1.5C10.7402 1.5 10.7381 1.49959 10.7359 1.49871C10.7335 1.4977 10.7326 1.49664 10.7332 1.49729L11.4494 0.799348C11.0604 0.400217 10.4243 0.400217 10.0353 0.799348L10.7514 1.49729ZM6.47599 5.88426L10.7514 1.49729L10.0353 0.799348L5.75984 5.18631L6.47599 5.88426ZM1.48442 1.49729L5.75984 5.88426L6.47599 5.18631L2.20057 0.799348L1.48442 1.49729Z" fill="#951717"/>
</svg>
