<svg width="28" height="29" viewBox="0 0 28 29" fill="none" xmlns="http://www.w3.org/2000/svg">
<g clip-path="url(#clip0_3198_7315)">
<path d="M13.0194 12.9752L7.84433 18.0413C7.29959 18.5316 7.02721 19.2398 7.02721 19.9479C7.02721 20.6016 7.29959 21.3098 7.84433 21.8001C8.93383 22.8351 10.6225 22.8351 11.6031 21.8001L23.2607 10.3604C24.0778 9.48879 24.5681 8.34482 24.5681 7.20085C24.5681 6.00241 24.1867 4.85844 23.2607 3.98685C22.3891 3.16973 21.2451 2.67945 20.1011 2.67945C18.9027 2.67945 17.7587 3.11525 16.8871 3.98685L5.3385 15.4265C4.14005 16.625 3.43188 18.2047 3.43188 19.9479C3.43188 21.6367 4.14005 23.2164 5.3385 24.4149C6.53694 25.6133 7.89881 26.2125 9.642 26.2125C11.3307 26.2125 12.9105 25.5044 14.1089 24.3059L19.284 19.1308C19.6653 18.7495 20.2646 18.7495 20.7004 19.1308C21.0817 19.5121 21.0817 20.1114 20.7004 20.5472L15.4708 25.7223C14 27.1931 11.9299 28.1191 9.69647 28.1191C7.51749 28.1191 5.5564 27.302 3.92216 25.7223C2.45134 24.197 1.52527 22.1269 1.52527 19.9479C1.52527 17.7145 2.45134 15.7534 3.92216 14.1736L15.4708 2.5705C17.9766 0.119141 22.0622 0.119141 24.5681 2.5705C25.7665 3.76895 26.4747 5.40319 26.4747 7.0919C26.4747 8.78062 25.7665 10.3604 24.5681 11.6678L13.0194 23.3254C11.2218 25.123 8.33461 25.123 6.53694 23.3254C5.61087 22.3993 5.1206 21.3098 5.1206 20.0024C5.1206 18.7495 5.61087 17.66 6.53694 16.7339L11.6031 11.5588C11.9844 11.1775 12.5836 11.1775 13.0194 11.5588C13.4008 11.9402 13.4008 12.5394 13.0194 12.9752Z" fill="#182531"/>
</g>
<defs>
<clipPath id="clip0_3198_7315">
<rect width="28" height="28" fill="white" transform="matrix(1 0 0 -1 0 28.5)"/>
</clipPath>
</defs>
</svg>
