<svg width="25" height="26" viewBox="0 0 25 26" fill="none" xmlns="http://www.w3.org/2000/svg">
<path d="M6.25 3C6.25 2.33696 6.51339 1.70107 6.98223 1.23223C7.45107 0.763392 8.08696 0.5 8.75 0.5H16.25C16.913 0.5 17.5489 0.763392 18.0178 1.23223C18.4866 1.70107 18.75 2.33696 18.75 3V5.5H23.75C24.0815 5.5 24.3995 5.6317 24.6339 5.86612C24.8683 6.10054 25 6.41848 25 6.75C25 7.08152 24.8683 7.39946 24.6339 7.63388C24.3995 7.8683 24.0815 8 23.75 8H22.4137L21.33 23.1775C21.2851 23.8082 21.0029 24.3985 20.5401 24.8295C20.0774 25.2604 19.4686 25.5 18.8363 25.5H6.1625C5.53017 25.5 4.92133 25.2604 4.45861 24.8295C3.99588 24.3985 3.71364 23.8082 3.66875 23.1775L2.5875 8H1.25C0.918479 8 0.600537 7.8683 0.366116 7.63388C0.131696 7.39946 0 7.08152 0 6.75C0 6.41848 0.131696 6.10054 0.366116 5.86612C0.600537 5.6317 0.918479 5.5 1.25 5.5H6.25V3ZM8.75 5.5H16.25V3H8.75V5.5ZM5.0925 8L6.16375 23H18.8375L19.9088 8H5.0925ZM10 10.5C10.3315 10.5 10.6495 10.6317 10.8839 10.8661C11.1183 11.1005 11.25 11.4185 11.25 11.75V19.25C11.25 19.5815 11.1183 19.8995 10.8839 20.1339C10.6495 20.3683 10.3315 20.5 10 20.5C9.66848 20.5 9.35054 20.3683 9.11612 20.1339C8.8817 19.8995 8.75 19.5815 8.75 19.25V11.75C8.75 11.4185 8.8817 11.1005 9.11612 10.8661C9.35054 10.6317 9.66848 10.5 10 10.5ZM15 10.5C15.3315 10.5 15.6495 10.6317 15.8839 10.8661C16.1183 11.1005 16.25 11.4185 16.25 11.75V19.25C16.25 19.5815 16.1183 19.8995 15.8839 20.1339C15.6495 20.3683 15.3315 20.5 15 20.5C14.6685 20.5 14.3505 20.3683 14.1161 20.1339C13.8817 19.8995 13.75 19.5815 13.75 19.25V11.75C13.75 11.4185 13.8817 11.1005 14.1161 10.8661C14.3505 10.6317 14.6685 10.5 15 10.5Z" fill="#647484"/>
</svg>
