<svg width="28" height="28" viewBox="0 0 28 28" fill="none" xmlns="http://www.w3.org/2000/svg">
<path d="M10.1111 23.5789C9.64962 23.5789 9.19849 23.7086 8.81478 23.9515C8.43107 24.1944 8.132 24.5396 7.95539 24.9435C7.77879 25.3475 7.73258 25.7919 7.82261 26.2207C7.91264 26.6495 8.13487 27.0434 8.46119 27.3526C8.78752 27.6617 9.20328 27.8722 9.6559 27.9575C10.1085 28.0428 10.5777 27.999 11.004 27.8317C11.4304 27.6644 11.7948 27.3811 12.0512 27.0176C12.3076 26.6541 12.4444 26.2267 12.4444 25.7895C12.4444 25.2032 12.1986 24.641 11.761 24.2264C11.3234 23.8118 10.7299 23.5789 10.1111 23.5789ZM26.4444 19.1579H7.77778C7.36522 19.1579 6.96956 19.0026 6.67783 18.7263C6.38611 18.4499 6.22222 18.0751 6.22222 17.6842C6.22222 17.2934 6.38611 16.9185 6.67783 16.6422C6.96956 16.3658 7.36522 16.2105 7.77778 16.2105H20.9863C21.9997 16.2074 22.9846 15.8933 23.7936 15.3152C24.6027 14.7372 25.1922 13.9263 25.4738 13.0041L27.94 4.82617C28.0062 4.60684 28.0177 4.37596 27.9737 4.1517C27.9296 3.92744 27.8313 3.71592 27.6863 3.53379C27.5413 3.35167 27.3537 3.20391 27.1382 3.10215C26.9227 3.00039 26.6852 2.94741 26.4444 2.94737H7.37189C7.04987 2.08874 6.45624 1.34505 5.67191 0.81762C4.88757 0.290195 3.95065 0.00468742 2.98883 0H1.55556C1.143 0 0.747335 0.155263 0.455612 0.431632C0.163888 0.708001 0 1.08284 0 1.47368C0 1.86453 0.163888 2.23937 0.455612 2.51574C0.747335 2.79211 1.143 2.94737 1.55556 2.94737H2.98883C3.32651 2.94849 3.65473 3.0532 3.92433 3.24583C4.19394 3.43847 4.39042 3.70865 4.48437 4.01594L4.72629 4.81871L4.72666 4.82617L7.27876 13.2883C6.09119 13.4094 4.9978 13.9572 4.22375 14.819C3.44969 15.6807 3.05389 16.7909 3.11784 17.9208C3.18179 19.0508 3.70063 20.1145 4.56752 20.8929C5.43441 21.6713 6.58335 22.1052 7.77778 22.1053H26.4444C26.857 22.1053 27.2527 21.95 27.5444 21.6736C27.8361 21.3973 28 21.0224 28 20.6316C28 20.2407 27.8361 19.8659 27.5444 19.5895C27.2527 19.3132 26.857 19.1579 26.4444 19.1579ZM24.3823 5.89474L22.4826 12.1939C22.3888 12.5014 22.1922 12.7718 21.9225 12.9646C21.6527 13.1574 21.3242 13.2622 20.9863 13.2632H10.5068L10.1103 11.9483L8.28554 5.89474H24.3823ZM22.5556 23.5789C22.0941 23.5789 21.6429 23.7086 21.2592 23.9515C20.8755 24.1944 20.5764 24.5396 20.3998 24.9435C20.2232 25.3475 20.177 25.7919 20.2671 26.2207C20.3571 26.6495 20.5793 27.0434 20.9056 27.3526C21.232 27.6617 21.6477 27.8722 22.1003 27.9575C22.553 28.0428 23.0221 27.999 23.4485 27.8317C23.8748 27.6644 24.2393 27.3811 24.4957 27.0176C24.752 26.6541 24.8889 26.2267 24.8889 25.7895C24.8889 25.2032 24.6431 24.641 24.2055 24.2264C23.7679 23.8118 23.1744 23.5789 22.5556 23.5789Z" fill="#EAE5D9"/>
</svg>
