<svg width="29" height="37" viewBox="0 0 29 37" fill="none" xmlns="http://www.w3.org/2000/svg">
<path d="M24.875 -1.17719e-05L2.5 -0.000488281C2.00272 -0.000488281 1.35163 0.648837 1 1.00047C0.648369 1.3521 0.5 2.00319 0.5 2.50047V31.125C0.5 32.0901 1.4099 33 2.375 33H5.25V34.875C5.25 35.3723 5.44754 35.8492 5.79918 36.2008C6.15081 36.5524 6.5 36.4995 6.5 36.4995C6.5 36.4995 7.09919 36.5524 7.45082 36.2008C7.80246 35.8492 8 35.3723 8 34.875V33H23.5C24.9918 33 26.9451 33.0544 28 31.9995C29.0549 30.9446 29 30.4918 29 29L28.8525 4.87499C28.8525 3.38315 28.5549 2.0544 27.5 0.999512C26.5 0.101511 26.3668 -1.17719e-05 24.875 -1.17719e-05ZM20.5 31H2.375L2.5 1.99999H20L20.5 31ZM26.75 27.375C26.75 27.8723 26.8516 29.6479 26.5 29.9995C26.1484 30.3511 25.3723 31 24.875 31H22.5L22 1.99999H24.875C24.9775 1.99999 25.0856 2.02121 25.1969 2.05929C26.2117 2.40645 26.9103 3.50003 26.7747 4.564C26.7615 4.66706 26.75 4.76828 26.75 4.87499V27.375Z" fill="#182531"/>
</svg>
