<svg width="46" height="45" viewBox="0 0 46 45" fill="none" xmlns="http://www.w3.org/2000/svg">
<path d="M12.25 37.5V37H11.75H9.875C9.51033 37 9.16059 36.8551 8.90273 36.5973C8.64487 36.3394 8.5 35.9897 8.5 35.625V5.625C8.5 5.26033 8.64487 4.91059 8.90273 4.65273C9.16059 4.39487 9.51033 4.25 9.875 4.25H32.375C33.7342 4.25 35.0378 4.78995 35.9989 5.75108C36.96 6.7122 37.5 8.01577 37.5 9.375V31.875C37.5 33.2342 36.96 34.5378 35.9989 35.4989C35.0378 36.46 33.7342 37 32.375 37H15.5H15V37.5V39.375C15 39.7397 14.8551 40.0894 14.5973 40.3473C14.3394 40.6051 13.9897 40.75 13.625 40.75C13.2603 40.75 12.9106 40.6051 12.6527 40.3473C12.3949 40.0894 12.25 39.7397 12.25 39.375V37.5ZM26.75 34.25H27.25V33.75V7.5V7H26.75H11.75H11.25V7.5V33.75V34.25H11.75H26.75ZM30 33.75V34.25H30.5H32.375C33.0049 34.25 33.609 33.9998 34.0544 33.5544C34.4998 33.109 34.75 32.5049 34.75 31.875V9.375C34.75 8.74511 34.4998 8.14102 34.0544 7.69562C33.609 7.25022 33.0049 7 32.375 7H30.5H30V7.5V33.75Z" fill="#182531" stroke="#EAE5D9"/>
</svg>
