<svg width="30" height="39" viewBox="0 0 30 39" fill="none" xmlns="http://www.w3.org/2000/svg">
<path d="M4.25 34.5V34H3.75H1.875C1.51033 34 1.16059 33.8551 0.902729 33.5973C0.644866 33.3394 0.5 32.9897 0.5 32.625V2.625C0.5 2.26033 0.644866 1.91059 0.902728 1.65273C1.16059 1.39487 1.51033 1.25 1.875 1.25H24.375C25.7342 1.25 27.0378 1.78995 27.9989 2.75108C28.96 3.7122 29.5 5.01577 29.5 6.375V28.875C29.5 30.2342 28.96 31.5378 27.9989 32.4989C27.0378 33.46 25.7342 34 24.375 34H7.5H7V34.5V36.375C7 36.7397 6.85513 37.0894 6.59727 37.3473C6.33941 37.6051 5.98967 37.75 5.625 37.75C5.26033 37.75 4.91059 37.6051 4.65273 37.3473C4.39487 37.0894 4.25 36.7397 4.25 36.375V34.5ZM18.75 31.25H19.25V30.75V4.5V4H18.75H3.75H3.25V4.5V30.75V31.25H3.75H18.75ZM22 30.75V31.25H22.5H24.375C25.0049 31.25 25.609 30.9998 26.0544 30.5544C26.4998 30.109 26.75 29.5049 26.75 28.875V6.375C26.75 5.74511 26.4998 5.14102 26.0544 4.69562C25.609 4.25022 25.0049 4 24.375 4H22.5H22V4.5V30.75Z" fill="#182531" stroke="#EAE5D9"/>
</svg>
