<svg width="196" height="170" viewBox="0 0 196 170" fill="none" xmlns="http://www.w3.org/2000/svg">
<mask id="path-1-outside-1_405_295" maskUnits="userSpaceOnUse" x="-0.502319" y="0.538239" width="198" height="170" fill="black">
<rect fill="white" x="-0.502319" y="0.538239" width="198" height="170"/>
<path fill-rule="evenodd" clip-rule="evenodd" d="M67.2388 1.59991C66.898 1.62723 66.5643 1.71178 66.2516 1.84985L2.34033 29.6065C1.84725 29.8197 1.41932 30.1601 1.09992 30.5921C0.780524 31.024 0.581014 31.5325 0.52162 32.0664C0.462226 32.6004 0.545059 33.1407 0.761721 33.6323C0.978383 34.1239 1.32117 34.5492 1.75533 34.8656L29.1772 54.8042L1.75533 74.7368C1.31966 75.0529 0.975489 75.4793 0.757852 75.9716C0.540215 76.4639 0.456877 77.0047 0.516317 77.5397C0.575758 78.0747 0.775856 78.5845 1.09625 79.017C1.41665 79.4495 1.8459 79.7892 2.34033 80.0019L30.9749 92.4334V137.094C30.9721 137.33 30.9966 137.565 31.048 137.795C30.8874 138.499 30.9817 139.237 31.3143 139.877C31.6468 140.518 32.196 141.019 32.8639 141.293L96.7447 168.563C96.868 168.61 96.9942 168.648 97.1225 168.678C97.151 168.679 97.1794 168.679 97.2078 168.678C97.248 168.699 97.2886 168.72 97.3297 168.739C97.4081 168.763 97.4874 168.783 97.5674 168.8C97.5877 168.8 97.608 168.8 97.6283 168.8C97.6344 168.8 97.6405 168.8 97.6466 168.8C97.8452 168.82 98.0452 168.82 98.2438 168.8C98.332 168.784 98.4194 168.763 98.5058 168.739C98.522 168.739 98.5383 168.739 98.5545 168.739C98.5769 168.739 98.5992 168.739 98.6216 168.739C98.6995 168.722 98.7768 168.701 98.8531 168.678C98.9481 168.65 99.0417 168.618 99.1335 168.581C99.1745 168.561 99.2152 168.541 99.2553 168.52L163.142 141.25C163.815 140.979 164.369 140.476 164.704 139.833C165.039 139.189 165.133 138.447 164.97 137.74C165.017 137.514 165.037 137.283 165.031 137.052V92.1351L193.672 79.6976C194.164 79.4839 194.59 79.1442 194.909 78.7128C195.227 78.2814 195.426 77.7736 195.485 77.2407C195.545 76.7078 195.462 76.1687 195.247 75.6778C195.031 75.1869 194.69 74.7612 194.257 74.4445L165.775 53.7382C165.767 53.7178 165.759 53.6974 165.75 53.6772C165.742 53.6568 165.734 53.6364 165.726 53.6162L191.435 34.9266C191.87 34.6102 192.212 34.1849 192.429 33.6933C192.646 33.2017 192.729 32.6614 192.669 32.1274C192.61 31.5935 192.41 31.085 192.091 30.6531C191.771 30.2211 191.344 29.8807 190.85 29.6675L126.951 1.9168C126.577 1.75044 126.173 1.66151 125.763 1.65496C125.107 1.64791 124.465 1.85277 123.935 2.23964L96.6716 22.0629L69.2497 2.12992C68.6696 1.70343 67.9571 1.4965 67.2388 1.54524V1.59991ZM67.0864 8.15077L91.9733 26.2494L34.2106 50.9472L9.65283 33.0922L67.0864 8.15077ZM126.117 8.24784L183.544 33.1897L160.108 50.222L102.351 25.5241L126.117 8.24784ZM98.0061 30.3012L155.159 54.7432L98 79.1918L79.603 71.3306L55.9775 61.2334L40.8163 54.7432L98.0061 30.3012ZM161.893 58.5094L186.353 76.2907L128.926 101.233L104.124 83.2013L161.893 58.5094ZM34.3447 58.6068L53.5888 66.8332L77.2142 76.9312L92.0891 83.2987L67.0864 101.488L9.65893 76.5407L34.3447 58.6068ZM101.053 88.5028L126.763 107.186C127.19 107.498 127.691 107.692 128.217 107.751C128.743 107.81 129.275 107.73 129.761 107.521L158.944 94.8465V136.479L101.053 161.189V88.5028ZM94.9592 88.7408V161.189L37.0686 136.479V95.0964L66.2516 107.771C66.7374 107.98 67.2693 108.06 67.795 108.001C68.3207 107.942 68.8221 107.748 69.2497 107.436L94.9592 88.7408ZM125.27 122.494C125.259 122.494 125.249 122.494 125.239 122.494C124.864 122.514 124.497 122.602 124.154 122.756L107.945 129.685C107.577 129.842 107.243 130.071 106.964 130.357C106.684 130.644 106.463 130.983 106.315 131.355C106.166 131.726 106.092 132.124 106.096 132.524C106.101 132.924 106.185 133.32 106.342 133.688C106.5 134.056 106.729 134.39 107.015 134.669C107.302 134.949 107.64 135.17 108.012 135.319C108.384 135.468 108.781 135.541 109.182 135.537C109.582 135.532 109.978 135.448 110.346 135.29L126.543 128.362C127.218 128.099 127.777 127.603 128.119 126.965C128.462 126.327 128.566 125.587 128.412 124.879C128.259 124.171 127.859 123.541 127.283 123.101C126.707 122.662 125.993 122.443 125.27 122.482V122.494ZM141.473 126.65C141.461 126.65 141.448 126.65 141.436 126.65C141.062 126.67 140.694 126.758 140.352 126.912L124.154 133.834L107.945 140.763C107.56 140.908 107.208 141.13 106.911 141.415C106.613 141.7 106.377 142.042 106.216 142.42C106.054 142.799 105.972 143.207 105.972 143.619C105.973 144.031 106.057 144.437 106.219 144.816C106.382 145.194 106.619 145.536 106.917 145.82C107.215 146.104 107.567 146.325 107.953 146.469C108.339 146.613 108.75 146.677 109.161 146.657C109.572 146.638 109.975 146.536 110.346 146.357L126.543 139.44L142.746 132.512C143.417 132.245 143.972 131.749 144.311 131.111C144.65 130.474 144.752 129.738 144.598 129.032C144.444 128.327 144.045 127.699 143.472 127.26C142.898 126.822 142.188 126.601 141.467 126.638L141.473 126.65Z"/>
</mask>
<path fill-rule="evenodd" clip-rule="evenodd" d="M67.2388 1.59991C66.898 1.62723 66.5643 1.71178 66.2516 1.84985L2.34033 29.6065C1.84725 29.8197 1.41932 30.1601 1.09992 30.5921C0.780524 31.024 0.581014 31.5325 0.52162 32.0664C0.462226 32.6004 0.545059 33.1407 0.761721 33.6323C0.978383 34.1239 1.32117 34.5492 1.75533 34.8656L29.1772 54.8042L1.75533 74.7368C1.31966 75.0529 0.975489 75.4793 0.757852 75.9716C0.540215 76.4639 0.456877 77.0047 0.516317 77.5397C0.575758 78.0747 0.775856 78.5845 1.09625 79.017C1.41665 79.4495 1.8459 79.7892 2.34033 80.0019L30.9749 92.4334V137.094C30.9721 137.33 30.9966 137.565 31.048 137.795C30.8874 138.499 30.9817 139.237 31.3143 139.877C31.6468 140.518 32.196 141.019 32.8639 141.293L96.7447 168.563C96.868 168.61 96.9942 168.648 97.1225 168.678C97.151 168.679 97.1794 168.679 97.2078 168.678C97.248 168.699 97.2886 168.72 97.3297 168.739C97.4081 168.763 97.4874 168.783 97.5674 168.8C97.5877 168.8 97.608 168.8 97.6283 168.8C97.6344 168.8 97.6405 168.8 97.6466 168.8C97.8452 168.82 98.0452 168.82 98.2438 168.8C98.332 168.784 98.4194 168.763 98.5058 168.739C98.522 168.739 98.5383 168.739 98.5545 168.739C98.5769 168.739 98.5992 168.739 98.6216 168.739C98.6995 168.722 98.7768 168.701 98.8531 168.678C98.9481 168.65 99.0417 168.618 99.1335 168.581C99.1745 168.561 99.2152 168.541 99.2553 168.52L163.142 141.25C163.815 140.979 164.369 140.476 164.704 139.833C165.039 139.189 165.133 138.447 164.97 137.74C165.017 137.514 165.037 137.283 165.031 137.052V92.1351L193.672 79.6976C194.164 79.4839 194.59 79.1442 194.909 78.7128C195.227 78.2814 195.426 77.7736 195.485 77.2407C195.545 76.7078 195.462 76.1687 195.247 75.6778C195.031 75.1869 194.69 74.7612 194.257 74.4445L165.775 53.7382C165.767 53.7178 165.759 53.6974 165.75 53.6772C165.742 53.6568 165.734 53.6364 165.726 53.6162L191.435 34.9266C191.87 34.6102 192.212 34.1849 192.429 33.6933C192.646 33.2017 192.729 32.6614 192.669 32.1274C192.61 31.5935 192.41 31.085 192.091 30.6531C191.771 30.2211 191.344 29.8807 190.85 29.6675L126.951 1.9168C126.577 1.75044 126.173 1.66151 125.763 1.65496C125.107 1.64791 124.465 1.85277 123.935 2.23964L96.6716 22.0629L69.2497 2.12992C68.6696 1.70343 67.9571 1.4965 67.2388 1.54524V1.59991ZM67.0864 8.15077L91.9733 26.2494L34.2106 50.9472L9.65283 33.0922L67.0864 8.15077ZM126.117 8.24784L183.544 33.1897L160.108 50.222L102.351 25.5241L126.117 8.24784ZM98.0061 30.3012L155.159 54.7432L98 79.1918L79.603 71.3306L55.9775 61.2334L40.8163 54.7432L98.0061 30.3012ZM161.893 58.5094L186.353 76.2907L128.926 101.233L104.124 83.2013L161.893 58.5094ZM34.3447 58.6068L53.5888 66.8332L77.2142 76.9312L92.0891 83.2987L67.0864 101.488L9.65893 76.5407L34.3447 58.6068ZM101.053 88.5028L126.763 107.186C127.19 107.498 127.691 107.692 128.217 107.751C128.743 107.81 129.275 107.73 129.761 107.521L158.944 94.8465V136.479L101.053 161.189V88.5028ZM94.9592 88.7408V161.189L37.0686 136.479V95.0964L66.2516 107.771C66.7374 107.98 67.2693 108.06 67.795 108.001C68.3207 107.942 68.8221 107.748 69.2497 107.436L94.9592 88.7408ZM125.27 122.494C125.259 122.494 125.249 122.494 125.239 122.494C124.864 122.514 124.497 122.602 124.154 122.756L107.945 129.685C107.577 129.842 107.243 130.071 106.964 130.357C106.684 130.644 106.463 130.983 106.315 131.355C106.166 131.726 106.092 132.124 106.096 132.524C106.101 132.924 106.185 133.32 106.342 133.688C106.5 134.056 106.729 134.39 107.015 134.669C107.302 134.949 107.64 135.17 108.012 135.319C108.384 135.468 108.781 135.541 109.182 135.537C109.582 135.532 109.978 135.448 110.346 135.29L126.543 128.362C127.218 128.099 127.777 127.603 128.119 126.965C128.462 126.327 128.566 125.587 128.412 124.879C128.259 124.171 127.859 123.541 127.283 123.101C126.707 122.662 125.993 122.443 125.27 122.482V122.494ZM141.473 126.65C141.461 126.65 141.448 126.65 141.436 126.65C141.062 126.67 140.694 126.758 140.352 126.912L124.154 133.834L107.945 140.763C107.56 140.908 107.208 141.13 106.911 141.415C106.613 141.7 106.377 142.042 106.216 142.42C106.054 142.799 105.972 143.207 105.972 143.619C105.973 144.031 106.057 144.437 106.219 144.816C106.382 145.194 106.619 145.536 106.917 145.82C107.215 146.104 107.567 146.325 107.953 146.469C108.339 146.613 108.75 146.677 109.161 146.657C109.572 146.638 109.975 146.536 110.346 146.357L126.543 139.44L142.746 132.512C143.417 132.245 143.972 131.749 144.311 131.111C144.65 130.474 144.752 129.738 144.598 129.032C144.444 128.327 144.045 127.699 143.472 127.26C142.898 126.822 142.188 126.601 141.467 126.638L141.473 126.65Z" fill="#EAE5D9"/>
<path fill-rule="evenodd" clip-rule="evenodd" d="M67.2388 1.59991C66.898 1.62723 66.5643 1.71178 66.2516 1.84985L2.34033 29.6065C1.84725 29.8197 1.41932 30.1601 1.09992 30.5921C0.780524 31.024 0.581014 31.5325 0.52162 32.0664C0.462226 32.6004 0.545059 33.1407 0.761721 33.6323C0.978383 34.1239 1.32117 34.5492 1.75533 34.8656L29.1772 54.8042L1.75533 74.7368C1.31966 75.0529 0.975489 75.4793 0.757852 75.9716C0.540215 76.4639 0.456877 77.0047 0.516317 77.5397C0.575758 78.0747 0.775856 78.5845 1.09625 79.017C1.41665 79.4495 1.8459 79.7892 2.34033 80.0019L30.9749 92.4334V137.094C30.9721 137.33 30.9966 137.565 31.048 137.795C30.8874 138.499 30.9817 139.237 31.3143 139.877C31.6468 140.518 32.196 141.019 32.8639 141.293L96.7447 168.563C96.868 168.61 96.9942 168.648 97.1225 168.678C97.151 168.679 97.1794 168.679 97.2078 168.678C97.248 168.699 97.2886 168.72 97.3297 168.739C97.4081 168.763 97.4874 168.783 97.5674 168.8C97.5877 168.8 97.608 168.8 97.6283 168.8C97.6344 168.8 97.6405 168.8 97.6466 168.8C97.8452 168.82 98.0452 168.82 98.2438 168.8C98.332 168.784 98.4194 168.763 98.5058 168.739C98.522 168.739 98.5383 168.739 98.5545 168.739C98.5769 168.739 98.5992 168.739 98.6216 168.739C98.6995 168.722 98.7768 168.701 98.8531 168.678C98.9481 168.65 99.0417 168.618 99.1335 168.581C99.1745 168.561 99.2152 168.541 99.2553 168.52L163.142 141.25C163.815 140.979 164.369 140.476 164.704 139.833C165.039 139.189 165.133 138.447 164.97 137.74C165.017 137.514 165.037 137.283 165.031 137.052V92.1351L193.672 79.6976C194.164 79.4839 194.59 79.1442 194.909 78.7128C195.227 78.2814 195.426 77.7736 195.485 77.2407C195.545 76.7078 195.462 76.1687 195.247 75.6778C195.031 75.1869 194.69 74.7612 194.257 74.4445L165.775 53.7382C165.767 53.7178 165.759 53.6974 165.75 53.6772C165.742 53.6568 165.734 53.6364 165.726 53.6162L191.435 34.9266C191.87 34.6102 192.212 34.1849 192.429 33.6933C192.646 33.2017 192.729 32.6614 192.669 32.1274C192.61 31.5935 192.41 31.085 192.091 30.6531C191.771 30.2211 191.344 29.8807 190.85 29.6675L126.951 1.9168C126.577 1.75044 126.173 1.66151 125.763 1.65496C125.107 1.64791 124.465 1.85277 123.935 2.23964L96.6716 22.0629L69.2497 2.12992C68.6696 1.70343 67.9571 1.4965 67.2388 1.54524V1.59991ZM67.0864 8.15077L91.9733 26.2494L34.2106 50.9472L9.65283 33.0922L67.0864 8.15077ZM126.117 8.24784L183.544 33.1897L160.108 50.222L102.351 25.5241L126.117 8.24784ZM98.0061 30.3012L155.159 54.7432L98 79.1918L79.603 71.3306L55.9775 61.2334L40.8163 54.7432L98.0061 30.3012ZM161.893 58.5094L186.353 76.2907L128.926 101.233L104.124 83.2013L161.893 58.5094ZM34.3447 58.6068L53.5888 66.8332L77.2142 76.9312L92.0891 83.2987L67.0864 101.488L9.65893 76.5407L34.3447 58.6068ZM101.053 88.5028L126.763 107.186C127.19 107.498 127.691 107.692 128.217 107.751C128.743 107.81 129.275 107.73 129.761 107.521L158.944 94.8465V136.479L101.053 161.189V88.5028ZM94.9592 88.7408V161.189L37.0686 136.479V95.0964L66.2516 107.771C66.7374 107.98 67.2693 108.06 67.795 108.001C68.3207 107.942 68.8221 107.748 69.2497 107.436L94.9592 88.7408ZM125.27 122.494C125.259 122.494 125.249 122.494 125.239 122.494C124.864 122.514 124.497 122.602 124.154 122.756L107.945 129.685C107.577 129.842 107.243 130.071 106.964 130.357C106.684 130.644 106.463 130.983 106.315 131.355C106.166 131.726 106.092 132.124 106.096 132.524C106.101 132.924 106.185 133.32 106.342 133.688C106.5 134.056 106.729 134.39 107.015 134.669C107.302 134.949 107.64 135.17 108.012 135.319C108.384 135.468 108.781 135.541 109.182 135.537C109.582 135.532 109.978 135.448 110.346 135.29L126.543 128.362C127.218 128.099 127.777 127.603 128.119 126.965C128.462 126.327 128.566 125.587 128.412 124.879C128.259 124.171 127.859 123.541 127.283 123.101C126.707 122.662 125.993 122.443 125.27 122.482V122.494ZM141.473 126.65C141.461 126.65 141.448 126.65 141.436 126.65C141.062 126.67 140.694 126.758 140.352 126.912L124.154 133.834L107.945 140.763C107.56 140.908 107.208 141.13 106.911 141.415C106.613 141.7 106.377 142.042 106.216 142.42C106.054 142.799 105.972 143.207 105.972 143.619C105.973 144.031 106.057 144.437 106.219 144.816C106.382 145.194 106.619 145.536 106.917 145.82C107.215 146.104 107.567 146.325 107.953 146.469C108.339 146.613 108.75 146.677 109.161 146.657C109.572 146.638 109.975 146.536 110.346 146.357L126.543 139.44L142.746 132.512C143.417 132.245 143.972 131.749 144.311 131.111C144.65 130.474 144.752 129.738 144.598 129.032C144.444 128.327 144.045 127.699 143.472 127.26C142.898 126.822 142.188 126.601 141.467 126.638L141.473 126.65Z" stroke="#EAE5D9" stroke-width="2" mask="url(#path-1-outside-1_405_295)"/>
</svg>
