<svg width="196" height="195" viewBox="0 0 196 195" fill="none" xmlns="http://www.w3.org/2000/svg">
<g clip-path="url(#clip0_671_362)">
<mask id="path-1-outside-1_671_362" maskUnits="userSpaceOnUse" x="-0.502319" y="14.5383" width="198" height="170" fill="black">
<rect fill="white" x="-0.502319" y="14.5383" width="198" height="170"/>
<path fill-rule="evenodd" clip-rule="evenodd" d="M67.2388 15.5999C66.898 15.6273 66.5643 15.7118 66.2516 15.8499L2.34033 43.6065C1.84725 43.8197 1.41932 44.1602 1.09992 44.5921C0.780524 45.0241 0.581014 45.5325 0.52162 46.0665C0.462226 46.6004 0.545059 47.1407 0.761721 47.6323C0.978383 48.1239 1.32117 48.5492 1.75533 48.8656L29.1772 68.8042L1.75533 88.7368C1.31966 89.0529 0.975489 89.4794 0.757852 89.9717C0.540215 90.464 0.456877 91.0048 0.516317 91.5397C0.575758 92.0747 0.775856 92.5845 1.09625 93.017C1.41665 93.4496 1.8459 93.7892 2.34033 94.0019L30.9749 106.433V151.094C30.9721 151.33 30.9966 151.565 31.048 151.795C30.8874 152.499 30.9817 153.237 31.3143 153.877C31.6468 154.518 32.196 155.019 32.8639 155.293L96.7447 182.563C96.868 182.61 96.9942 182.648 97.1225 182.678C97.151 182.679 97.1794 182.679 97.2078 182.678C97.248 182.699 97.2886 182.72 97.3297 182.739C97.4081 182.763 97.4874 182.783 97.5674 182.8C97.5877 182.8 97.608 182.8 97.6283 182.8C97.6344 182.8 97.6405 182.8 97.6466 182.8C97.8452 182.82 98.0452 182.82 98.2438 182.8C98.332 182.784 98.4194 182.763 98.5058 182.739C98.522 182.739 98.5383 182.739 98.5545 182.739C98.5769 182.739 98.5992 182.739 98.6216 182.739C98.6995 182.722 98.7768 182.702 98.8531 182.678C98.9481 182.65 99.0417 182.618 99.1335 182.581C99.1745 182.561 99.2152 182.541 99.2553 182.52L163.142 155.25C163.815 154.979 164.369 154.476 164.704 153.833C165.039 153.189 165.133 152.447 164.97 151.74C165.017 151.514 165.037 151.283 165.031 151.052V106.135L193.672 93.6977C194.164 93.4839 194.59 93.1442 194.909 92.7128C195.227 92.2814 195.426 91.7736 195.485 91.2407C195.545 90.7078 195.462 90.1687 195.247 89.6778C195.031 89.1869 194.69 88.7612 194.257 88.4445L165.775 67.7382C165.767 67.7178 165.759 67.6975 165.75 67.6772C165.742 67.6568 165.734 67.6365 165.726 67.6163L191.435 48.9266C191.87 48.6102 192.212 48.1849 192.429 47.6933C192.646 47.2017 192.729 46.6614 192.669 46.1275C192.61 45.5935 192.41 45.0851 192.091 44.6531C191.771 44.2212 191.344 43.8807 190.85 43.6675L126.951 15.9168C126.577 15.7505 126.173 15.6615 125.763 15.655C125.107 15.6479 124.465 15.8528 123.935 16.2397L96.6716 36.0629L69.2497 16.1299C68.6696 15.7035 67.9571 15.4965 67.2388 15.5453V15.5999ZM67.0864 22.1508L91.9733 40.2494L34.2106 64.9473L9.65283 47.0923L67.0864 22.1508ZM126.117 22.2479L183.544 47.1897L160.108 64.222L102.351 39.5242L126.117 22.2479ZM98.0061 44.3013L155.159 68.7432L98 93.1918L79.603 85.3307L55.9775 75.2334L40.8163 68.7432L98.0061 44.3013ZM161.893 72.5094L186.353 90.2908L128.926 115.233L104.124 97.2013L161.893 72.5094ZM34.3447 72.6068L53.5888 80.8333L77.2142 90.9312L92.0891 97.2987L67.0864 115.488L9.65893 90.5407L34.3447 72.6068ZM101.053 102.503L126.763 121.187C127.19 121.498 127.691 121.692 128.217 121.751C128.743 121.81 129.275 121.73 129.761 121.521L158.944 108.847V150.479L101.053 175.189V102.503ZM94.9592 102.741V175.189L37.0686 150.479V109.096L66.2516 121.771C66.7374 121.98 67.2693 122.06 67.795 122.001C68.3207 121.942 68.8221 121.748 69.2497 121.436L94.9592 102.741ZM125.27 136.494C125.259 136.494 125.249 136.494 125.239 136.494C124.864 136.514 124.497 136.602 124.154 136.756L107.945 143.685C107.577 143.842 107.243 144.071 106.964 144.357C106.684 144.644 106.463 144.983 106.315 145.355C106.166 145.726 106.092 146.124 106.096 146.524C106.101 146.924 106.185 147.32 106.342 147.688C106.5 148.056 106.729 148.39 107.015 148.669C107.302 148.949 107.64 149.17 108.012 149.319C108.384 149.468 108.781 149.541 109.182 149.537C109.582 149.532 109.978 149.448 110.346 149.29L126.543 142.362C127.218 142.099 127.777 141.603 128.119 140.965C128.462 140.327 128.566 139.587 128.412 138.879C128.259 138.171 127.859 137.541 127.283 137.102C126.707 136.662 125.993 136.443 125.27 136.482V136.494ZM141.473 140.65C141.461 140.65 141.448 140.65 141.436 140.65C141.062 140.67 140.694 140.758 140.352 140.912L124.154 147.834L107.945 154.763C107.56 154.908 107.208 155.13 106.911 155.415C106.613 155.7 106.377 156.042 106.216 156.42C106.054 156.799 105.972 157.207 105.972 157.619C105.973 158.031 106.057 158.437 106.219 158.816C106.382 159.194 106.619 159.536 106.917 159.82C107.215 160.104 107.567 160.325 107.953 160.469C108.339 160.613 108.75 160.677 109.161 160.658C109.572 160.638 109.975 160.536 110.346 160.357L126.543 153.441L142.746 146.512C143.417 146.245 143.972 145.749 144.311 145.111C144.65 144.474 144.752 143.738 144.598 143.032C144.444 142.327 144.045 141.699 143.472 141.26C142.898 140.822 142.188 140.601 141.467 140.638L141.473 140.65Z"/>
</mask>
<path fill-rule="evenodd" clip-rule="evenodd" d="M67.2388 15.5999C66.898 15.6273 66.5643 15.7118 66.2516 15.8499L2.34033 43.6065C1.84725 43.8197 1.41932 44.1602 1.09992 44.5921C0.780524 45.0241 0.581014 45.5325 0.52162 46.0665C0.462226 46.6004 0.545059 47.1407 0.761721 47.6323C0.978383 48.1239 1.32117 48.5492 1.75533 48.8656L29.1772 68.8042L1.75533 88.7368C1.31966 89.0529 0.975489 89.4794 0.757852 89.9717C0.540215 90.464 0.456877 91.0048 0.516317 91.5397C0.575758 92.0747 0.775856 92.5845 1.09625 93.017C1.41665 93.4496 1.8459 93.7892 2.34033 94.0019L30.9749 106.433V151.094C30.9721 151.33 30.9966 151.565 31.048 151.795C30.8874 152.499 30.9817 153.237 31.3143 153.877C31.6468 154.518 32.196 155.019 32.8639 155.293L96.7447 182.563C96.868 182.61 96.9942 182.648 97.1225 182.678C97.151 182.679 97.1794 182.679 97.2078 182.678C97.248 182.699 97.2886 182.72 97.3297 182.739C97.4081 182.763 97.4874 182.783 97.5674 182.8C97.5877 182.8 97.608 182.8 97.6283 182.8C97.6344 182.8 97.6405 182.8 97.6466 182.8C97.8452 182.82 98.0452 182.82 98.2438 182.8C98.332 182.784 98.4194 182.763 98.5058 182.739C98.522 182.739 98.5383 182.739 98.5545 182.739C98.5769 182.739 98.5992 182.739 98.6216 182.739C98.6995 182.722 98.7768 182.702 98.8531 182.678C98.9481 182.65 99.0417 182.618 99.1335 182.581C99.1745 182.561 99.2152 182.541 99.2553 182.52L163.142 155.25C163.815 154.979 164.369 154.476 164.704 153.833C165.039 153.189 165.133 152.447 164.97 151.74C165.017 151.514 165.037 151.283 165.031 151.052V106.135L193.672 93.6977C194.164 93.4839 194.59 93.1442 194.909 92.7128C195.227 92.2814 195.426 91.7736 195.485 91.2407C195.545 90.7078 195.462 90.1687 195.247 89.6778C195.031 89.1869 194.69 88.7612 194.257 88.4445L165.775 67.7382C165.767 67.7178 165.759 67.6975 165.75 67.6772C165.742 67.6568 165.734 67.6365 165.726 67.6163L191.435 48.9266C191.87 48.6102 192.212 48.1849 192.429 47.6933C192.646 47.2017 192.729 46.6614 192.669 46.1275C192.61 45.5935 192.41 45.0851 192.091 44.6531C191.771 44.2212 191.344 43.8807 190.85 43.6675L126.951 15.9168C126.577 15.7505 126.173 15.6615 125.763 15.655C125.107 15.6479 124.465 15.8528 123.935 16.2397L96.6716 36.0629L69.2497 16.1299C68.6696 15.7035 67.9571 15.4965 67.2388 15.5453V15.5999ZM67.0864 22.1508L91.9733 40.2494L34.2106 64.9473L9.65283 47.0923L67.0864 22.1508ZM126.117 22.2479L183.544 47.1897L160.108 64.222L102.351 39.5242L126.117 22.2479ZM98.0061 44.3013L155.159 68.7432L98 93.1918L79.603 85.3307L55.9775 75.2334L40.8163 68.7432L98.0061 44.3013ZM161.893 72.5094L186.353 90.2908L128.926 115.233L104.124 97.2013L161.893 72.5094ZM34.3447 72.6068L53.5888 80.8333L77.2142 90.9312L92.0891 97.2987L67.0864 115.488L9.65893 90.5407L34.3447 72.6068ZM101.053 102.503L126.763 121.187C127.19 121.498 127.691 121.692 128.217 121.751C128.743 121.81 129.275 121.73 129.761 121.521L158.944 108.847V150.479L101.053 175.189V102.503ZM94.9592 102.741V175.189L37.0686 150.479V109.096L66.2516 121.771C66.7374 121.98 67.2693 122.06 67.795 122.001C68.3207 121.942 68.8221 121.748 69.2497 121.436L94.9592 102.741ZM125.27 136.494C125.259 136.494 125.249 136.494 125.239 136.494C124.864 136.514 124.497 136.602 124.154 136.756L107.945 143.685C107.577 143.842 107.243 144.071 106.964 144.357C106.684 144.644 106.463 144.983 106.315 145.355C106.166 145.726 106.092 146.124 106.096 146.524C106.101 146.924 106.185 147.32 106.342 147.688C106.5 148.056 106.729 148.39 107.015 148.669C107.302 148.949 107.64 149.17 108.012 149.319C108.384 149.468 108.781 149.541 109.182 149.537C109.582 149.532 109.978 149.448 110.346 149.29L126.543 142.362C127.218 142.099 127.777 141.603 128.119 140.965C128.462 140.327 128.566 139.587 128.412 138.879C128.259 138.171 127.859 137.541 127.283 137.102C126.707 136.662 125.993 136.443 125.27 136.482V136.494ZM141.473 140.65C141.461 140.65 141.448 140.65 141.436 140.65C141.062 140.67 140.694 140.758 140.352 140.912L124.154 147.834L107.945 154.763C107.56 154.908 107.208 155.13 106.911 155.415C106.613 155.7 106.377 156.042 106.216 156.42C106.054 156.799 105.972 157.207 105.972 157.619C105.973 158.031 106.057 158.437 106.219 158.816C106.382 159.194 106.619 159.536 106.917 159.82C107.215 160.104 107.567 160.325 107.953 160.469C108.339 160.613 108.75 160.677 109.161 160.658C109.572 160.638 109.975 160.536 110.346 160.357L126.543 153.441L142.746 146.512C143.417 146.245 143.972 145.749 144.311 145.111C144.65 144.474 144.752 143.738 144.598 143.032C144.444 142.327 144.045 141.699 143.472 141.26C142.898 140.822 142.188 140.601 141.467 140.638L141.473 140.65Z" fill="#EAE5D9"/>
<path fill-rule="evenodd" clip-rule="evenodd" d="M67.2388 15.5999C66.898 15.6273 66.5643 15.7118 66.2516 15.8499L2.34033 43.6065C1.84725 43.8197 1.41932 44.1602 1.09992 44.5921C0.780524 45.0241 0.581014 45.5325 0.52162 46.0665C0.462226 46.6004 0.545059 47.1407 0.761721 47.6323C0.978383 48.1239 1.32117 48.5492 1.75533 48.8656L29.1772 68.8042L1.75533 88.7368C1.31966 89.0529 0.975489 89.4794 0.757852 89.9717C0.540215 90.464 0.456877 91.0048 0.516317 91.5397C0.575758 92.0747 0.775856 92.5845 1.09625 93.017C1.41665 93.4496 1.8459 93.7892 2.34033 94.0019L30.9749 106.433V151.094C30.9721 151.33 30.9966 151.565 31.048 151.795C30.8874 152.499 30.9817 153.237 31.3143 153.877C31.6468 154.518 32.196 155.019 32.8639 155.293L96.7447 182.563C96.868 182.61 96.9942 182.648 97.1225 182.678C97.151 182.679 97.1794 182.679 97.2078 182.678C97.248 182.699 97.2886 182.72 97.3297 182.739C97.4081 182.763 97.4874 182.783 97.5674 182.8C97.5877 182.8 97.608 182.8 97.6283 182.8C97.6344 182.8 97.6405 182.8 97.6466 182.8C97.8452 182.82 98.0452 182.82 98.2438 182.8C98.332 182.784 98.4194 182.763 98.5058 182.739C98.522 182.739 98.5383 182.739 98.5545 182.739C98.5769 182.739 98.5992 182.739 98.6216 182.739C98.6995 182.722 98.7768 182.702 98.8531 182.678C98.9481 182.65 99.0417 182.618 99.1335 182.581C99.1745 182.561 99.2152 182.541 99.2553 182.52L163.142 155.25C163.815 154.979 164.369 154.476 164.704 153.833C165.039 153.189 165.133 152.447 164.97 151.74C165.017 151.514 165.037 151.283 165.031 151.052V106.135L193.672 93.6977C194.164 93.4839 194.59 93.1442 194.909 92.7128C195.227 92.2814 195.426 91.7736 195.485 91.2407C195.545 90.7078 195.462 90.1687 195.247 89.6778C195.031 89.1869 194.69 88.7612 194.257 88.4445L165.775 67.7382C165.767 67.7178 165.759 67.6975 165.75 67.6772C165.742 67.6568 165.734 67.6365 165.726 67.6163L191.435 48.9266C191.87 48.6102 192.212 48.1849 192.429 47.6933C192.646 47.2017 192.729 46.6614 192.669 46.1275C192.61 45.5935 192.41 45.0851 192.091 44.6531C191.771 44.2212 191.344 43.8807 190.85 43.6675L126.951 15.9168C126.577 15.7505 126.173 15.6615 125.763 15.655C125.107 15.6479 124.465 15.8528 123.935 16.2397L96.6716 36.0629L69.2497 16.1299C68.6696 15.7035 67.9571 15.4965 67.2388 15.5453V15.5999ZM67.0864 22.1508L91.9733 40.2494L34.2106 64.9473L9.65283 47.0923L67.0864 22.1508ZM126.117 22.2479L183.544 47.1897L160.108 64.222L102.351 39.5242L126.117 22.2479ZM98.0061 44.3013L155.159 68.7432L98 93.1918L79.603 85.3307L55.9775 75.2334L40.8163 68.7432L98.0061 44.3013ZM161.893 72.5094L186.353 90.2908L128.926 115.233L104.124 97.2013L161.893 72.5094ZM34.3447 72.6068L53.5888 80.8333L77.2142 90.9312L92.0891 97.2987L67.0864 115.488L9.65893 90.5407L34.3447 72.6068ZM101.053 102.503L126.763 121.187C127.19 121.498 127.691 121.692 128.217 121.751C128.743 121.81 129.275 121.73 129.761 121.521L158.944 108.847V150.479L101.053 175.189V102.503ZM94.9592 102.741V175.189L37.0686 150.479V109.096L66.2516 121.771C66.7374 121.98 67.2693 122.06 67.795 122.001C68.3207 121.942 68.8221 121.748 69.2497 121.436L94.9592 102.741ZM125.27 136.494C125.259 136.494 125.249 136.494 125.239 136.494C124.864 136.514 124.497 136.602 124.154 136.756L107.945 143.685C107.577 143.842 107.243 144.071 106.964 144.357C106.684 144.644 106.463 144.983 106.315 145.355C106.166 145.726 106.092 146.124 106.096 146.524C106.101 146.924 106.185 147.32 106.342 147.688C106.5 148.056 106.729 148.39 107.015 148.669C107.302 148.949 107.64 149.17 108.012 149.319C108.384 149.468 108.781 149.541 109.182 149.537C109.582 149.532 109.978 149.448 110.346 149.29L126.543 142.362C127.218 142.099 127.777 141.603 128.119 140.965C128.462 140.327 128.566 139.587 128.412 138.879C128.259 138.171 127.859 137.541 127.283 137.102C126.707 136.662 125.993 136.443 125.27 136.482V136.494ZM141.473 140.65C141.461 140.65 141.448 140.65 141.436 140.65C141.062 140.67 140.694 140.758 140.352 140.912L124.154 147.834L107.945 154.763C107.56 154.908 107.208 155.13 106.911 155.415C106.613 155.7 106.377 156.042 106.216 156.42C106.054 156.799 105.972 157.207 105.972 157.619C105.973 158.031 106.057 158.437 106.219 158.816C106.382 159.194 106.619 159.536 106.917 159.82C107.215 160.104 107.567 160.325 107.953 160.469C108.339 160.613 108.75 160.677 109.161 160.658C109.572 160.638 109.975 160.536 110.346 160.357L126.543 153.441L142.746 146.512C143.417 146.245 143.972 145.749 144.311 145.111C144.65 144.474 144.752 143.738 144.598 143.032C144.444 142.327 144.045 141.699 143.472 141.26C142.898 140.822 142.188 140.601 141.467 140.638L141.473 140.65Z" stroke="#EAE5D9" stroke-width="2" mask="url(#path-1-outside-1_671_362)"/>
</g>
<defs>
<clipPath id="clip0_671_362">
<rect width="195" height="195" fill="white" transform="translate(0.5)"/>
</clipPath>
</defs>
</svg>
