<svg width="194" height="91" viewBox="0 0 194 91" fill="none" xmlns="http://www.w3.org/2000/svg">
<path d="M192.076 31.2901C192.07 31.2296 192.059 31.1422 192.033 31.0412V30.9529L191.962 30.7738L181.128 3.74465L181.124 3.73365L181.119 3.72276C180.658 2.64691 179.623 1.81668 178.304 1.81668H151.221H118.721H86.2208C86.2182 1.81668 86.2151 1.81666 86.2115 1.81663C86.1527 1.81614 85.963 1.81459 85.7423 1.90374C85.7168 1.90851 85.6943 1.91302 85.6778 1.91631L85.6726 1.91735C85.6551 1.92087 85.6428 1.92329 85.6338 1.92502H85.5169L85.3629 1.97633C85.3528 1.9797 85.3405 1.98333 85.3075 1.99218L85.2996 1.99427C85.2713 2.00182 85.2121 2.01759 85.1531 2.03727C85.0777 2.0624 84.9943 2.09608 84.9078 2.14358C84.7961 2.1789 84.672 2.23627 84.5504 2.32938L42.0051 28.9H26.5833C12.9784 28.9 1.85834 39.9629 1.85834 53.625V59.0417V64.4583V69.875V69.8988L1.85947 69.9226C1.93609 71.5316 3.18571 72.9333 4.91667 72.9333H18.4524C19.9179 82.097 27.7761 89.1833 37.4167 89.1833C47.0573 89.1833 54.9154 82.097 56.3809 72.9333H75.3333H137.619C139.085 82.097 146.943 89.1833 156.583 89.1833C166.224 89.1833 174.082 82.097 175.548 72.9333H189.083C190.773 72.9333 192.142 71.5648 192.142 69.875V32.0125V31.9583C192.142 31.8557 192.13 31.7666 192.121 31.7126C192.118 31.6965 192.116 31.6806 192.113 31.6653C192.106 31.6274 192.099 31.5937 192.095 31.5726C192.092 31.5548 192.089 31.5424 192.087 31.5334C192.087 31.4745 192.085 31.3849 192.076 31.2901ZM37.4167 83.1208C30.1148 83.1208 24.1708 77.1769 24.1708 69.875C24.1708 62.5781 30.1098 56.6833 37.4167 56.6833C44.7186 56.6833 50.6625 62.6273 50.6625 69.9292C50.6625 77.2261 44.7235 83.1208 37.4167 83.1208ZM156.583 83.1208C149.281 83.1208 143.337 77.1769 143.337 69.875C143.337 62.5731 149.281 56.6292 156.583 56.6292C163.885 56.6292 169.829 62.5731 169.829 69.875C169.829 77.1769 163.885 83.1208 156.583 83.1208ZM154.225 7.93335H176.219L184.627 28.9542H154.225V7.93335ZM121.725 7.93335H148.162V28.9542H121.725V7.93335ZM89.225 7.93335H115.662V28.9542H89.225V7.93335ZM53.416 28.9542L83.1625 10.3626V28.9542H53.416ZM7.975 64.4583V59.0417V53.625C7.975 43.344 16.3565 34.9625 26.6375 34.9625H42.7792H42.7795H42.7798H42.7801H42.7804H42.7807H42.781H42.7814H42.7817H42.782H42.7823H42.7826H42.7829H42.7832H42.7835H42.7838H42.7841H42.7844H42.7847H42.785H42.7853H42.7856H42.7859H42.7861H42.7864H42.7867H42.787H42.7873H42.7876H42.7879H42.7882H42.7884H42.7887H42.789H42.7893H42.7896H42.7898H42.7901H42.7904H42.7906H42.7909H42.7912H42.7915H42.7917H42.792H42.7923H42.7925H42.7928H42.7931H42.7933H42.7936H42.7938H42.7941H42.7944H42.7946H42.7949H42.7951H42.7954H42.7956H42.7959H42.7962H42.7964H42.7967H42.7969H42.7972H42.7974H42.7976H42.7979H42.7981H42.7984H42.7986H42.7989H42.7991H42.7993H42.7996H42.7998H42.8001H42.8003H42.8005H42.8008H42.801H42.8012H42.8015H42.8017H42.8019H42.8022H42.8024H42.8026H42.8028H42.8031H42.8033H42.8035H42.8037H42.804H42.8042H42.8044H42.8046H42.8049H42.8051H42.8053H42.8055H42.8057H42.8059H42.8062H42.8064H42.8066H42.8068H42.807H42.8072H42.8074H42.8077H42.8079H42.8081H42.8083H42.8085H42.8087H42.8089H42.8091H42.8093H42.8095H42.8097H42.8099H42.8101H42.8103H42.8105H42.8107H42.8109H42.8111H42.8113H42.8115H42.8117H42.8119H42.8121H42.8123H42.8125H42.8127H42.8129H42.8131H42.8133H42.8135H42.8137H42.8139H42.814H42.8142H42.8144H42.8146H42.8148H42.815H42.8152H42.8154H42.8156H42.8157H42.8159H42.8161H42.8163H42.8165H42.8167H42.8168H42.817H42.8172H42.8174H42.8176H42.8177H42.8179H42.8181H42.8183H42.8185H42.8186H42.8188H42.819H42.8192H42.8194H42.8195H42.8197H42.8199H42.8201H42.8202H42.8204H42.8206H42.8207H42.8209H42.8211H42.8213H42.8214H42.8216H42.8218H42.8219H42.8221H42.8223H42.8225H42.8226H42.8228H42.823H42.8231H42.8233H42.8235H42.8236H42.8238H42.824H42.8241H42.8243H42.8245H42.8246H42.8248H42.825H42.8251H42.8253H42.8255H42.8256H42.8258H42.826H42.8261H42.8263H42.8264H42.8266H42.8268H42.8269H42.8271H42.8273H42.8274H42.8276H42.8277H42.8279H42.8281H42.8282H42.8284H42.8286H42.8287H42.8289H42.829H42.8292H42.8294H42.8295H42.8297H42.8298H42.83H42.8302H42.8303H42.8305H42.8306H42.8308H42.831H42.8311H42.8313H42.8314H42.8316H42.8317H42.8319H42.8321H42.8322H42.8324H42.8325H42.8327H42.8329H42.833H42.8332H42.8333H42.8335H42.8337H42.8338H42.834H42.8341H42.8343H42.8344H42.8346H42.8348H42.8349H42.8351H42.8352H42.8354H42.8356H42.8357H42.8359H42.836H42.8362H42.8364H42.8365H42.8367H42.8368H42.837H42.8372H42.8373H42.8375H42.8376H42.8378H42.838H42.8381H42.8383H42.8384H42.8386H42.8388H42.8389H42.8391H42.8392H42.8394H42.8396H42.8397H42.8399H42.8401H42.8402H42.8404H42.8405H42.8407H42.8409H42.841H42.8412H42.8414H42.8415H42.8417H42.8419H42.842H42.8422H42.8424H42.8425H42.8427H42.8429H42.843H42.8432H42.8434H42.8435H42.8437H42.8439H42.844H42.8442H42.8444H42.8446H42.8447H42.8449H42.8451H42.8452H42.8454H42.8456H42.8458H42.8459H42.8461H42.8463H42.8464H42.8466H42.8468H42.847H42.8471H42.8473H42.8475H42.8477H42.8479H42.848H42.8482H42.8484H42.8486H42.8487H42.8489H42.8491H42.8493H42.8495H42.8496H42.8498H42.85H42.8502H42.8504H42.8506H42.8507H42.8509H42.8511H42.8513H42.8515H42.8517H42.8519H42.8521H42.8522H42.8524H42.8526H42.8528H42.853H42.8532H42.8534H42.8536H42.8538H42.854H42.8542H42.8544H42.8546H42.8548H42.8549H42.8551H42.8553H42.8555H42.8557H42.8559H42.8561H42.8563H42.8565H42.8567H42.8569H42.8572H42.8574H42.8576H42.8578H42.858H42.8582H42.8584H42.8586H42.8588H42.859H42.8592H42.8594H42.8597H42.8599H42.8601H42.8603H42.8605H42.8607H42.8609H42.8612H42.8614H42.8616H42.8618H42.862H42.8623H42.8625H42.8627H42.8629H42.8631H42.8634H42.8636H42.8638H42.8641H42.8643H42.8645H42.8647H42.865H42.8652H42.8654H42.8657H42.8659H42.8661H42.8664H42.8666H42.8668H42.8671H42.8673H42.8676H42.8678H42.868H42.8683H42.8685H42.8688H42.869H42.8693H42.8695H42.8698H42.87H42.8703H42.8705H42.8708H42.871H42.8713H42.8715H42.8718H42.872H42.8723H42.8726H42.8728H42.8731H42.8733H42.8736H42.8739H42.8741H42.8744H42.8747H42.8749H42.8752H42.8755H42.8758H42.876H42.8763H42.8766H42.8768H42.8771H42.8774H42.8777H42.878H42.8782H42.8785H42.8788H42.8791H42.8794H42.8797H42.8799H42.8802H42.8805H42.8808H42.8811H42.8814H42.8817H42.882H42.8823H42.8826H42.8829H42.8832H42.8835H42.8838H42.8841H42.8844H42.8847H42.885H42.8853H42.8856H42.8859H42.8862H42.8866H42.8869H42.8872H42.8875H42.8878H42.8881H42.8885H42.8888H42.8891H42.8894H42.8897H42.89H42.8904H42.8907H42.891H42.8913H42.8916H42.8919H42.8923H42.8926H42.8929H42.8932H42.8935H42.8938H42.8942H42.8945H42.8948H42.8951H42.8954H42.8957H42.8961H42.8964H42.8967H42.897H42.8973H42.8976H42.898H42.8983H42.8986H42.8989H42.8992H42.8995H42.8999H42.9002H42.9005H42.9008H42.9011H42.9014H42.9017H42.9021H42.9024H42.9027H42.903H42.9033H42.9036H42.9039H42.9043H42.9046H42.9049H42.9052H42.9055H42.9058H42.9061H42.9065H42.9068H42.9071H42.9074H42.9077H42.908H42.9083H42.9086H42.909H42.9093H42.9096H42.9099H42.9102H42.9105H42.9108H42.9111H42.9114H42.9118H42.9121H42.9124H42.9127H42.913H42.9133H42.9136H42.9139H42.9142H42.9145H42.9148H42.9152H42.9155H42.9158H42.9161H42.9164H42.9167H42.917H42.9173H42.9176H42.9179H42.9182H42.9185H42.9188H42.9191H42.9194H42.9198H42.9201H42.9204H42.9207H42.921H42.9213H42.9216H42.9219H42.9222H42.9225H42.9228H42.9231H42.9234H42.9237H42.924H42.9243H42.9246H42.9249H42.9252H42.9255H42.9258H42.9261H42.9264H42.9267H42.927H42.9273H42.9276H42.9279H42.9282H42.9285H42.9288H42.9291H42.9294H42.9297H42.9299H42.9302H42.9305H42.9308H42.9311H42.9314H42.9317H42.932H42.9323H42.9326H42.9329H42.9332H42.9335H42.9338H42.934H42.9343H42.9346H42.9349H42.9352H42.9355H42.9358H42.9361H42.9363H42.9366H42.9369H42.9372H42.9375H42.9378H42.9381H42.9383H42.9386H42.9389H42.9392H42.9395H42.9398H42.94H42.9403H42.9406H42.9409H42.9412H42.9414H42.9417H42.942H42.9423H42.9426H42.9428H42.9431H42.9434H42.9437H42.9439H42.9442H42.9445H42.9448H42.945H42.9453H42.9456H42.9459H42.9461H42.9464H42.9467H42.9469H42.9472H42.9475H42.9478H42.948H42.9483H42.9486H42.9488H42.9491H42.9494H42.9496H42.9499H42.9501H42.9504H42.9507H42.9509H42.9512H42.9515H42.9517H42.952H42.9523H42.9525H42.9528H42.953H42.9533H42.9535H42.9538H42.9541H42.9543H42.9546H42.9548H42.9551H42.9553H42.9556H42.9558H42.9561H42.9563H42.9566H42.9568H42.9571H42.9573H42.9576H42.9578H42.9581H42.9583H42.9586H42.9588H42.9591H42.9593H42.9596H42.9598H42.9601H42.9603H42.9605H42.9608H42.961H42.9613H42.9615H42.9617H42.962H42.9622H42.9625H42.9627H42.9629H42.9632H42.9634H42.9636H42.9639H42.9641H42.9643H42.9646H42.9648H42.965H42.9653H42.9655H42.9657H42.9659H42.9662H42.9664H42.9666H42.9668H42.9671H42.9673H42.9675H42.9677H42.968H42.9682H42.9684H42.9686H42.9688H42.9691H42.9693H42.9695H42.9697H42.9699H42.9701H42.9703H42.9706H42.9708H42.971H42.9712H42.9714H42.9716H42.9718H42.972H42.9722H42.9724H42.9726H42.9729H42.9731H42.9733H42.9735H42.9737H42.9739H42.9741H42.9743H42.9745H42.9747H42.9749H42.9751H42.9753H42.9755H42.9756H42.9758H42.976H42.9762H42.9764H42.9766H42.9768H42.977H42.9772H42.9774H42.9776H42.9777H42.9779H42.9781H42.9783H42.9785H42.9787H42.9788H42.979H42.9792H42.9794H42.9795H42.9797H42.9799H42.9801H42.9803H42.9804H42.9806H42.9808H42.9809H42.9811H42.9813H42.9814H42.9816H42.9818H42.982H42.9821H42.9823H42.9824H42.9826H42.9828H42.9829H42.9831H42.9832H42.9834H42.9836H42.9837H42.9839H42.984H42.9842H42.9843H42.9845H42.9846H42.9848H42.9849H42.9851H42.9852H42.9854H42.9855H42.9857H42.9858H42.986H42.9861H42.9862H42.9864H42.9865H42.9867H42.9868H42.9869H42.9871H42.9872H42.9873H42.9875H42.9876H42.9877H42.9879H42.988H42.9881H42.9883H42.9884H42.9885H42.9886H42.9888H42.9889H42.989H42.9891H42.9892H42.9893H42.9895H42.9896H42.9897H42.9898H42.9899H42.99H42.9902H42.9903H42.9904H42.9905H42.9906H42.9907H42.9908H42.9909H42.991H42.9911H42.9912H42.9913H42.9914H42.9915H42.9916H42.9917H42.9918H42.9919H42.992H42.9921H42.9922H42.9923H42.9923H42.9924H42.9925H42.9926H42.9927H42.9928H42.9929H42.9929H42.993H42.9931H42.9932H42.9933H42.9933H42.9934H42.9935H42.9935H42.9936H42.9937H42.9938H42.9938H42.9939H42.994H42.994H42.9941H42.9942H42.9942H42.9943H42.9943H42.9944H42.9944H42.9945H42.9946H42.9946H42.9947H42.9947H42.9948H42.9948H42.9949H42.9949H42.995H42.995H42.995H42.9951H42.9951H42.9952H42.9952H42.9953H42.9953H42.9953H42.9954H42.9954H42.9954H42.9955H42.9955H42.9955H42.9956H42.9956H42.9957H42.9957H42.9957H42.9958H42.9958H86.1667H118.667H151.167H186.079V66.8167H175.548C174.082 57.653 166.224 50.5667 156.583 50.5667C146.943 50.5667 139.085 57.653 137.619 66.8167H75.3333H56.3809C54.9154 57.653 47.0573 50.5667 37.4167 50.5667C27.7761 50.5667 19.9179 57.653 18.4524 66.8167H7.975V64.4583Z" fill="#EAE5D9" stroke="#EAE5D9" stroke-width="2"/>
</svg>
