<svg width="196" height="195" viewBox="0 0 196 195" fill="none" xmlns="http://www.w3.org/2000/svg">
<path d="M193.076 83.2901C193.07 83.2296 193.059 83.1421 193.033 83.0412V82.9529L192.962 82.7738L182.128 55.7446L182.124 55.7336L182.119 55.7227C181.658 54.6469 180.623 53.8167 179.304 53.8167H152.221H119.721H87.2208C87.2182 53.8167 87.2151 53.8166 87.2115 53.8166C87.1527 53.8161 86.963 53.8146 86.7423 53.9037C86.7168 53.9085 86.6943 53.913 86.6778 53.9163L86.6726 53.9173C86.6551 53.9208 86.6428 53.9233 86.6338 53.925H86.5169L86.3629 53.9763C86.3528 53.9797 86.3405 53.9833 86.3075 53.9921L86.2996 53.9942C86.2713 54.0018 86.2121 54.0176 86.1531 54.0372C86.0777 54.0624 85.9943 54.096 85.9078 54.1435C85.7961 54.1789 85.672 54.2362 85.5504 54.3293L43.0051 80.9H27.5833C13.9784 80.9 2.85834 91.9629 2.85834 105.625V111.042V116.458V121.875V121.899L2.85947 121.923C2.93609 123.532 4.18571 124.933 5.91667 124.933H19.4524C20.9179 134.097 28.7761 141.183 38.4167 141.183C48.0573 141.183 55.9154 134.097 57.3809 124.933H76.3333H138.619C140.085 134.097 147.943 141.183 157.583 141.183C167.224 141.183 175.082 134.097 176.548 124.933H190.083C191.773 124.933 193.142 123.565 193.142 121.875V84.0125V83.9583C193.142 83.8557 193.13 83.7666 193.121 83.7126C193.118 83.6965 193.116 83.6805 193.113 83.6652C193.106 83.6274 193.099 83.5937 193.095 83.5726C193.092 83.5548 193.089 83.5424 193.087 83.5334C193.087 83.4745 193.085 83.3848 193.076 83.2901ZM38.4167 135.121C31.1148 135.121 25.1708 129.177 25.1708 121.875C25.1708 114.578 31.1098 108.683 38.4167 108.683C45.7186 108.683 51.6625 114.627 51.6625 121.929C51.6625 129.226 45.7235 135.121 38.4167 135.121ZM157.583 135.121C150.281 135.121 144.337 129.177 144.337 121.875C144.337 114.573 150.281 108.629 157.583 108.629C164.885 108.629 170.829 114.573 170.829 121.875C170.829 129.177 164.885 135.121 157.583 135.121ZM155.225 59.9333H177.219L185.627 80.9542H155.225V59.9333ZM122.725 59.9333H149.162V80.9542H122.725V59.9333ZM90.225 59.9333H116.662V80.9542H90.225V59.9333ZM54.416 80.9542L84.1625 62.3626V80.9542H54.416ZM8.975 116.458V111.042V105.625C8.975 95.3439 17.3565 86.9625 27.6375 86.9625H43.7792H43.7795H43.7798H43.7801H43.7804H43.7807H43.781H43.7814H43.7817H43.782H43.7823H43.7826H43.7829H43.7832H43.7835H43.7838H43.7841H43.7844H43.7847H43.785H43.7853H43.7856H43.7859H43.7861H43.7864H43.7867H43.787H43.7873H43.7876H43.7879H43.7882H43.7884H43.7887H43.789H43.7893H43.7896H43.7898H43.7901H43.7904H43.7906H43.7909H43.7912H43.7915H43.7917H43.792H43.7923H43.7925H43.7928H43.7931H43.7933H43.7936H43.7938H43.7941H43.7944H43.7946H43.7949H43.7951H43.7954H43.7956H43.7959H43.7962H43.7964H43.7967H43.7969H43.7972H43.7974H43.7976H43.7979H43.7981H43.7984H43.7986H43.7989H43.7991H43.7993H43.7996H43.7998H43.8001H43.8003H43.8005H43.8008H43.801H43.8012H43.8015H43.8017H43.8019H43.8022H43.8024H43.8026H43.8028H43.8031H43.8033H43.8035H43.8037H43.804H43.8042H43.8044H43.8046H43.8049H43.8051H43.8053H43.8055H43.8057H43.8059H43.8062H43.8064H43.8066H43.8068H43.807H43.8072H43.8074H43.8077H43.8079H43.8081H43.8083H43.8085H43.8087H43.8089H43.8091H43.8093H43.8095H43.8097H43.8099H43.8101H43.8103H43.8105H43.8107H43.8109H43.8111H43.8113H43.8115H43.8117H43.8119H43.8121H43.8123H43.8125H43.8127H43.8129H43.8131H43.8133H43.8135H43.8137H43.8139H43.814H43.8142H43.8144H43.8146H43.8148H43.815H43.8152H43.8154H43.8156H43.8157H43.8159H43.8161H43.8163H43.8165H43.8167H43.8168H43.817H43.8172H43.8174H43.8176H43.8177H43.8179H43.8181H43.8183H43.8185H43.8186H43.8188H43.819H43.8192H43.8194H43.8195H43.8197H43.8199H43.8201H43.8202H43.8204H43.8206H43.8207H43.8209H43.8211H43.8213H43.8214H43.8216H43.8218H43.8219H43.8221H43.8223H43.8225H43.8226H43.8228H43.823H43.8231H43.8233H43.8235H43.8236H43.8238H43.824H43.8241H43.8243H43.8245H43.8246H43.8248H43.825H43.8251H43.8253H43.8255H43.8256H43.8258H43.826H43.8261H43.8263H43.8264H43.8266H43.8268H43.8269H43.8271H43.8273H43.8274H43.8276H43.8277H43.8279H43.8281H43.8282H43.8284H43.8286H43.8287H43.8289H43.829H43.8292H43.8294H43.8295H43.8297H43.8298H43.83H43.8302H43.8303H43.8305H43.8306H43.8308H43.831H43.8311H43.8313H43.8314H43.8316H43.8317H43.8319H43.8321H43.8322H43.8324H43.8325H43.8327H43.8329H43.833H43.8332H43.8333H43.8335H43.8337H43.8338H43.834H43.8341H43.8343H43.8344H43.8346H43.8348H43.8349H43.8351H43.8352H43.8354H43.8356H43.8357H43.8359H43.836H43.8362H43.8364H43.8365H43.8367H43.8368H43.837H43.8372H43.8373H43.8375H43.8376H43.8378H43.838H43.8381H43.8383H43.8384H43.8386H43.8388H43.8389H43.8391H43.8392H43.8394H43.8396H43.8397H43.8399H43.8401H43.8402H43.8404H43.8405H43.8407H43.8409H43.841H43.8412H43.8414H43.8415H43.8417H43.8419H43.842H43.8422H43.8424H43.8425H43.8427H43.8429H43.843H43.8432H43.8434H43.8435H43.8437H43.8439H43.844H43.8442H43.8444H43.8446H43.8447H43.8449H43.8451H43.8452H43.8454H43.8456H43.8458H43.8459H43.8461H43.8463H43.8464H43.8466H43.8468H43.847H43.8471H43.8473H43.8475H43.8477H43.8479H43.848H43.8482H43.8484H43.8486H43.8487H43.8489H43.8491H43.8493H43.8495H43.8496H43.8498H43.85H43.8502H43.8504H43.8506H43.8507H43.8509H43.8511H43.8513H43.8515H43.8517H43.8519H43.8521H43.8522H43.8524H43.8526H43.8528H43.853H43.8532H43.8534H43.8536H43.8538H43.854H43.8542H43.8544H43.8546H43.8548H43.8549H43.8551H43.8553H43.8555H43.8557H43.8559H43.8561H43.8563H43.8565H43.8567H43.8569H43.8572H43.8574H43.8576H43.8578H43.858H43.8582H43.8584H43.8586H43.8588H43.859H43.8592H43.8594H43.8597H43.8599H43.8601H43.8603H43.8605H43.8607H43.8609H43.8612H43.8614H43.8616H43.8618H43.862H43.8623H43.8625H43.8627H43.8629H43.8631H43.8634H43.8636H43.8638H43.8641H43.8643H43.8645H43.8647H43.865H43.8652H43.8654H43.8657H43.8659H43.8661H43.8664H43.8666H43.8668H43.8671H43.8673H43.8676H43.8678H43.868H43.8683H43.8685H43.8688H43.869H43.8693H43.8695H43.8698H43.87H43.8703H43.8705H43.8708H43.871H43.8713H43.8715H43.8718H43.872H43.8723H43.8726H43.8728H43.8731H43.8733H43.8736H43.8739H43.8741H43.8744H43.8747H43.8749H43.8752H43.8755H43.8758H43.876H43.8763H43.8766H43.8768H43.8771H43.8774H43.8777H43.878H43.8782H43.8785H43.8788H43.8791H43.8794H43.8797H43.8799H43.8802H43.8805H43.8808H43.8811H43.8814H43.8817H43.882H43.8823H43.8826H43.8829H43.8832H43.8835H43.8838H43.8841H43.8844H43.8847H43.885H43.8853H43.8856H43.8859H43.8862H43.8866H43.8869H43.8872H43.8875H43.8878H43.8881H43.8885H43.8888H43.8891H43.8894H43.8897H43.89H43.8904H43.8907H43.891H43.8913H43.8916H43.8919H43.8923H43.8926H43.8929H43.8932H43.8935H43.8938H43.8942H43.8945H43.8948H43.8951H43.8954H43.8957H43.8961H43.8964H43.8967H43.897H43.8973H43.8976H43.898H43.8983H43.8986H43.8989H43.8992H43.8995H43.8999H43.9002H43.9005H43.9008H43.9011H43.9014H43.9017H43.9021H43.9024H43.9027H43.903H43.9033H43.9036H43.9039H43.9043H43.9046H43.9049H43.9052H43.9055H43.9058H43.9061H43.9065H43.9068H43.9071H43.9074H43.9077H43.908H43.9083H43.9086H43.909H43.9093H43.9096H43.9099H43.9102H43.9105H43.9108H43.9111H43.9114H43.9118H43.9121H43.9124H43.9127H43.913H43.9133H43.9136H43.9139H43.9142H43.9145H43.9148H43.9152H43.9155H43.9158H43.9161H43.9164H43.9167H43.917H43.9173H43.9176H43.9179H43.9182H43.9185H43.9188H43.9191H43.9194H43.9198H43.9201H43.9204H43.9207H43.921H43.9213H43.9216H43.9219H43.9222H43.9225H43.9228H43.9231H43.9234H43.9237H43.924H43.9243H43.9246H43.9249H43.9252H43.9255H43.9258H43.9261H43.9264H43.9267H43.927H43.9273H43.9276H43.9279H43.9282H43.9285H43.9288H43.9291H43.9294H43.9297H43.9299H43.9302H43.9305H43.9308H43.9311H43.9314H43.9317H43.932H43.9323H43.9326H43.9329H43.9332H43.9335H43.9338H43.934H43.9343H43.9346H43.9349H43.9352H43.9355H43.9358H43.9361H43.9363H43.9366H43.9369H43.9372H43.9375H43.9378H43.9381H43.9383H43.9386H43.9389H43.9392H43.9395H43.9398H43.94H43.9403H43.9406H43.9409H43.9412H43.9414H43.9417H43.942H43.9423H43.9426H43.9428H43.9431H43.9434H43.9437H43.9439H43.9442H43.9445H43.9448H43.945H43.9453H43.9456H43.9459H43.9461H43.9464H43.9467H43.9469H43.9472H43.9475H43.9478H43.948H43.9483H43.9486H43.9488H43.9491H43.9494H43.9496H43.9499H43.9501H43.9504H43.9507H43.9509H43.9512H43.9515H43.9517H43.952H43.9523H43.9525H43.9528H43.953H43.9533H43.9535H43.9538H43.9541H43.9543H43.9546H43.9548H43.9551H43.9553H43.9556H43.9558H43.9561H43.9563H43.9566H43.9568H43.9571H43.9573H43.9576H43.9578H43.9581H43.9583H43.9586H43.9588H43.9591H43.9593H43.9596H43.9598H43.9601H43.9603H43.9605H43.9608H43.961H43.9613H43.9615H43.9617H43.962H43.9622H43.9625H43.9627H43.9629H43.9632H43.9634H43.9636H43.9639H43.9641H43.9643H43.9646H43.9648H43.965H43.9653H43.9655H43.9657H43.9659H43.9662H43.9664H43.9666H43.9668H43.9671H43.9673H43.9675H43.9677H43.968H43.9682H43.9684H43.9686H43.9688H43.9691H43.9693H43.9695H43.9697H43.9699H43.9701H43.9703H43.9706H43.9708H43.971H43.9712H43.9714H43.9716H43.9718H43.972H43.9722H43.9724H43.9726H43.9729H43.9731H43.9733H43.9735H43.9737H43.9739H43.9741H43.9743H43.9745H43.9747H43.9749H43.9751H43.9753H43.9755H43.9756H43.9758H43.976H43.9762H43.9764H43.9766H43.9768H43.977H43.9772H43.9774H43.9776H43.9777H43.9779H43.9781H43.9783H43.9785H43.9787H43.9788H43.979H43.9792H43.9794H43.9795H43.9797H43.9799H43.9801H43.9803H43.9804H43.9806H43.9808H43.9809H43.9811H43.9813H43.9814H43.9816H43.9818H43.982H43.9821H43.9823H43.9824H43.9826H43.9828H43.9829H43.9831H43.9832H43.9834H43.9836H43.9837H43.9839H43.984H43.9842H43.9843H43.9845H43.9846H43.9848H43.9849H43.9851H43.9852H43.9854H43.9855H43.9857H43.9858H43.986H43.9861H43.9862H43.9864H43.9865H43.9867H43.9868H43.9869H43.9871H43.9872H43.9873H43.9875H43.9876H43.9877H43.9879H43.988H43.9881H43.9883H43.9884H43.9885H43.9886H43.9888H43.9889H43.989H43.9891H43.9892H43.9893H43.9895H43.9896H43.9897H43.9898H43.9899H43.99H43.9902H43.9903H43.9904H43.9905H43.9906H43.9907H43.9908H43.9909H43.991H43.9911H43.9912H43.9913H43.9914H43.9915H43.9916H43.9917H43.9918H43.9919H43.992H43.9921H43.9922H43.9923H43.9923H43.9924H43.9925H43.9926H43.9927H43.9928H43.9929H43.9929H43.993H43.9931H43.9932H43.9933H43.9933H43.9934H43.9935H43.9935H43.9936H43.9937H43.9938H43.9938H43.9939H43.994H43.994H43.9941H43.9942H43.9942H43.9943H43.9943H43.9944H43.9944H43.9945H43.9946H43.9946H43.9947H43.9947H43.9948H43.9948H43.9949H43.9949H43.995H43.995H43.995H43.9951H43.9951H43.9952H43.9952H43.9953H43.9953H43.9953H43.9954H43.9954H43.9954H43.9955H43.9955H43.9955H43.9956H43.9956H43.9957H43.9957H43.9957H43.9958H43.9958H87.1667H119.667H152.167H187.079V118.817H176.548C175.082 109.653 167.224 102.567 157.583 102.567C147.943 102.567 140.085 109.653 138.619 118.817H76.3333H57.3809C55.9154 109.653 48.0573 102.567 38.4167 102.567C28.7761 102.567 20.9179 109.653 19.4524 118.817H8.975V116.458Z" fill="#EAE5D9" stroke="#EAE5D9" stroke-width="2"/>
</svg>
