<svg width="30" height="30" viewBox="0 0 30 30" fill="none" xmlns="http://www.w3.org/2000/svg">
<path fill-rule="evenodd" clip-rule="evenodd" d="M13.75 3.75C12.7554 3.75 11.8016 4.14509 11.0983 4.84835C10.3951 5.55161 10 6.50544 10 7.5V8.75H6.25C5.25544 8.75 4.30161 9.14509 3.59835 9.84835C2.89509 10.5516 2.5 11.5054 2.5 12.5V22.5C2.5 23.4946 2.89509 24.4484 3.59835 25.1517C4.30161 25.8549 5.25544 26.25 6.25 26.25H23.75C24.7446 26.25 25.6984 25.8549 26.4017 25.1517C27.1049 24.4484 27.5 23.4946 27.5 22.5V12.5C27.5 11.5054 27.1049 10.5516 26.4017 9.84835C25.6984 9.14509 24.7446 8.75 23.75 8.75H20V7.5C20 6.50544 19.6049 5.55161 18.9017 4.84835C18.1984 4.14509 17.2446 3.75 16.25 3.75H13.75ZM17.5 8.75H12.5V7.5C12.5 7.16848 12.6317 6.85054 12.8661 6.61612C13.1005 6.3817 13.4185 6.25 13.75 6.25H16.25C16.5815 6.25 16.8995 6.3817 17.1339 6.61612C17.3683 6.85054 17.5 7.16848 17.5 7.5V8.75Z" fill="#EAE5D9"/>
</svg>
