<svg width="30" height="30" viewBox="0 0 30 30" fill="none" xmlns="http://www.w3.org/2000/svg">
<path fill-rule="evenodd" clip-rule="evenodd" d="M15 30C23.2843 30 30 23.2843 30 15C30 6.71573 23.2843 0 15 0C6.71573 0 0 6.71573 0 15C0 23.2843 6.71573 30 15 30ZM23.1713 12.937C23.6888 12.2901 23.5839 11.3462 22.937 10.8287C22.2901 10.3112 21.3462 10.4161 20.8287 11.063L14.0677 19.5141L10.2206 14.1281C9.73909 13.454 8.80226 13.2979 8.12814 13.7794C7.45402 14.2609 7.29789 15.1977 7.7794 15.8719L12.7794 22.8719C13.0526 23.2543 13.4893 23.4866 13.9591 23.4994C14.429 23.5122 14.8777 23.3041 15.1713 22.937L23.1713 12.937Z" fill="#349D42"/>
</svg>
