<svg width="195" height="195" viewBox="0 0 195 195" fill="none" xmlns="http://www.w3.org/2000/svg">
<path d="M142.916 71.7223C142.266 71.9878 141.572 72.1284 140.871 72.1371C139.784 72.1173 138.727 71.7813 137.828 71.1701C136.922 70.5545 136.218 69.6866 135.801 68.6741C135.384 67.6617 135.273 66.5491 135.483 65.4744C135.692 64.4003 136.212 63.4113 136.977 62.6297C136.978 62.6292 136.978 62.6287 136.979 62.6282L150.198 49.4093C150.198 49.4091 150.198 49.4089 150.198 49.4086C151.246 48.3672 152.664 47.7826 154.141 47.7826C155.619 47.7826 157.036 48.367 158.084 49.4081C159.125 50.456 159.71 51.8734 159.71 53.3508C159.71 54.8277 159.125 56.2448 158.085 57.2926C158.084 57.2932 158.083 57.2938 158.083 57.2944L144.74 70.5151L144.74 70.5153C144.217 71.0337 143.598 71.4439 142.916 71.7223ZM50.3209 149.225L50.3223 149.224L63.5458 136C64.0675 135.479 64.6869 135.065 65.3686 134.782C66.0503 134.5 66.7809 134.355 67.5188 134.355C68.2566 134.355 68.9873 134.5 69.6689 134.782C70.3506 135.065 70.97 135.479 71.4918 136C72.0135 136.522 72.4274 137.142 72.7097 137.823C72.9921 138.505 73.1374 139.236 73.1374 139.973C73.1374 140.711 72.9921 141.442 72.7097 142.124C72.4274 142.805 72.0135 143.425 71.4918 143.946L58.2683 157.17L58.2669 157.171C57.7469 157.696 57.1282 158.112 56.4466 158.396C55.7649 158.68 55.0338 158.826 54.2953 158.826C53.5569 158.826 52.8257 158.68 52.1441 158.396C51.4625 158.112 50.8438 157.696 50.3238 157.171L50.3209 157.168C49.7966 156.648 49.3804 156.03 49.0964 155.348C48.8125 154.666 48.6662 153.935 48.6662 153.197C48.6662 152.458 48.8125 151.727 49.0964 151.046C49.3804 150.364 49.7966 149.745 50.3209 149.225ZM67.5217 72.1374L67.5159 72.1375C66.7797 72.1417 66.0499 72.0006 65.3684 71.7223C64.6873 71.4441 64.0677 71.0342 63.5452 70.5162C63.5449 70.5159 63.5446 70.5156 63.5443 70.5153L50.3692 57.3401C49.7672 56.2793 49.5281 55.0501 49.6896 53.8399C49.8538 52.6087 50.4231 51.4672 51.3078 50.5953C52.1925 49.7234 53.3422 49.1708 54.5756 49.0246C55.791 48.8805 57.0195 49.139 58.0732 49.7597L71.4948 62.6347C72.5341 63.6824 73.1173 65.0984 73.1173 66.5742C73.1173 68.0514 72.533 69.4687 71.4919 70.5166C70.9695 71.0344 70.3501 71.4441 69.6691 71.7223C68.9876 72.0006 68.2578 72.1417 67.5217 72.1374ZM116.658 166.561C115.892 166.939 115.05 167.137 114.196 167.139H113.205C112.216 166.958 111.294 166.514 110.535 165.853C109.767 165.183 109.196 164.315 108.884 163.344C108.884 163.343 108.884 163.343 108.884 163.343L87.4956 95.5215L87.4943 95.5174C87.1757 94.5363 87.1345 93.4863 87.3754 92.4833C87.6162 91.4803 88.1297 90.5634 88.8591 89.8341C89.5885 89.1047 90.5053 88.5912 91.5083 88.3503C92.5113 88.1095 93.5614 88.1506 94.5424 88.4693L94.5438 88.4697L162.002 110.163L162.006 110.165C162.987 110.469 163.865 111.038 164.543 111.808C165.222 112.578 165.676 113.52 165.855 114.531C166.034 115.542 165.932 116.583 165.559 117.539C165.186 118.496 164.557 119.331 163.74 119.954L163.739 119.955L143.325 135.677L142.874 136.025L143.276 136.427L165.332 158.483C165.332 158.483 165.333 158.483 165.333 158.484C166.357 159.529 166.931 160.935 166.931 162.398C166.931 163.863 166.357 165.268 165.332 166.314L165.314 166.332L165.299 166.352L165.073 166.634C164.027 167.663 162.618 168.241 161.149 168.241C159.671 168.241 158.254 167.656 157.206 166.614L135.086 144.495L134.684 144.092L134.337 144.543L118.615 164.957L118.615 164.957C118.094 165.634 117.424 166.183 116.658 166.561ZM147.408 118.432L148.164 117.85L147.255 117.56L102.101 103.117L101.176 102.822L101.472 103.746L115.914 148.84L116.205 149.747L116.787 148.993L129.918 131.971L130.305 131.639L130.722 131.282L147.408 118.432ZM98.6094 51.3703V32.6625C98.6094 31.1789 99.1987 29.7561 100.248 28.7071C101.297 27.6581 102.72 27.0687 104.203 27.0687C105.687 27.0687 107.109 27.6581 108.159 28.7071C109.208 29.7561 109.797 31.1789 109.797 32.6625V51.3703C109.797 52.8538 109.208 54.2766 108.159 55.3257C107.109 56.3747 105.687 56.964 104.203 56.964C102.72 56.964 101.297 56.3747 100.248 55.3257C99.1987 54.2766 98.6094 52.8538 98.6094 51.3703ZM56.2398 99.6383C57.2888 100.687 57.8781 102.11 57.8781 103.594C57.8781 105.077 57.2888 106.5 56.2398 107.549C55.1907 108.598 53.7679 109.187 52.2844 109.187H33.6375C32.154 109.187 30.7312 108.598 29.6821 107.549C28.6331 106.5 28.0438 105.077 28.0438 103.594C28.0438 102.11 28.6331 100.687 29.6821 99.6383C30.7312 98.5893 32.154 98 33.6375 98H52.2844C53.7679 98 55.1907 98.5893 56.2398 99.6383Z" fill="#EAE5D9" stroke="#951717"/>
</svg>
