<svg width="141" height="143" viewBox="0 0 141 143" fill="none" xmlns="http://www.w3.org/2000/svg">
<path d="M115.916 45.7223C115.266 45.9878 114.572 46.1284 113.871 46.1372C112.784 46.1173 111.727 45.7813 110.828 45.1702C109.922 44.5545 109.218 43.6866 108.801 42.6742C108.384 41.6617 108.273 40.5491 108.483 39.4744C108.692 38.4004 109.212 37.4113 109.977 36.6297C109.978 36.6292 109.978 36.6287 109.979 36.6282L123.198 23.4093C123.198 23.4091 123.198 23.4089 123.198 23.4087C124.246 22.3672 125.664 21.7827 127.141 21.7827C128.619 21.7827 130.036 22.367 131.084 23.4081C132.125 24.4561 132.71 25.8734 132.71 27.3508C132.71 28.8278 132.125 30.2448 131.085 31.2927C131.084 31.2932 131.083 31.2938 131.083 31.2944L117.74 44.5151L117.74 44.5153C117.217 45.0338 116.598 45.4439 115.916 45.7223ZM23.3209 123.225L23.3223 123.224L36.5458 110C37.0675 109.479 37.6869 109.065 38.3686 108.782C39.0503 108.5 39.7809 108.355 40.5188 108.355C41.2566 108.355 41.9873 108.5 42.6689 108.782C43.3506 109.065 43.97 109.479 44.4918 110C45.0135 110.522 45.4274 111.142 45.7097 111.823C45.9921 112.505 46.1374 113.236 46.1374 113.973C46.1374 114.711 45.9921 115.442 45.7097 116.124C45.4274 116.805 45.0135 117.425 44.4918 117.946L31.2683 131.17L31.2669 131.171C30.7469 131.696 30.1282 132.112 29.4466 132.396C28.7649 132.68 28.0338 132.826 27.2953 132.826C26.5569 132.826 25.8257 132.68 25.1441 132.396C24.4625 132.112 23.8438 131.696 23.3238 131.171L23.3209 131.168C22.7966 130.648 22.3804 130.03 22.0964 129.348C21.8125 128.666 21.6662 127.935 21.6662 127.197C21.6662 126.458 21.8125 125.727 22.0964 125.046C22.3804 124.364 22.7966 123.745 23.3209 123.225ZM40.5217 46.1375L40.5159 46.1375C39.7797 46.1418 39.0499 46.0007 38.3684 45.7223C37.6873 45.4441 37.0677 45.0342 36.5452 44.5162C36.5449 44.5159 36.5446 44.5156 36.5443 44.5153L23.3692 31.3402C22.7672 30.2793 22.5281 29.0501 22.6896 27.8399C22.8538 26.6087 23.4231 25.4672 24.3078 24.5953C25.1925 23.7235 26.3422 23.1709 27.5756 23.0246C28.791 22.8805 30.0195 23.1391 31.0732 23.7597L44.4948 36.6348C45.5341 37.6824 46.1173 39.0984 46.1173 40.5742C46.1173 42.0515 45.533 43.4687 44.4919 44.5166C43.9695 45.0345 43.3501 45.4442 42.6691 45.7223C41.9876 46.0007 41.2578 46.1418 40.5217 46.1375ZM89.6584 140.561C88.8924 140.939 88.0499 141.137 87.1957 141.139H86.2053C85.2161 140.958 84.2937 140.514 83.5353 139.853C82.7665 139.183 82.1956 138.315 81.8843 137.344C81.8842 137.344 81.8841 137.343 81.884 137.343L60.4956 69.5215L60.4943 69.5174C60.1757 68.5364 60.1345 67.4863 60.3754 66.4833C60.6162 65.4803 61.1297 64.5635 61.8591 63.8341C62.5885 63.1047 63.5053 62.5912 64.5083 62.3503C65.5113 62.1095 66.5614 62.1507 67.5424 62.4693L67.5438 62.4697L135.002 84.1635L135.006 84.165C135.987 84.4695 136.865 85.038 137.543 85.8081C138.222 86.5783 138.676 87.5204 138.855 88.5313C139.034 89.5422 138.932 90.5829 138.559 91.5394C138.186 92.4959 137.557 93.3313 136.74 93.9541L136.739 93.9554L116.325 109.677L115.874 110.025L116.276 110.427L138.332 132.483C138.332 132.483 138.333 132.483 138.333 132.484C139.357 133.529 139.931 134.935 139.931 136.398C139.931 137.863 139.357 139.268 138.332 140.314L138.314 140.332L138.299 140.352L138.073 140.634C137.027 141.663 135.618 142.241 134.149 142.241C132.671 142.241 131.254 141.656 130.206 140.614L108.086 118.495L107.684 118.092L107.337 118.543L91.6148 138.957L91.6147 138.958C91.0937 139.634 90.4244 140.183 89.6584 140.561ZM120.408 92.4321L121.164 91.8502L120.255 91.5597L75.1008 77.1175L74.1762 76.8218L74.4723 77.7463L88.9145 122.84L89.2049 123.747L89.7865 122.993L102.918 105.971L103.305 105.639L103.722 105.282L120.408 92.4321ZM71.6094 25.3703V6.66251C71.6094 5.17895 72.1987 3.75616 73.2478 2.70713C74.2968 1.65809 75.7196 1.06876 77.2031 1.06876C78.6867 1.06876 80.1095 1.65809 81.1585 2.70713C82.2075 3.75616 82.7969 5.17895 82.7969 6.66251V25.3703C82.7969 26.8539 82.2075 28.2767 81.1585 29.3257C80.1095 30.3747 78.6867 30.9641 77.2031 30.9641C75.7196 30.9641 74.2968 30.3747 73.2478 29.3257C72.1987 28.2767 71.6094 26.8539 71.6094 25.3703ZM29.2398 73.6384C30.2888 74.6874 30.8781 76.1102 30.8781 77.5938C30.8781 79.0773 30.2888 80.5001 29.2398 81.5491C28.1907 82.5982 26.7679 83.1875 25.2844 83.1875H6.63751C5.15396 83.1875 3.73117 82.5982 2.68213 81.5491C1.6331 80.5001 1.04376 79.0773 1.04376 77.5938C1.04376 76.1102 1.6331 74.6874 2.68213 73.6384C3.73117 72.5893 5.15396 72 6.63751 72H25.2844C26.7679 72 28.1907 72.5893 29.2398 73.6384Z" fill="#EAE5D9" stroke="#951717"/>
</svg>
