<svg width="25" height="25" viewBox="0 0 25 25" fill="none" xmlns="http://www.w3.org/2000/svg">
<path d="M6.25 2.5C6.25 1.83696 6.51339 1.20107 6.98223 0.732233C7.45107 0.263392 8.08696 0 8.75 0H16.25C16.913 0 17.5489 0.263392 18.0178 0.732233C18.4866 1.20107 18.75 1.83696 18.75 2.5V5H23.75C24.0815 5 24.3995 5.1317 24.6339 5.36612C24.8683 5.60054 25 5.91848 25 6.25C25 6.58152 24.8683 6.89946 24.6339 7.13388C24.3995 7.3683 24.0815 7.5 23.75 7.5H22.4137L21.33 22.6775C21.2851 23.3082 21.0029 23.8985 20.5401 24.3295C20.0774 24.7604 19.4686 25 18.8363 25H6.1625C5.53017 25 4.92133 24.7604 4.45861 24.3295C3.99588 23.8985 3.71364 23.3082 3.66875 22.6775L2.5875 7.5H1.25C0.918479 7.5 0.600537 7.3683 0.366116 7.13388C0.131696 6.89946 0 6.58152 0 6.25C0 5.91848 0.131696 5.60054 0.366116 5.36612C0.600537 5.1317 0.918479 5 1.25 5H6.25V2.5ZM8.75 5H16.25V2.5H8.75V5ZM5.0925 7.5L6.16375 22.5H18.8375L19.9088 7.5H5.0925ZM10 10C10.3315 10 10.6495 10.1317 10.8839 10.3661C11.1183 10.6005 11.25 10.9185 11.25 11.25V18.75C11.25 19.0815 11.1183 19.3995 10.8839 19.6339C10.6495 19.8683 10.3315 20 10 20C9.66848 20 9.35054 19.8683 9.11612 19.6339C8.8817 19.3995 8.75 19.0815 8.75 18.75V11.25C8.75 10.9185 8.8817 10.6005 9.11612 10.3661C9.35054 10.1317 9.66848 10 10 10ZM15 10C15.3315 10 15.6495 10.1317 15.8839 10.3661C16.1183 10.6005 16.25 10.9185 16.25 11.25V18.75C16.25 19.0815 16.1183 19.3995 15.8839 19.6339C15.6495 19.8683 15.3315 20 15 20C14.6685 20 14.3505 19.8683 14.1161 19.6339C13.8817 19.3995 13.75 19.0815 13.75 18.75V11.25C13.75 10.9185 13.8817 10.6005 14.1161 10.3661C14.3505 10.1317 14.6685 10 15 10Z" fill="#EAE5D9"/>
</svg>
