<svg width="381" height="62" viewBox="0 0 381 62" fill="none" xmlns="http://www.w3.org/2000/svg">
<rect width="363" height="62" rx="10" fill="#951717"/>
<path d="M14.368 15.004C15.2547 15.004 15.9967 15.088 16.594 15.256C17.2007 15.4147 17.6533 15.6807 17.952 16.054C18.26 16.418 18.414 16.9127 18.414 17.538C18.414 17.9113 18.3533 18.252 18.232 18.56C18.1107 18.868 17.9333 19.12 17.7 19.316C17.476 19.512 17.2007 19.638 16.874 19.694V19.764C17.21 19.8293 17.5133 19.946 17.784 20.114C18.0547 20.282 18.2693 20.5247 18.428 20.842C18.5867 21.1593 18.666 21.5793 18.666 22.102C18.666 22.7087 18.5167 23.2313 18.218 23.67C17.9287 24.0993 17.5087 24.4307 16.958 24.664C16.4073 24.888 15.754 25 14.998 25H11.26V15.004H14.368ZM14.606 18.966C15.222 18.966 15.6467 18.868 15.88 18.672C16.1227 18.476 16.244 18.1913 16.244 17.818C16.244 17.4353 16.104 17.16 15.824 16.992C15.544 16.824 15.1007 16.74 14.494 16.74H13.374V18.966H14.606ZM13.374 20.646V23.25H14.76C15.3947 23.25 15.838 23.1287 16.09 22.886C16.342 22.634 16.468 22.3027 16.468 21.892C16.468 21.64 16.412 21.4207 16.3 21.234C16.1973 21.0473 16.0153 20.9027 15.754 20.8C15.4927 20.6973 15.138 20.646 14.69 20.646H13.374ZM27.2743 19.358C27.2743 19.7687 27.1436 20.1187 26.8823 20.408C26.6303 20.6973 26.2523 20.884 25.7483 20.968V21.024C26.2803 21.0893 26.7049 21.2713 27.0223 21.57C27.3489 21.8687 27.5123 22.2513 27.5123 22.718C27.5123 23.0447 27.4469 23.348 27.3162 23.628C27.1949 23.908 26.9989 24.1507 26.7283 24.356C26.4576 24.5613 26.1076 24.72 25.6783 24.832C25.2583 24.944 24.7449 25 24.1383 25H20.4983V17.356H24.1383C24.7356 17.356 25.2676 17.4213 25.7343 17.552C26.2103 17.6733 26.5836 17.8787 26.8543 18.168C27.1343 18.4573 27.2743 18.854 27.2743 19.358ZM25.3563 22.606C25.3563 22.3073 25.2396 22.0927 25.0063 21.962C24.7729 21.822 24.4229 21.752 23.9563 21.752H22.5843V23.558H23.9983C24.3903 23.558 24.7123 23.488 24.9643 23.348C25.2256 23.1987 25.3563 22.9513 25.3563 22.606ZM25.1603 19.526C25.1603 19.2833 25.0669 19.106 24.8803 18.994C24.6936 18.882 24.4183 18.826 24.0543 18.826H22.5843V20.338H23.8163C24.2549 20.338 24.5863 20.2773 24.8103 20.156C25.0436 20.0253 25.1603 19.8153 25.1603 19.526ZM32.4529 17.216C33.1623 17.216 33.7689 17.3513 34.2729 17.622C34.7863 17.8927 35.1829 18.2847 35.4629 18.798C35.7429 19.3113 35.8829 19.9413 35.8829 20.688V21.696H30.9549C30.9736 22.284 31.1463 22.746 31.4729 23.082C31.8089 23.418 32.2709 23.586 32.8589 23.586C33.3536 23.586 33.8016 23.5393 34.2029 23.446C34.6043 23.3433 35.0196 23.1893 35.4489 22.984V24.594C35.0756 24.7807 34.6789 24.916 34.2589 25C33.8483 25.0933 33.3489 25.14 32.7609 25.14C31.9956 25.14 31.3189 25 30.7309 24.72C30.1429 24.4307 29.6809 23.9967 29.3449 23.418C29.0089 22.8393 28.8409 22.1113 28.8409 21.234C28.8409 20.338 28.9903 19.596 29.2889 19.008C29.5969 18.4107 30.0216 17.9627 30.5629 17.664C31.1043 17.3653 31.7343 17.216 32.4529 17.216ZM32.4669 18.7C32.0656 18.7 31.7296 18.8307 31.4589 19.092C31.1976 19.3533 31.0436 19.7593 30.9969 20.31H33.9229C33.9229 20.002 33.8669 19.7267 33.7549 19.484C33.6523 19.2413 33.4936 19.05 33.2789 18.91C33.0643 18.77 32.7936 18.7 32.4669 18.7ZM44.4484 17.356V23.474H45.5684V27.744H43.6924V25H38.5544V27.744H36.6784V23.474H37.3224C37.6584 22.9607 37.9431 22.3773 38.1764 21.724C38.4098 21.0613 38.5964 20.3567 38.7364 19.61C38.8764 18.8633 38.9791 18.112 39.0444 17.356H44.4484ZM40.7944 18.924C40.7198 19.484 40.6264 20.03 40.5144 20.562C40.4024 21.0847 40.2624 21.5887 40.0944 22.074C39.9358 22.5593 39.7398 23.026 39.5064 23.474H42.3624V18.924H40.7944ZM48.9573 17.356V25H46.8713V17.356H48.9573ZM47.9213 14.36C48.2293 14.36 48.4953 14.4347 48.7193 14.584C48.9433 14.724 49.0553 14.99 49.0553 15.382C49.0553 15.7647 48.9433 16.0307 48.7193 16.18C48.4953 16.3293 48.2293 16.404 47.9213 16.404C47.604 16.404 47.3333 16.3293 47.1093 16.18C46.8946 16.0307 46.7873 15.7647 46.7873 15.382C46.7873 14.99 46.8946 14.724 47.1093 14.584C47.3333 14.4347 47.604 14.36 47.9213 14.36ZM57.4649 18.924H54.9589V25H52.8729V18.924H50.3669V17.356H57.4649V18.924ZM62.4312 20.31C63.2152 20.31 63.8639 20.394 64.3772 20.562C64.8905 20.7207 65.2685 20.968 65.5112 21.304C65.7632 21.64 65.8892 22.06 65.8892 22.564C65.8892 23.0587 65.7725 23.488 65.5392 23.852C65.3152 24.216 64.9559 24.5007 64.4612 24.706C63.9665 24.902 63.3179 25 62.5152 25H58.8752V17.356H60.9612V20.31H62.4312ZM63.8032 22.592C63.8032 22.2933 63.6819 22.0787 63.4392 21.948C63.2059 21.8173 62.8559 21.752 62.3892 21.752H60.9612V23.558H62.4172C62.8279 23.558 63.1592 23.4833 63.4112 23.334C63.6725 23.1847 63.8032 22.9373 63.8032 22.592ZM82.1928 17.356V23.474H83.3128V27.744H81.4368V25H70.8108V17.356H72.8968V23.432H75.4588V17.356H77.5448V23.432H80.1068V17.356H82.1928ZM91.5497 21.164C91.5497 21.7987 91.461 22.3633 91.2837 22.858C91.1157 23.3527 90.8683 23.7727 90.5417 24.118C90.2243 24.454 89.837 24.7107 89.3797 24.888C88.9223 25.056 88.4043 25.14 87.8257 25.14C87.2937 25.14 86.799 25.056 86.3417 24.888C85.8937 24.7107 85.5063 24.454 85.1797 24.118C84.853 23.7727 84.5963 23.3527 84.4097 22.858C84.2323 22.3633 84.1437 21.7987 84.1437 21.164C84.1437 20.3147 84.293 19.6007 84.5917 19.022C84.8903 18.434 85.3197 17.986 85.8797 17.678C86.4397 17.37 87.1023 17.216 87.8677 17.216C88.5863 17.216 89.221 17.37 89.7717 17.678C90.3223 17.986 90.7563 18.434 91.0737 19.022C91.391 19.6007 91.5497 20.3147 91.5497 21.164ZM86.2717 21.164C86.2717 21.668 86.323 22.0927 86.4257 22.438C86.5377 22.774 86.7103 23.0307 86.9437 23.208C87.177 23.376 87.4803 23.46 87.8537 23.46C88.227 23.46 88.5257 23.376 88.7497 23.208C88.983 23.0307 89.151 22.774 89.2537 22.438C89.3657 22.0927 89.4217 21.668 89.4217 21.164C89.4217 20.66 89.3657 20.24 89.2537 19.904C89.151 19.568 88.983 19.316 88.7497 19.148C88.5163 18.98 88.213 18.896 87.8397 18.896C87.289 18.896 86.8877 19.0873 86.6357 19.47C86.393 19.8433 86.2717 20.408 86.2717 21.164ZM95.3596 17.356V20.296H98.2716V17.356H100.358V25H98.2716V21.85H95.3596V25H93.2736V17.356H95.3596ZM105.679 17.202C106.706 17.202 107.49 17.426 108.031 17.874C108.582 18.3127 108.857 18.9893 108.857 19.904V25H107.401L106.995 23.964H106.939C106.725 24.2347 106.501 24.4587 106.267 24.636C106.043 24.8133 105.782 24.9393 105.483 25.014C105.194 25.098 104.835 25.14 104.405 25.14C103.957 25.14 103.551 25.056 103.187 24.888C102.833 24.7107 102.553 24.4447 102.347 24.09C102.142 23.726 102.039 23.2687 102.039 22.718C102.039 21.906 102.324 21.3087 102.893 20.926C103.463 20.534 104.317 20.3193 105.455 20.282L106.785 20.24V19.904C106.785 19.5027 106.678 19.2087 106.463 19.022C106.258 18.8353 105.969 18.742 105.595 18.742C105.222 18.742 104.858 18.798 104.503 18.91C104.149 19.0127 103.794 19.1433 103.439 19.302L102.753 17.888C103.164 17.6733 103.617 17.5053 104.111 17.384C104.615 17.2627 105.138 17.202 105.679 17.202ZM105.973 21.486C105.301 21.5047 104.835 21.626 104.573 21.85C104.312 22.074 104.181 22.368 104.181 22.732C104.181 23.0493 104.275 23.278 104.461 23.418C104.648 23.5487 104.891 23.614 105.189 23.614C105.637 23.614 106.015 23.4833 106.323 23.222C106.631 22.9513 106.785 22.5733 106.785 22.088V21.458L105.973 21.486ZM118.314 14.066C118.268 14.5513 118.132 14.9807 117.908 15.354C117.684 15.718 117.334 16.0027 116.858 16.208C116.382 16.4133 115.743 16.516 114.94 16.516C114.119 16.516 113.475 16.418 113.008 16.222C112.551 16.0167 112.224 15.732 112.028 15.368C111.832 15.004 111.716 14.57 111.678 14.066H113.54C113.587 14.5793 113.718 14.92 113.932 15.088C114.147 15.256 114.497 15.34 114.982 15.34C115.384 15.34 115.71 15.2513 115.962 15.074C116.224 14.8873 116.378 14.5513 116.424 14.066H118.314ZM113.008 20.38C113.008 20.5387 112.999 20.7347 112.98 20.968C112.971 21.2013 112.957 21.4393 112.938 21.682C112.929 21.9247 112.915 22.1393 112.896 22.326C112.878 22.5127 112.864 22.6433 112.854 22.718L116.382 17.356H118.888V25H116.872V21.948C116.872 21.696 116.882 21.4207 116.9 21.122C116.919 20.814 116.938 20.5293 116.956 20.268C116.984 19.9973 117.003 19.792 117.012 19.652L113.498 25H110.992V17.356H113.008V20.38ZM130.701 17.356V25H128.755V21.248C128.755 20.8747 128.759 20.5107 128.769 20.156C128.787 19.8013 128.811 19.4747 128.839 19.176H128.797L126.683 25H125.115L122.973 19.162H122.917C122.954 19.47 122.977 19.8013 122.987 20.156C123.005 20.5013 123.015 20.884 123.015 21.304V25H121.069V17.356H124.023L125.927 22.536L127.859 17.356H130.701ZM136.031 17.216C136.74 17.216 137.347 17.3513 137.851 17.622C138.364 17.8927 138.761 18.2847 139.041 18.798C139.321 19.3113 139.461 19.9413 139.461 20.688V21.696H134.533C134.552 22.284 134.724 22.746 135.051 23.082C135.387 23.418 135.849 23.586 136.437 23.586C136.932 23.586 137.38 23.5393 137.781 23.446C138.182 23.3433 138.598 23.1893 139.027 22.984V24.594C138.654 24.7807 138.257 24.916 137.837 25C137.426 25.0933 136.927 25.14 136.339 25.14C135.574 25.14 134.897 25 134.309 24.72C133.721 24.4307 133.259 23.9967 132.923 23.418C132.587 22.8393 132.419 22.1113 132.419 21.234C132.419 20.338 132.568 19.596 132.867 19.008C133.175 18.4107 133.6 17.9627 134.141 17.664C134.682 17.3653 135.312 17.216 136.031 17.216ZM136.045 18.7C135.644 18.7 135.308 18.8307 135.037 19.092C134.776 19.3533 134.622 19.7593 134.575 20.31H137.501C137.501 20.002 137.445 19.7267 137.333 19.484C137.23 19.2413 137.072 19.05 136.857 18.91C136.642 18.77 136.372 18.7 136.045 18.7ZM143.239 17.356V20.296H146.151V17.356H148.237V25H146.151V21.85H143.239V25H141.153V17.356H143.239ZM161.804 17.356V25H150.422V17.356H152.508V23.432H155.07V17.356H157.156V23.432H159.718V17.356H161.804ZM167.135 17.216C167.844 17.216 168.451 17.3513 168.955 17.622C169.468 17.8927 169.865 18.2847 170.145 18.798C170.425 19.3113 170.565 19.9413 170.565 20.688V21.696H165.637C165.655 22.284 165.828 22.746 166.155 23.082C166.491 23.418 166.953 23.586 167.541 23.586C168.035 23.586 168.483 23.5393 168.885 23.446C169.286 23.3433 169.701 23.1893 170.131 22.984V24.594C169.757 24.7807 169.361 24.916 168.941 25C168.53 25.0933 168.031 25.14 167.443 25.14C166.677 25.14 166.001 25 165.413 24.72C164.825 24.4307 164.363 23.9967 164.027 23.418C163.691 22.8393 163.523 22.1113 163.523 21.234C163.523 20.338 163.672 19.596 163.971 19.008C164.279 18.4107 164.703 17.9627 165.245 17.664C165.786 17.3653 166.416 17.216 167.135 17.216ZM167.149 18.7C166.747 18.7 166.411 18.8307 166.141 19.092C165.879 19.3533 165.725 19.7593 165.679 20.31H168.605C168.605 20.002 168.549 19.7267 168.437 19.484C168.334 19.2413 168.175 19.05 167.961 18.91C167.746 18.77 167.475 18.7 167.149 18.7ZM180.534 17.342C180.441 16.95 180.277 16.656 180.044 16.46C179.82 16.264 179.493 16.166 179.064 16.166C178.42 16.166 177.944 16.4273 177.636 16.95C177.337 17.4633 177.183 18.3033 177.174 19.47C177.398 19.0967 177.725 18.8073 178.154 18.602C178.583 18.3873 179.05 18.28 179.554 18.28C180.161 18.28 180.697 18.4107 181.164 18.672C181.631 18.9333 181.995 19.316 182.256 19.82C182.517 20.3147 182.648 20.912 182.648 21.612C182.648 22.2747 182.513 22.8673 182.242 23.39C181.981 23.9033 181.593 24.3047 181.08 24.594C180.567 24.8833 179.955 25.028 179.246 25.028C178.275 25.028 177.51 24.8133 176.95 24.384C176.399 23.9547 176.012 23.3573 175.788 22.592C175.573 21.8173 175.466 20.8653 175.466 19.736C175.466 18.028 175.76 16.74 176.348 15.872C176.936 14.9947 177.865 14.556 179.134 14.556C180.114 14.556 180.875 14.822 181.416 15.354C181.957 15.886 182.27 16.5487 182.354 17.342H180.534ZM179.106 19.89C178.611 19.89 178.196 20.0347 177.86 20.324C177.524 20.6133 177.356 21.0333 177.356 21.584C177.356 22.1347 177.51 22.5687 177.818 22.886C178.135 23.2033 178.579 23.362 179.148 23.362C179.652 23.362 180.049 23.208 180.338 22.9C180.637 22.592 180.786 22.1767 180.786 21.654C180.786 21.1127 180.641 20.6833 180.352 20.366C180.072 20.0487 179.657 19.89 179.106 19.89ZM190.991 25.14C190.235 25.14 189.591 25.0047 189.059 24.734C188.527 24.454 188.121 24.0247 187.841 23.446C187.561 22.8673 187.421 22.1253 187.421 21.22C187.421 20.2867 187.58 19.526 187.897 18.938C188.214 18.35 188.653 17.916 189.213 17.636C189.782 17.356 190.436 17.216 191.173 17.216C191.696 17.216 192.148 17.2673 192.531 17.37C192.923 17.4727 193.264 17.594 193.553 17.734L192.937 19.344C192.61 19.2133 192.302 19.106 192.013 19.022C191.733 18.938 191.453 18.896 191.173 18.896C190.809 18.896 190.506 18.9847 190.263 19.162C190.02 19.33 189.838 19.5867 189.717 19.932C189.605 20.268 189.549 20.6927 189.549 21.206C189.549 21.71 189.61 22.13 189.731 22.466C189.862 22.7927 190.048 23.04 190.291 23.208C190.534 23.3667 190.828 23.446 191.173 23.446C191.612 23.446 191.999 23.39 192.335 23.278C192.671 23.1567 192.998 22.9933 193.315 22.788V24.566C192.998 24.7713 192.662 24.916 192.307 25C191.962 25.0933 191.523 25.14 190.991 25.14ZM197.09 20.38C197.09 20.5387 197.081 20.7347 197.062 20.968C197.053 21.2013 197.039 21.4393 197.02 21.682C197.011 21.9247 196.997 22.1393 196.978 22.326C196.96 22.5127 196.946 22.6433 196.936 22.718L200.464 17.356H202.97V25H200.954V21.948C200.954 21.696 200.964 21.4207 200.982 21.122C201.001 20.814 201.02 20.5293 201.038 20.268C201.066 19.9973 201.085 19.792 201.094 19.652L197.58 25H195.074V17.356H197.09V20.38ZM214.783 17.356V25H212.837V21.248C212.837 20.8747 212.841 20.5107 212.851 20.156C212.869 19.8013 212.893 19.4747 212.921 19.176H212.879L210.765 25H209.197L207.055 19.162H206.999C207.036 19.47 207.059 19.8013 207.069 20.156C207.087 20.5013 207.097 20.884 207.097 21.304V25H205.151V17.356H208.105L210.009 22.536L211.941 17.356H214.783ZM223.739 19.358C223.739 19.7687 223.608 20.1187 223.347 20.408C223.095 20.6973 222.717 20.884 222.213 20.968V21.024C222.745 21.0893 223.17 21.2713 223.487 21.57C223.814 21.8687 223.977 22.2513 223.977 22.718C223.977 23.0447 223.912 23.348 223.781 23.628C223.66 23.908 223.464 24.1507 223.193 24.356C222.922 24.5613 222.572 24.72 222.143 24.832C221.723 24.944 221.21 25 220.603 25H216.963V17.356H220.603C221.2 17.356 221.732 17.4213 222.199 17.552C222.675 17.6733 223.048 17.8787 223.319 18.168C223.599 18.4573 223.739 18.854 223.739 19.358ZM221.821 22.606C221.821 22.3073 221.704 22.0927 221.471 21.962C221.238 21.822 220.888 21.752 220.421 21.752H219.049V23.558H220.463C220.855 23.558 221.177 23.488 221.429 23.348C221.69 23.1987 221.821 22.9513 221.821 22.606ZM221.625 19.526C221.625 19.2833 221.532 19.106 221.345 18.994C221.158 18.882 220.883 18.826 220.519 18.826H219.049V20.338H220.281C220.72 20.338 221.051 20.2773 221.275 20.156C221.508 20.0253 221.625 19.8153 221.625 19.526ZM232.712 21.164C232.712 21.7987 232.623 22.3633 232.446 22.858C232.278 23.3527 232.03 23.7727 231.704 24.118C231.386 24.454 230.999 24.7107 230.542 24.888C230.084 25.056 229.566 25.14 228.988 25.14C228.456 25.14 227.961 25.056 227.504 24.888C227.056 24.7107 226.668 24.454 226.342 24.118C226.015 23.7727 225.758 23.3527 225.572 22.858C225.394 22.3633 225.306 21.7987 225.306 21.164C225.306 20.3147 225.455 19.6007 225.754 19.022C226.052 18.434 226.482 17.986 227.042 17.678C227.602 17.37 228.264 17.216 229.03 17.216C229.748 17.216 230.383 17.37 230.934 17.678C231.484 17.986 231.918 18.434 232.236 19.022C232.553 19.6007 232.712 20.3147 232.712 21.164ZM227.434 21.164C227.434 21.668 227.485 22.0927 227.588 22.438C227.7 22.774 227.872 23.0307 228.106 23.208C228.339 23.376 228.642 23.46 229.016 23.46C229.389 23.46 229.688 23.376 229.912 23.208C230.145 23.0307 230.313 22.774 230.416 22.438C230.528 22.0927 230.584 21.668 230.584 21.164C230.584 20.66 230.528 20.24 230.416 19.904C230.313 19.568 230.145 19.316 229.912 19.148C229.678 18.98 229.375 18.896 229.002 18.896C228.451 18.896 228.05 19.0873 227.798 19.47C227.555 19.8433 227.434 20.408 227.434 21.164ZM241.282 25H239.196V18.924H237.278C237.184 20.044 237.068 21.0007 236.928 21.794C236.797 22.578 236.629 23.2173 236.424 23.712C236.228 24.2067 235.976 24.5707 235.668 24.804C235.36 25.028 234.982 25.14 234.534 25.14C234.291 25.14 234.072 25.1213 233.876 25.084C233.68 25.0467 233.502 24.9907 233.344 24.916V23.25C233.446 23.2873 233.554 23.32 233.666 23.348C233.778 23.376 233.894 23.39 234.016 23.39C234.146 23.39 234.268 23.3387 234.38 23.236C234.501 23.1333 234.613 22.9513 234.716 22.69C234.828 22.4287 234.93 22.0693 235.024 21.612C235.117 21.1547 235.201 20.5807 235.276 19.89C235.36 19.19 235.434 18.3453 235.5 17.356H241.282V25ZM245.545 17.356V25H243.459V17.356H245.545ZM244.509 14.36C244.817 14.36 245.083 14.4347 245.307 14.584C245.531 14.724 245.643 14.99 245.643 15.382C245.643 15.7647 245.531 16.0307 245.307 16.18C245.083 16.3293 244.817 16.404 244.509 16.404C244.192 16.404 243.921 16.3293 243.697 16.18C243.483 16.0307 243.375 15.7647 243.375 15.382C243.375 14.99 243.483 14.724 243.697 14.584C243.921 14.4347 244.192 14.36 244.509 14.36ZM254.501 19.358C254.501 19.7687 254.37 20.1187 254.109 20.408C253.857 20.6973 253.479 20.884 252.975 20.968V21.024C253.507 21.0893 253.931 21.2713 254.249 21.57C254.575 21.8687 254.739 22.2513 254.739 22.718C254.739 23.0447 254.673 23.348 254.543 23.628C254.421 23.908 254.225 24.1507 253.955 24.356C253.684 24.5613 253.334 24.72 252.905 24.832C252.485 24.944 251.971 25 251.365 25H247.725V17.356H251.365C251.962 17.356 252.494 17.4213 252.961 17.552C253.437 17.6733 253.81 17.8787 254.081 18.168C254.361 18.4573 254.501 18.854 254.501 19.358ZM252.583 22.606C252.583 22.3073 252.466 22.0927 252.233 21.962C251.999 21.822 251.649 21.752 251.183 21.752H249.811V23.558H251.225C251.617 23.558 251.939 23.488 252.191 23.348C252.452 23.1987 252.583 22.9513 252.583 22.606ZM252.387 19.526C252.387 19.2833 252.293 19.106 252.107 18.994C251.92 18.882 251.645 18.826 251.281 18.826H249.811V20.338H251.043C251.481 20.338 251.813 20.2773 252.037 20.156C252.27 20.0253 252.387 19.8153 252.387 19.526ZM258.546 22.942L256.908 26.876H255.648L256.558 22.942H258.546ZM270.196 19.358C270.196 19.7687 270.065 20.1187 269.804 20.408C269.552 20.6973 269.174 20.884 268.67 20.968V21.024C269.202 21.0893 269.627 21.2713 269.944 21.57C270.271 21.8687 270.434 22.2513 270.434 22.718C270.434 23.0447 270.369 23.348 270.238 23.628C270.117 23.908 269.921 24.1507 269.65 24.356C269.379 24.5613 269.029 24.72 268.6 24.832C268.18 24.944 267.667 25 267.06 25H263.42V17.356H267.06C267.657 17.356 268.189 17.4213 268.656 17.552C269.132 17.6733 269.505 17.8787 269.776 18.168C270.056 18.4573 270.196 18.854 270.196 19.358ZM268.278 22.606C268.278 22.3073 268.161 22.0927 267.928 21.962C267.695 21.822 267.345 21.752 266.878 21.752H265.506V23.558H266.92C267.312 23.558 267.634 23.488 267.886 23.348C268.147 23.1987 268.278 22.9513 268.278 22.606ZM268.082 19.526C268.082 19.2833 267.989 19.106 267.802 18.994C267.615 18.882 267.34 18.826 266.976 18.826H265.506V20.338H266.738C267.177 20.338 267.508 20.2773 267.732 20.156C267.965 20.0253 268.082 19.8153 268.082 19.526ZM277.237 17.356H279.533L276.509 21.024L279.799 25H277.433L274.311 21.122V25H272.225V17.356H274.311V21.066L277.237 17.356ZM287.739 25H285.653V18.924H283.735C283.641 20.044 283.525 21.0007 283.385 21.794C283.254 22.578 283.086 23.2173 282.881 23.712C282.685 24.2067 282.433 24.5707 282.125 24.804C281.817 25.028 281.439 25.14 280.991 25.14C280.748 25.14 280.529 25.1213 280.333 25.084C280.137 25.0467 279.959 24.9907 279.801 24.916V23.25C279.903 23.2873 280.011 23.32 280.123 23.348C280.235 23.376 280.351 23.39 280.473 23.39C280.603 23.39 280.725 23.3387 280.837 23.236C280.958 23.1333 281.07 22.9513 281.173 22.69C281.285 22.4287 281.387 22.0693 281.481 21.612C281.574 21.1547 281.658 20.5807 281.733 19.89C281.817 19.19 281.891 18.3453 281.957 17.356H287.739V25ZM300.472 21.164C300.472 22.0133 300.328 22.7367 300.038 23.334C299.749 23.922 299.334 24.37 298.792 24.678C298.26 24.986 297.626 25.14 296.888 25.14C296.263 25.14 295.698 25.0233 295.194 24.79C294.7 24.5473 294.294 24.1833 293.976 23.698C293.668 23.2127 293.468 22.5967 293.374 21.85H292.002V25H289.916V17.356H292.002V20.296H293.402C293.496 19.6333 293.696 19.0733 294.004 18.616C294.322 18.1587 294.728 17.8133 295.222 17.58C295.726 17.3373 296.296 17.216 296.93 17.216C297.621 17.216 298.232 17.37 298.764 17.678C299.296 17.986 299.712 18.434 300.01 19.022C300.318 19.6007 300.472 20.3147 300.472 21.164ZM295.474 21.164C295.474 21.668 295.521 22.0927 295.614 22.438C295.717 22.774 295.876 23.0307 296.09 23.208C296.305 23.376 296.58 23.46 296.916 23.46C297.252 23.46 297.523 23.376 297.728 23.208C297.943 23.0307 298.097 22.774 298.19 22.438C298.293 22.0927 298.344 21.668 298.344 21.164C298.344 20.66 298.293 20.24 298.19 19.904C298.097 19.568 297.943 19.316 297.728 19.148C297.523 18.98 297.248 18.896 296.902 18.896C296.566 18.896 296.291 18.98 296.076 19.148C295.871 19.316 295.717 19.568 295.614 19.904C295.521 20.24 295.474 20.66 295.474 21.164ZM303.891 20.156C303.891 20.4827 303.97 20.73 304.129 20.898C304.297 21.066 304.526 21.15 304.815 21.15C305.216 21.15 305.59 21.108 305.935 21.024C306.28 20.9307 306.626 20.8093 306.971 20.66V17.356H309.057V25H306.971V21.962C306.644 22.1393 306.271 22.3027 305.851 22.452C305.431 22.592 304.955 22.662 304.423 22.662C303.63 22.662 302.995 22.4567 302.519 22.046C302.043 21.6353 301.805 21.0193 301.805 20.198V17.356H303.891V20.156ZM314.38 17.202C315.407 17.202 316.191 17.426 316.732 17.874C317.283 18.3127 317.558 18.9893 317.558 19.904V25H316.102L315.696 23.964H315.64C315.426 24.2347 315.202 24.4587 314.968 24.636C314.744 24.8133 314.483 24.9393 314.184 25.014C313.895 25.098 313.536 25.14 313.106 25.14C312.658 25.14 312.252 25.056 311.888 24.888C311.534 24.7107 311.254 24.4447 311.048 24.09C310.843 23.726 310.74 23.2687 310.74 22.718C310.74 21.906 311.025 21.3087 311.594 20.926C312.164 20.534 313.018 20.3193 314.156 20.282L315.486 20.24V19.904C315.486 19.5027 315.379 19.2087 315.164 19.022C314.959 18.8353 314.67 18.742 314.296 18.742C313.923 18.742 313.559 18.798 313.204 18.91C312.85 19.0127 312.495 19.1433 312.14 19.302L311.454 17.888C311.865 17.6733 312.318 17.5053 312.812 17.384C313.316 17.2627 313.839 17.202 314.38 17.202ZM314.674 21.486C314.002 21.5047 313.536 21.626 313.274 21.85C313.013 22.074 312.882 22.368 312.882 22.732C312.882 23.0493 312.976 23.278 313.162 23.418C313.349 23.5487 313.592 23.614 313.89 23.614C314.338 23.614 314.716 23.4833 315.024 23.222C315.332 22.9513 315.486 22.5733 315.486 22.088V21.458L314.674 21.486ZM330.25 21.164C330.25 22.0133 330.105 22.7367 329.816 23.334C329.526 23.922 329.111 24.37 328.57 24.678C328.038 24.986 327.403 25.14 326.666 25.14C326.04 25.14 325.476 25.0233 324.972 24.79C324.477 24.5473 324.071 24.1833 323.754 23.698C323.446 23.2127 323.245 22.5967 323.152 21.85H321.78V25H319.694V17.356H321.78V20.296H323.18C323.273 19.6333 323.474 19.0733 323.782 18.616C324.099 18.1587 324.505 17.8133 325 17.58C325.504 17.3373 326.073 17.216 326.708 17.216C327.398 17.216 328.01 17.37 328.542 17.678C329.074 17.986 329.489 18.434 329.788 19.022C330.096 19.6007 330.25 20.3147 330.25 21.164ZM325.252 21.164C325.252 21.668 325.298 22.0927 325.392 22.438C325.494 22.774 325.653 23.0307 325.868 23.208C326.082 23.376 326.358 23.46 326.694 23.46C327.03 23.46 327.3 23.376 327.506 23.208C327.72 23.0307 327.874 22.774 327.968 22.438C328.07 22.0927 328.122 21.668 328.122 21.164C328.122 20.66 328.07 20.24 327.968 19.904C327.874 19.568 327.72 19.316 327.506 19.148C327.3 18.98 327.025 18.896 326.68 18.896C326.344 18.896 326.068 18.98 325.854 19.148C325.648 19.316 325.494 19.568 325.392 19.904C325.298 20.24 325.252 20.66 325.252 21.164ZM333.668 20.156C333.668 20.4827 333.748 20.73 333.906 20.898C334.074 21.066 334.303 21.15 334.592 21.15C334.994 21.15 335.367 21.108 335.712 21.024C336.058 20.9307 336.403 20.8093 336.748 20.66V17.356H338.834V25H336.748V21.962C336.422 22.1393 336.048 22.3027 335.628 22.452C335.208 22.592 334.732 22.662 334.2 22.662C333.407 22.662 332.772 22.4567 332.296 22.046C331.82 21.6353 331.582 21.0193 331.582 20.198V17.356H333.668V20.156ZM343.038 20.38C343.038 20.5387 343.028 20.7347 343.01 20.968C343 21.2013 342.986 21.4393 342.968 21.682C342.958 21.9247 342.944 22.1393 342.926 22.326C342.907 22.5127 342.893 22.6433 342.884 22.718L346.412 17.356H348.918V25H346.902V21.948C346.902 21.696 346.911 21.4207 346.93 21.122C346.948 20.814 346.967 20.5293 346.986 20.268C347.014 19.9973 347.032 19.792 347.042 19.652L343.528 25H341.022V17.356H343.038V20.38ZM16.2619 41.156C16.2619 41.4827 16.3413 41.73 16.4999 41.898C16.6679 42.066 16.8966 42.15 17.1859 42.15C17.5873 42.15 17.9606 42.108 18.3059 42.024C18.6513 41.9307 18.9966 41.8093 19.3419 41.66V38.356H21.4279V46H19.3419V42.962C19.0153 43.1393 18.6419 43.3027 18.2219 43.452C17.8019 43.592 17.3259 43.662 16.7939 43.662C16.0006 43.662 15.3659 43.4567 14.8899 43.046C14.4139 42.6353 14.1759 42.0193 14.1759 41.198V38.356H16.2619V41.156ZM25.6314 41.38C25.6314 41.5387 25.6221 41.7347 25.6034 41.968C25.5941 42.2013 25.5801 42.4393 25.5614 42.682C25.5521 42.9247 25.5381 43.1393 25.5194 43.326C25.5008 43.5127 25.4868 43.6433 25.4774 43.718L29.0054 38.356H31.5114V46H29.4954V42.948C29.4954 42.696 29.5048 42.4207 29.5234 42.122C29.5421 41.814 29.5608 41.5293 29.5794 41.268C29.6074 40.9973 29.6261 40.792 29.6354 40.652L26.1214 46H23.6154V38.356H25.6314V41.38ZM36.7996 46.14C36.0436 46.14 35.3996 46.0047 34.8676 45.734C34.3356 45.454 33.9296 45.0247 33.6496 44.446C33.3696 43.8673 33.2296 43.1253 33.2296 42.22C33.2296 41.2867 33.3883 40.526 33.7056 39.938C34.0229 39.35 34.4616 38.916 35.0216 38.636C35.5909 38.356 36.2443 38.216 36.9816 38.216C37.5043 38.216 37.9569 38.2673 38.3396 38.37C38.7316 38.4727 39.0723 38.594 39.3616 38.734L38.7456 40.344C38.4189 40.2133 38.1109 40.106 37.8216 40.022C37.5416 39.938 37.2616 39.896 36.9816 39.896C36.6176 39.896 36.3143 39.9847 36.0716 40.162C35.8289 40.33 35.6469 40.5867 35.5256 40.932C35.4136 41.268 35.3576 41.6927 35.3576 42.206C35.3576 42.71 35.4183 43.13 35.5396 43.466C35.6703 43.7927 35.8569 44.04 36.0996 44.208C36.3423 44.3667 36.6363 44.446 36.9816 44.446C37.4203 44.446 37.8076 44.39 38.1436 44.278C38.4796 44.1567 38.8063 43.9933 39.1236 43.788V45.566C38.8063 45.7713 38.4703 45.916 38.1156 46C37.7703 46.0933 37.3316 46.14 36.7996 46.14ZM47.729 46H45.643V39.924H43.725C43.6317 41.044 43.515 42.0007 43.375 42.794C43.2443 43.578 43.0763 44.2173 42.871 44.712C42.675 45.2067 42.423 45.5707 42.115 45.804C41.807 46.028 41.429 46.14 40.981 46.14C40.7383 46.14 40.519 46.1213 40.323 46.084C40.127 46.0467 39.9497 45.9907 39.791 45.916V44.25C39.8937 44.2873 40.001 44.32 40.113 44.348C40.225 44.376 40.3417 44.39 40.463 44.39C40.5937 44.39 40.715 44.3387 40.827 44.236C40.9483 44.1333 41.0603 43.9513 41.163 43.69C41.275 43.4287 41.3777 43.0693 41.471 42.612C41.5643 42.1547 41.6483 41.5807 41.723 40.89C41.807 40.19 41.8817 39.3453 41.947 38.356H47.729V46ZM53.0425 38.202C54.0691 38.202 54.8531 38.426 55.3945 38.874C55.9451 39.3127 56.2205 39.9893 56.2205 40.904V46H54.7645L54.3585 44.964H54.3025C54.0878 45.2347 53.8638 45.4587 53.6305 45.636C53.4065 45.8133 53.1451 45.9393 52.8465 46.014C52.5571 46.098 52.1978 46.14 51.7685 46.14C51.3205 46.14 50.9145 46.056 50.5505 45.888C50.1958 45.7107 49.9158 45.4447 49.7105 45.09C49.5051 44.726 49.4025 44.2687 49.4025 43.718C49.4025 42.906 49.6871 42.3087 50.2565 41.926C50.8258 41.534 51.6798 41.3193 52.8185 41.282L54.1485 41.24V40.904C54.1485 40.5027 54.0411 40.2087 53.8265 40.022C53.6211 39.8353 53.3318 39.742 52.9585 39.742C52.5851 39.742 52.2211 39.798 51.8665 39.91C51.5118 40.0127 51.1571 40.1433 50.8025 40.302L50.1165 38.888C50.5271 38.6733 50.9798 38.5053 51.4745 38.384C51.9785 38.2627 52.5011 38.202 53.0425 38.202ZM53.3365 42.486C52.6645 42.5047 52.1978 42.626 51.9365 42.85C51.6751 43.074 51.5445 43.368 51.5445 43.732C51.5445 44.0493 51.6378 44.278 51.8245 44.418C52.0111 44.5487 52.2538 44.614 52.5525 44.614C53.0005 44.614 53.3785 44.4833 53.6865 44.222C53.9945 43.9513 54.1485 43.5733 54.1485 43.088V42.458L53.3365 42.486ZM60.3717 43.942L58.7337 47.876H57.4737L58.3837 43.942H60.3717ZM72.0923 46H70.0063V39.924H68.0883C67.995 41.044 67.8783 42.0007 67.7383 42.794C67.6076 43.578 67.4396 44.2173 67.2343 44.712C67.0383 45.2067 66.7863 45.5707 66.4783 45.804C66.1703 46.028 65.7923 46.14 65.3443 46.14C65.1016 46.14 64.8823 46.1213 64.6863 46.084C64.4903 46.0467 64.313 45.9907 64.1543 45.916V44.25C64.257 44.2873 64.3643 44.32 64.4763 44.348C64.5883 44.376 64.705 44.39 64.8263 44.39C64.957 44.39 65.0783 44.3387 65.1903 44.236C65.3116 44.1333 65.4236 43.9513 65.5263 43.69C65.6383 43.4287 65.741 43.0693 65.8343 42.612C65.9276 42.1547 66.0116 41.5807 66.0863 40.89C66.1703 40.19 66.245 39.3453 66.3103 38.356H72.0923V46ZM76.3557 38.356V46H74.2697V38.356H76.3557ZM75.3197 35.36C75.6277 35.36 75.8937 35.4347 76.1177 35.584C76.3417 35.724 76.4537 35.99 76.4537 36.382C76.4537 36.7647 76.3417 37.0307 76.1177 37.18C75.8937 37.3293 75.6277 37.404 75.3197 37.404C75.0024 37.404 74.7317 37.3293 74.5077 37.18C74.2931 37.0307 74.1857 36.7647 74.1857 36.382C74.1857 35.99 74.2931 35.724 74.5077 35.584C74.7317 35.4347 75.0024 35.36 75.3197 35.36ZM84.8634 39.924H82.3574V46H80.2714V39.924H77.7654V38.356H84.8634V39.924ZM89.2869 38.216C89.9963 38.216 90.6029 38.3513 91.1069 38.622C91.6203 38.8927 92.0169 39.2847 92.2969 39.798C92.5769 40.3113 92.7169 40.9413 92.7169 41.688V42.696H87.7889C87.8076 43.284 87.9803 43.746 88.3069 44.082C88.6429 44.418 89.1049 44.586 89.6929 44.586C90.1876 44.586 90.6356 44.5393 91.0369 44.446C91.4383 44.3433 91.8536 44.1893 92.2829 43.984V45.594C91.9096 45.7807 91.5129 45.916 91.0929 46C90.6823 46.0933 90.1829 46.14 89.5949 46.14C88.8296 46.14 88.1529 46 87.5649 45.72C86.9769 45.4307 86.5149 44.9967 86.1789 44.418C85.8429 43.8393 85.6749 43.1113 85.6749 42.234C85.6749 41.338 85.8243 40.596 86.1229 40.008C86.4309 39.4107 86.8556 38.9627 87.3969 38.664C87.9383 38.3653 88.5683 38.216 89.2869 38.216ZM89.3009 39.7C88.8996 39.7 88.5636 39.8307 88.2929 40.092C88.0316 40.3533 87.8776 40.7593 87.8309 41.31H90.7569C90.7569 41.002 90.7009 40.7267 90.5889 40.484C90.4863 40.2413 90.3276 40.05 90.1129 39.91C89.8983 39.77 89.6276 39.7 89.3009 39.7ZM98.6644 38.216C99.5231 38.216 100.218 38.552 100.75 39.224C101.282 39.8867 101.548 40.8667 101.548 42.164C101.548 43.032 101.422 43.7647 101.17 44.362C100.918 44.95 100.573 45.3933 100.134 45.692C99.6957 45.9907 99.1871 46.14 98.6084 46.14C98.2444 46.14 97.9271 46.0933 97.6564 46C97.3951 45.9067 97.1711 45.7853 96.9844 45.636C96.7977 45.4867 96.6344 45.328 96.4944 45.16H96.3824C96.4197 45.3373 96.4477 45.524 96.4664 45.72C96.4851 45.9067 96.4944 46.0933 96.4944 46.28V49.36H94.4084V38.356H96.1024L96.3964 39.35H96.4944C96.6344 39.1447 96.8024 38.958 96.9984 38.79C97.1944 38.6127 97.4277 38.4727 97.6984 38.37C97.9784 38.2673 98.3004 38.216 98.6644 38.216ZM97.9924 39.882C97.6284 39.882 97.3391 39.9567 97.1244 40.106C96.9097 40.2553 96.7511 40.484 96.6484 40.792C96.5551 41.0907 96.5037 41.4687 96.4944 41.926V42.15C96.4944 42.6447 96.5411 43.0647 96.6344 43.41C96.7277 43.746 96.8864 44.0027 97.1104 44.18C97.3344 44.3573 97.6377 44.446 98.0204 44.446C98.3377 44.446 98.5991 44.3573 98.8044 44.18C99.0097 44.0027 99.1637 43.7413 99.2664 43.396C99.3691 43.0507 99.4204 42.6307 99.4204 42.136C99.4204 41.3893 99.3037 40.8293 99.0704 40.456C98.8464 40.0733 98.4871 39.882 97.9924 39.882ZM105.284 41.38C105.284 41.5387 105.274 41.7347 105.256 41.968C105.246 42.2013 105.232 42.4393 105.214 42.682C105.204 42.9247 105.19 43.1393 105.172 43.326C105.153 43.5127 105.139 43.6433 105.13 43.718L108.658 38.356H111.164V46H109.148V42.948C109.148 42.696 109.157 42.4207 109.176 42.122C109.194 41.814 109.213 41.5293 109.232 41.268C109.26 40.9973 109.278 40.792 109.288 40.652L105.774 46H103.268V38.356H105.284V41.38ZM123.008 39.924H120.502V46H118.416V39.924H115.91V38.356H123.008V39.924ZM127.554 38.202C128.581 38.202 129.365 38.426 129.906 38.874C130.457 39.3127 130.732 39.9893 130.732 40.904V46H129.276L128.87 44.964H128.814C128.6 45.2347 128.376 45.4587 128.142 45.636C127.918 45.8133 127.657 45.9393 127.358 46.014C127.069 46.098 126.71 46.14 126.28 46.14C125.832 46.14 125.426 46.056 125.062 45.888C124.708 45.7107 124.428 45.4447 124.222 45.09C124.017 44.726 123.914 44.2687 123.914 43.718C123.914 42.906 124.199 42.3087 124.768 41.926C125.338 41.534 126.192 41.3193 127.33 41.282L128.66 41.24V40.904C128.66 40.5027 128.553 40.2087 128.338 40.022C128.133 39.8353 127.844 39.742 127.47 39.742C127.097 39.742 126.733 39.798 126.378 39.91C126.024 40.0127 125.669 40.1433 125.314 40.302L124.628 38.888C125.039 38.6733 125.492 38.5053 125.986 38.384C126.49 38.2627 127.013 38.202 127.554 38.202ZM127.848 42.486C127.176 42.5047 126.71 42.626 126.448 42.85C126.187 43.074 126.056 43.368 126.056 43.732C126.056 44.0493 126.15 44.278 126.336 44.418C126.523 44.5487 126.766 44.614 127.064 44.614C127.512 44.614 127.89 44.4833 128.198 44.222C128.506 43.9513 128.66 43.5733 128.66 43.088V42.458L127.848 42.486ZM140.459 38.216C141.318 38.216 142.013 38.552 142.545 39.224C143.077 39.8867 143.343 40.8667 143.343 42.164C143.343 43.032 143.217 43.7647 142.965 44.362C142.713 44.95 142.368 45.3933 141.929 45.692C141.491 45.9907 140.982 46.14 140.403 46.14C140.039 46.14 139.722 46.0933 139.451 46C139.19 45.9067 138.966 45.7853 138.779 45.636C138.593 45.4867 138.429 45.328 138.289 45.16H138.177C138.215 45.3373 138.243 45.524 138.261 45.72C138.28 45.9067 138.289 46.0933 138.289 46.28V49.36H136.203V38.356H137.897L138.191 39.35H138.289C138.429 39.1447 138.597 38.958 138.793 38.79C138.989 38.6127 139.223 38.4727 139.493 38.37C139.773 38.2673 140.095 38.216 140.459 38.216ZM139.787 39.882C139.423 39.882 139.134 39.9567 138.919 40.106C138.705 40.2553 138.546 40.484 138.443 40.792C138.35 41.0907 138.299 41.4687 138.289 41.926V42.15C138.289 42.6447 138.336 43.0647 138.429 43.41C138.523 43.746 138.681 44.0027 138.905 44.18C139.129 44.3573 139.433 44.446 139.815 44.446C140.133 44.446 140.394 44.3573 140.599 44.18C140.805 44.0027 140.959 43.7413 141.061 43.396C141.164 43.0507 141.215 42.6307 141.215 42.136C141.215 41.3893 141.099 40.8293 140.865 40.456C140.641 40.0733 140.282 39.882 139.787 39.882ZM152.007 42.164C152.007 42.7987 151.918 43.3633 151.741 43.858C151.573 44.3527 151.325 44.7727 150.999 45.118C150.681 45.454 150.294 45.7107 149.837 45.888C149.379 46.056 148.861 46.14 148.283 46.14C147.751 46.14 147.256 46.056 146.799 45.888C146.351 45.7107 145.963 45.454 145.637 45.118C145.31 44.7727 145.053 44.3527 144.867 43.858C144.689 43.3633 144.601 42.7987 144.601 42.164C144.601 41.3147 144.75 40.6007 145.049 40.022C145.347 39.434 145.777 38.986 146.337 38.678C146.897 38.37 147.559 38.216 148.325 38.216C149.043 38.216 149.678 38.37 150.229 38.678C150.779 38.986 151.213 39.434 151.531 40.022C151.848 40.6007 152.007 41.3147 152.007 42.164ZM146.729 42.164C146.729 42.668 146.78 43.0927 146.883 43.438C146.995 43.774 147.167 44.0307 147.401 44.208C147.634 44.376 147.937 44.46 148.311 44.46C148.684 44.46 148.983 44.376 149.207 44.208C149.44 44.0307 149.608 43.774 149.711 43.438C149.823 43.0927 149.879 42.668 149.879 42.164C149.879 41.66 149.823 41.24 149.711 40.904C149.608 40.568 149.44 40.316 149.207 40.148C148.973 39.98 148.67 39.896 148.297 39.896C147.746 39.896 147.345 40.0873 147.093 40.47C146.85 40.8433 146.729 41.408 146.729 42.164ZM156.517 38.216C157.067 38.216 157.581 38.2907 158.057 38.44C158.542 38.58 158.929 38.7993 159.219 39.098C159.517 39.3967 159.667 39.7793 159.667 40.246C159.667 40.7033 159.527 41.0673 159.247 41.338C158.976 41.6087 158.607 41.8047 158.141 41.926V41.996C158.467 42.0707 158.761 42.178 159.023 42.318C159.284 42.4487 159.489 42.6307 159.639 42.864C159.797 43.088 159.877 43.3913 159.877 43.774C159.877 44.194 159.741 44.586 159.471 44.95C159.209 45.3047 158.799 45.594 158.239 45.818C157.688 46.0327 156.979 46.14 156.111 46.14C155.7 46.14 155.313 46.1213 154.949 46.084C154.585 46.0467 154.253 45.9953 153.955 45.93C153.656 45.8553 153.395 45.7667 153.171 45.664V43.942C153.488 44.0913 153.875 44.2267 154.333 44.348C154.799 44.4693 155.294 44.53 155.817 44.53C156.199 44.53 156.54 44.502 156.839 44.446C157.147 44.39 157.389 44.2967 157.567 44.166C157.753 44.0353 157.847 43.8627 157.847 43.648C157.847 43.4427 157.767 43.2747 157.609 43.144C157.45 43.004 157.212 42.9013 156.895 42.836C156.577 42.7707 156.171 42.738 155.677 42.738H154.865V41.296H155.635C156.325 41.296 156.857 41.24 157.231 41.128C157.613 41.016 157.805 40.806 157.805 40.498C157.805 40.2553 157.683 40.0733 157.441 39.952C157.198 39.8213 156.801 39.756 156.251 39.756C155.887 39.756 155.49 39.798 155.061 39.882C154.631 39.966 154.225 40.0873 153.843 40.246L153.227 38.79C153.665 38.622 154.146 38.4867 154.669 38.384C155.191 38.272 155.807 38.216 156.517 38.216ZM168.37 38.356V44.474H169.49V48.744H167.614V46H162.476V48.744H160.6V44.474H161.244C161.58 43.9607 161.865 43.3773 162.098 42.724C162.332 42.0613 162.518 41.3567 162.658 40.61C162.798 39.8633 162.901 39.112 162.966 38.356H168.37ZM164.716 39.924C164.642 40.484 164.548 41.03 164.436 41.562C164.324 42.0847 164.184 42.5887 164.016 43.074C163.858 43.5593 163.662 44.026 163.428 44.474H166.284V39.924H164.716ZM172.879 38.356V46H170.793V38.356H172.879ZM171.843 35.36C172.151 35.36 172.417 35.4347 172.641 35.584C172.865 35.724 172.977 35.99 172.977 36.382C172.977 36.7647 172.865 37.0307 172.641 37.18C172.417 37.3293 172.151 37.404 171.843 37.404C171.526 37.404 171.255 37.3293 171.031 37.18C170.817 37.0307 170.709 36.7647 170.709 36.382C170.709 35.99 170.817 35.724 171.031 35.584C171.255 35.4347 171.526 35.36 171.843 35.36ZM181.905 46H179.819V39.924H177.901C177.807 41.044 177.691 42.0007 177.551 42.794C177.42 43.578 177.252 44.2173 177.047 44.712C176.851 45.2067 176.599 45.5707 176.291 45.804C175.983 46.028 175.605 46.14 175.157 46.14C174.914 46.14 174.695 46.1213 174.499 46.084C174.303 46.0467 174.125 45.9907 173.967 45.916V44.25C174.069 44.2873 174.177 44.32 174.289 44.348C174.401 44.376 174.517 44.39 174.639 44.39C174.769 44.39 174.891 44.3387 175.003 44.236C175.124 44.1333 175.236 43.9513 175.339 43.69C175.451 43.4287 175.553 43.0693 175.647 42.612C175.74 42.1547 175.824 41.5807 175.899 40.89C175.983 40.19 176.057 39.3453 176.123 38.356H181.905V46ZM191.026 42.164C191.026 42.7987 190.938 43.3633 190.76 43.858C190.592 44.3527 190.345 44.7727 190.018 45.118C189.701 45.454 189.314 45.7107 188.856 45.888C188.399 46.056 187.881 46.14 187.302 46.14C186.77 46.14 186.276 46.056 185.818 45.888C185.37 45.7107 184.983 45.454 184.656 45.118C184.33 44.7727 184.073 44.3527 183.886 43.858C183.709 43.3633 183.62 42.7987 183.62 42.164C183.62 41.3147 183.77 40.6007 184.068 40.022C184.367 39.434 184.796 38.986 185.356 38.678C185.916 38.37 186.579 38.216 187.344 38.216C188.063 38.216 188.698 38.37 189.248 38.678C189.799 38.986 190.233 39.434 190.55 40.022C190.868 40.6007 191.026 41.3147 191.026 42.164ZM185.748 42.164C185.748 42.668 185.8 43.0927 185.902 43.438C186.014 43.774 186.187 44.0307 186.42 44.208C186.654 44.376 186.957 44.46 187.33 44.46C187.704 44.46 188.002 44.376 188.226 44.208C188.46 44.0307 188.628 43.774 188.73 43.438C188.842 43.0927 188.898 42.668 188.898 42.164C188.898 41.66 188.842 41.24 188.73 40.904C188.628 40.568 188.46 40.316 188.226 40.148C187.993 39.98 187.69 39.896 187.316 39.896C186.766 39.896 186.364 40.0873 186.112 40.47C185.87 40.8433 185.748 41.408 185.748 42.164ZM199.526 40.358C199.526 40.7687 199.396 41.1187 199.134 41.408C198.882 41.6973 198.504 41.884 198 41.968V42.024C198.532 42.0893 198.957 42.2713 199.274 42.57C199.601 42.8687 199.764 43.2513 199.764 43.718C199.764 44.0447 199.699 44.348 199.568 44.628C199.447 44.908 199.251 45.1507 198.98 45.356C198.71 45.5613 198.36 45.72 197.93 45.832C197.51 45.944 196.997 46 196.39 46H192.75V38.356H196.39C196.988 38.356 197.52 38.4213 197.986 38.552C198.462 38.6733 198.836 38.8787 199.106 39.168C199.386 39.4573 199.526 39.854 199.526 40.358ZM197.608 43.606C197.608 43.3073 197.492 43.0927 197.258 42.962C197.025 42.822 196.675 42.752 196.208 42.752H194.836V44.558H196.25C196.642 44.558 196.964 44.488 197.216 44.348C197.478 44.1987 197.608 43.9513 197.608 43.606ZM197.412 40.526C197.412 40.2833 197.319 40.106 197.132 39.994C196.946 39.882 196.67 39.826 196.306 39.826H194.836V41.338H196.068C196.507 41.338 196.838 41.2773 197.062 41.156C197.296 41.0253 197.412 40.8153 197.412 40.526ZM203.641 38.356V46H201.555V38.356H203.641ZM202.605 35.36C202.913 35.36 203.179 35.4347 203.403 35.584C203.627 35.724 203.739 35.99 203.739 36.382C203.739 36.7647 203.627 37.0307 203.403 37.18C203.179 37.3293 202.913 37.404 202.605 37.404C202.288 37.404 202.017 37.3293 201.793 37.18C201.578 37.0307 201.471 36.7647 201.471 36.382C201.471 35.99 201.578 35.724 201.793 35.584C202.017 35.4347 202.288 35.36 202.605 35.36ZM211.942 38.216C212.493 38.216 213.006 38.2907 213.482 38.44C213.968 38.58 214.355 38.7993 214.644 39.098C214.943 39.3967 215.092 39.7793 215.092 40.246C215.092 40.7033 214.952 41.0673 214.672 41.338C214.402 41.6087 214.033 41.8047 213.566 41.926V41.996C213.893 42.0707 214.187 42.178 214.448 42.318C214.71 42.4487 214.915 42.6307 215.064 42.864C215.223 43.088 215.302 43.3913 215.302 43.774C215.302 44.194 215.167 44.586 214.896 44.95C214.635 45.3047 214.224 45.594 213.664 45.818C213.114 46.0327 212.404 46.14 211.536 46.14C211.126 46.14 210.738 46.1213 210.374 46.084C210.01 46.0467 209.679 45.9953 209.38 45.93C209.082 45.8553 208.82 45.7667 208.596 45.664V43.942C208.914 44.0913 209.301 44.2267 209.758 44.348C210.225 44.4693 210.72 44.53 211.242 44.53C211.625 44.53 211.966 44.502 212.264 44.446C212.572 44.39 212.815 44.2967 212.992 44.166C213.179 44.0353 213.272 43.8627 213.272 43.648C213.272 43.4427 213.193 43.2747 213.034 43.144C212.876 43.004 212.638 42.9013 212.32 42.836C212.003 42.7707 211.597 42.738 211.102 42.738H210.29V41.296H211.06C211.751 41.296 212.283 41.24 212.656 41.128C213.039 41.016 213.23 40.806 213.23 40.498C213.23 40.2553 213.109 40.0733 212.866 39.952C212.624 39.8213 212.227 39.756 211.676 39.756C211.312 39.756 210.916 39.798 210.486 39.882C210.057 39.966 209.651 40.0873 209.268 40.246L208.652 38.79C209.091 38.622 209.572 38.4867 210.094 38.384C210.617 38.272 211.233 38.216 211.942 38.216ZM219.008 38.356V41.296H221.92V38.356H224.006V46H221.92V42.85H219.008V46H216.922V38.356H219.008ZM229.328 38.202C230.354 38.202 231.138 38.426 231.68 38.874C232.23 39.3127 232.506 39.9893 232.506 40.904V46H231.05L230.644 44.964H230.588C230.373 45.2347 230.149 45.4587 229.916 45.636C229.692 45.8133 229.43 45.9393 229.132 46.014C228.842 46.098 228.483 46.14 228.054 46.14C227.606 46.14 227.2 46.056 226.836 45.888C226.481 45.7107 226.201 45.4447 225.996 45.09C225.79 44.726 225.688 44.2687 225.688 43.718C225.688 42.906 225.972 42.3087 226.542 41.926C227.111 41.534 227.965 41.3193 229.104 41.282L230.434 41.24V40.904C230.434 40.5027 230.326 40.2087 230.112 40.022C229.906 39.8353 229.617 39.742 229.244 39.742C228.87 39.742 228.506 39.798 228.152 39.91C227.797 40.0127 227.442 40.1433 227.088 40.302L226.402 38.888C226.812 38.6733 227.265 38.5053 227.76 38.384C228.264 38.2627 228.786 38.202 229.328 38.202ZM229.622 42.486C228.95 42.5047 228.483 42.626 228.222 42.85C227.96 43.074 227.83 43.368 227.83 43.732C227.83 44.0493 227.923 44.278 228.11 44.418C228.296 44.5487 228.539 44.614 228.838 44.614C229.286 44.614 229.664 44.4833 229.972 44.222C230.28 43.9513 230.434 43.5733 230.434 43.088V42.458L229.622 42.486ZM239.653 38.356H241.949L238.925 42.024L242.215 46H239.849L236.727 42.122V46H234.641V38.356H236.727V42.066L239.653 38.356ZM245.325 41.38C245.325 41.5387 245.315 41.7347 245.297 41.968C245.287 42.2013 245.273 42.4393 245.255 42.682C245.245 42.9247 245.231 43.1393 245.213 43.326C245.194 43.5127 245.18 43.6433 245.171 43.718L248.699 38.356H251.205V46H249.189V42.948C249.189 42.696 249.198 42.4207 249.217 42.122C249.235 41.814 249.254 41.5293 249.273 41.268C249.301 40.9973 249.319 40.792 249.329 40.652L245.815 46H243.309V38.356H245.325V41.38ZM259.983 48.758C259.078 47.8807 258.373 46.7607 257.869 45.398C257.374 44.0353 257.127 42.5747 257.127 41.016C257.127 39.42 257.388 37.922 257.911 36.522C258.434 35.1127 259.194 33.96 260.193 33.064H262.167V33.246C261.14 34.226 260.356 35.402 259.815 36.774C259.283 38.146 259.017 39.56 259.017 41.016C259.017 42.4347 259.269 43.8067 259.773 45.132C260.286 46.448 261.014 47.5913 261.957 48.562V48.758H259.983ZM270.852 36.816C271.934 36.816 272.872 37.0167 273.666 37.418C274.459 37.8193 275.066 38.384 275.486 39.112C275.915 39.84 276.13 40.68 276.13 41.632C276.13 42.3973 275.994 43.1207 275.724 43.802C275.462 44.4833 275.08 45.034 274.576 45.454C274.072 45.874 273.474 46.084 272.784 46.084C272.298 46.084 271.906 45.986 271.608 45.79C271.309 45.5847 271.118 45.2953 271.034 44.922C270.763 45.286 270.413 45.5753 269.984 45.79C269.554 45.9953 269.102 46.098 268.626 46.098C267.916 46.098 267.361 45.888 266.96 45.468C266.558 45.0387 266.358 44.4553 266.358 43.718C266.358 43.018 266.502 42.3647 266.792 41.758C267.081 41.1513 267.482 40.666 267.996 40.302C268.509 39.9287 269.088 39.742 269.732 39.742C270.534 39.742 271.085 40.022 271.384 40.582L271.51 39.854H273.148L272.49 43.634C272.462 43.8113 272.448 43.9747 272.448 44.124C272.448 44.348 272.494 44.516 272.588 44.628C272.681 44.74 272.84 44.796 273.064 44.796C273.4 44.796 273.68 44.6373 273.904 44.32C274.137 44.0027 274.31 43.606 274.422 43.13C274.543 42.654 274.604 42.178 274.604 41.702C274.604 40.5727 274.258 39.7 273.568 39.084C272.877 38.4587 271.902 38.146 270.642 38.146C269.568 38.146 268.598 38.4073 267.73 38.93C266.862 39.4433 266.18 40.148 265.686 41.044C265.2 41.9307 264.958 42.92 264.958 44.012C264.958 45.1693 265.298 46.0607 265.98 46.686C266.67 47.3113 267.646 47.624 268.906 47.624C269.811 47.624 270.609 47.4607 271.3 47.134L271.58 48.422C270.693 48.7953 269.708 48.982 268.626 48.982C267.58 48.982 266.666 48.7813 265.882 48.38C265.098 47.988 264.491 47.428 264.062 46.7C263.632 45.972 263.418 45.1273 263.418 44.166C263.418 42.794 263.735 41.548 264.37 40.428C265.014 39.308 265.9 38.426 267.03 37.782C268.168 37.138 269.442 36.816 270.852 36.816ZM269.242 44.642C269.578 44.642 269.886 44.544 270.166 44.348C270.446 44.152 270.665 43.8907 270.824 43.564C270.992 43.2373 271.076 42.8873 271.076 42.514C271.076 42.122 270.968 41.8047 270.754 41.562C270.539 41.3193 270.24 41.198 269.858 41.198C269.512 41.198 269.209 41.3053 268.948 41.52C268.686 41.7253 268.481 41.996 268.332 42.332C268.192 42.668 268.122 43.0227 268.122 43.396C268.122 43.7787 268.215 44.082 268.402 44.306C268.588 44.53 268.868 44.642 269.242 44.642ZM280.243 43.942L278.605 47.876H277.345L278.255 43.942H280.243ZM291.963 43.186C291.963 43.6713 291.837 44.1287 291.585 44.558C291.343 44.978 290.979 45.328 290.493 45.608C290.017 45.8787 289.453 46.0373 288.799 46.084V47.218H287.903V46.07C286.97 45.986 286.219 45.706 285.649 45.23C285.08 44.7447 284.786 44.0913 284.767 43.27H286.867C286.923 43.942 287.269 44.348 287.903 44.488V41.814C287.231 41.646 286.69 41.478 286.279 41.31C285.869 41.142 285.514 40.8713 285.215 40.498C284.917 40.1247 284.767 39.616 284.767 38.972C284.767 38.16 285.057 37.4973 285.635 36.984C286.223 36.4707 286.979 36.1767 287.903 36.102V34.968H288.799V36.102C289.695 36.1767 290.409 36.4473 290.941 36.914C291.483 37.3807 291.786 38.0247 291.851 38.846H289.737C289.709 38.5753 289.611 38.342 289.443 38.146C289.285 37.9407 289.07 37.796 288.799 37.712V40.358C289.499 40.5353 290.05 40.708 290.451 40.876C290.862 41.0347 291.217 41.3007 291.515 41.674C291.814 42.038 291.963 42.542 291.963 43.186ZM286.811 38.874C286.811 39.182 286.905 39.434 287.091 39.63C287.278 39.8167 287.549 39.9707 287.903 40.092V37.67C287.567 37.7167 287.301 37.8427 287.105 38.048C286.909 38.2533 286.811 38.5287 286.811 38.874ZM288.799 44.516C289.154 44.4507 289.429 44.306 289.625 44.082C289.831 43.858 289.933 43.5873 289.933 43.27C289.933 42.962 289.835 42.7147 289.639 42.528C289.443 42.3413 289.163 42.1873 288.799 42.066V44.516ZM296.294 43.942L294.656 47.876H293.396L294.306 43.942H296.294ZM303.576 36.06L303.352 42.822H301.7L301.462 36.06H303.576ZM302.568 46.098C302.214 46.098 301.92 45.9907 301.686 45.776C301.462 45.552 301.35 45.2767 301.35 44.95C301.35 44.6233 301.462 44.3527 301.686 44.138C301.92 43.914 302.214 43.802 302.568 43.802C302.914 43.802 303.198 43.914 303.422 44.138C303.646 44.3527 303.758 44.6233 303.758 44.95C303.758 45.2767 303.646 45.552 303.422 45.776C303.198 45.9907 302.914 46.098 302.568 46.098ZM308.133 43.942L306.495 47.876H305.235L306.145 43.942H308.133ZM317.502 36.396L318.202 37.656L316.382 38.314L318.202 38.972L317.474 40.274L315.962 39.028L316.284 40.96H314.828L315.136 39.028L313.638 40.302L312.868 38.958L314.688 38.3L312.882 37.67L313.596 36.382L315.15 37.614L314.828 35.668H316.298L315.962 37.614L317.502 36.396ZM322.27 43.942L320.632 47.876H319.372L320.282 43.942H322.27ZM334.537 46L333.473 44.95C332.567 45.762 331.461 46.168 330.155 46.168C329.436 46.168 328.801 46.0467 328.251 45.804C327.709 45.552 327.289 45.202 326.991 44.754C326.692 44.2967 326.543 43.7693 326.543 43.172C326.543 42.528 326.725 41.9493 327.089 41.436C327.453 40.9227 327.989 40.5073 328.699 40.19C328.447 39.882 328.265 39.588 328.153 39.308C328.041 39.0187 327.985 38.7107 327.985 38.384C327.985 37.936 328.101 37.5347 328.335 37.18C328.568 36.816 328.899 36.5313 329.329 36.326C329.767 36.1207 330.276 36.018 330.855 36.018C331.443 36.018 331.947 36.13 332.367 36.354C332.787 36.578 333.099 36.8767 333.305 37.25C333.51 37.6233 333.599 38.0387 333.571 38.496H331.667C331.676 38.188 331.601 37.9547 331.443 37.796C331.284 37.628 331.069 37.544 330.799 37.544C330.537 37.544 330.318 37.6233 330.141 37.782C329.973 37.9313 329.889 38.1273 329.889 38.37C329.889 38.6033 329.959 38.8367 330.099 39.07C330.239 39.294 330.467 39.574 330.785 39.91L333.249 42.346C333.267 42.3273 333.281 42.3087 333.291 42.29C333.3 42.2713 333.309 42.2527 333.319 42.234L334.117 40.904H336.161L335.181 42.626C334.994 42.99 334.793 43.3353 334.579 43.662L336.945 46H334.537ZM330.211 44.544C330.976 44.544 331.653 44.2733 332.241 43.732L329.833 41.352C328.927 41.7533 328.475 42.3227 328.475 43.06C328.475 43.48 328.633 43.8347 328.951 44.124C329.268 44.404 329.688 44.544 330.211 44.544ZM337.411 48.758V48.562C338.354 47.5913 339.077 46.448 339.581 45.132C340.095 43.8067 340.351 42.4347 340.351 41.016C340.351 39.56 340.081 38.146 339.539 36.774C339.007 35.402 338.228 34.226 337.201 33.246V33.064H339.175C340.174 33.96 340.935 35.1127 341.457 36.522C341.98 37.922 342.241 39.42 342.241 41.016C342.241 42.5747 341.989 44.0353 341.485 45.398C340.991 46.7607 340.291 47.8807 339.385 48.758H337.411Z" fill="#EAE5D9"/>
<path d="M377.771 29.2679C379.104 30.0377 379.104 31.9622 377.771 32.732L363 41.26L363 20.74L377.771 29.2679Z" fill="#951717"/>
</svg>
