<svg width="30" height="30" viewBox="0 0 30 30" fill="none" xmlns="http://www.w3.org/2000/svg">
<path fill-rule="evenodd" clip-rule="evenodd" d="M18.75 3.75146C18.9142 3.75146 19.0767 3.7838 19.2284 3.84662C19.38 3.90943 19.5178 4.00151 19.6339 4.11758C19.75 4.23365 19.842 4.37145 19.9049 4.52311C19.9677 4.67477 20 4.83731 20 5.00146C20 5.16562 19.9677 5.32816 19.9049 5.47982C19.842 5.63148 19.75 5.76928 19.6339 5.88535C19.5178 6.00142 19.38 6.0935 19.2284 6.15631C19.0767 6.21913 18.9142 6.25146 18.75 6.25146H7.5V22.5015C7.5 22.833 7.6317 23.1509 7.86612 23.3853C8.10054 23.6198 8.41848 23.7515 8.75 23.7515H18.75C19.0815 23.7515 19.3995 23.8832 19.6339 24.1176C19.8683 24.352 20 24.6699 20 25.0015C20 25.333 19.8683 25.6509 19.6339 25.8853C19.3995 26.1198 19.0815 26.2515 18.75 26.2515H8.75C7.75544 26.2515 6.80161 25.8564 6.09835 25.1531C5.39509 24.4499 5 23.496 5 22.5015V5.00146C5 4.66994 5.1317 4.352 5.36612 4.11758C5.60054 3.88316 5.91848 3.75146 6.25 3.75146H18.75ZM20.8838 10.3677C20.709 10.193 20.4864 10.074 20.2441 10.0258C20.0018 9.97755 19.7506 10.0022 19.5223 10.0966C19.2939 10.1911 19.0987 10.351 18.9613 10.5564C18.8238 10.7617 18.7503 11.0031 18.75 11.2502V13.7502H11.25C10.9185 13.7502 10.6005 13.8819 10.3661 14.1163C10.1317 14.3508 10 14.6687 10 15.0002C10 15.3317 10.1317 15.6497 10.3661 15.8841C10.6005 16.1185 10.9185 16.2502 11.25 16.2502H18.75V18.7502C18.7501 18.9974 18.8234 19.239 18.9607 19.4445C19.0981 19.6501 19.2933 19.8102 19.5217 19.9048C19.7501 19.9994 20.0013 20.0242 20.2438 19.9759C20.4862 19.9277 20.7089 19.8087 20.8838 19.634L24.6338 15.884C24.8681 15.6496 24.9997 15.3317 24.9997 15.0002C24.9997 14.6688 24.8681 14.3509 24.6338 14.1165L20.8838 10.3677Z" fill="#EAE5D9"/>
</svg>
