<svg width="46" height="45" viewBox="0 0 46 45" fill="none" xmlns="http://www.w3.org/2000/svg">
<path d="M6.125 26.25C7.68125 27.4538 10.0194 28.1569 12.6875 28.125C15.3556 28.1569 17.6938 27.4538 19.25 26.25C20.8062 25.0462 23.1444 24.3431 25.8125 24.375C28.4806 24.3431 30.8188 25.0462 32.375 26.25M15.5 5.625C14.9066 6.05094 14.4258 6.61495 14.0991 7.2683C13.7724 7.92164 13.6097 8.64469 13.625 9.375C13.6097 10.1053 13.7724 10.8284 14.0991 11.4817C14.4258 12.1351 14.9066 12.6991 15.5 13.125M23 5.625C22.4066 6.05094 21.9258 6.61495 21.5991 7.2683C21.2724 7.92164 21.1097 8.64469 21.125 9.375C21.1097 10.1053 21.2724 10.8284 21.5991 11.4817C21.9258 12.1351 22.4066 12.6991 23 13.125" stroke="black" stroke-width="2" stroke-linecap="round" stroke-linejoin="round"/>
<path d="M6.125 18.75H32.375V28.125C32.375 31.1087 31.1897 33.9702 29.08 36.08C26.9702 38.1897 24.1087 39.375 21.125 39.375H17.375C14.3913 39.375 11.5298 38.1897 9.42005 36.08C7.31026 33.9702 6.125 31.1087 6.125 28.125V18.75Z" stroke="black" stroke-width="2" stroke-linecap="round" stroke-linejoin="round"/>
<path d="M31.8987 31.3612C32.7361 31.7456 33.6551 31.9184 34.5749 31.8645C35.4947 31.8105 36.3872 31.5315 37.1739 31.0518C37.9606 30.5721 38.6174 29.9065 39.0866 29.1136C39.5558 28.3206 39.823 27.4245 39.8647 26.5041C39.9065 25.5836 39.7215 24.667 39.326 23.8348C38.9306 23.0026 38.3367 22.2803 37.5967 21.7314C36.8567 21.1824 35.9931 20.8237 35.082 20.6867C34.1708 20.5497 33.24 20.6386 32.3712 20.9456" stroke="black" stroke-width="2" stroke-linecap="round" stroke-linejoin="round"/>
</svg>
