<svg width="75" height="73" viewBox="0 0 75 73" fill="none" xmlns="http://www.w3.org/2000/svg">
<path d="M17.5683 56.7027C16.9453 56.5781 16.4469 56.4535 15.8239 56.2043C15.201 55.9551 14.7026 55.8306 14.2042 55.5814C13.0828 55.083 12.086 54.46 11.0892 53.7124C9.09565 52.3418 7.47588 50.4728 6.2299 48.2301C4.98392 46.1119 4.23633 43.6199 4.11173 41.2526C3.98714 40.0066 4.11173 38.8852 4.23633 37.6392C4.36093 37.0163 4.48553 36.5179 4.61013 35.8949C4.73472 35.2719 4.98392 34.7735 5.10852 34.1505L5.23311 35.8949C5.23311 36.5179 5.35771 37.0163 5.48231 37.6392C5.60691 38.7606 5.85611 39.882 6.1053 40.8788C6.60369 42.997 7.35128 44.9905 8.47266 46.8595C9.59404 48.7285 10.84 50.4728 12.4598 52.0926C13.2074 52.8402 14.0796 53.5878 14.9518 54.3354C15.3256 54.7092 15.8239 55.083 16.3223 55.4568L17.5683 56.7027ZM17.1945 61.1883C16.8207 61.4375 16.3223 61.5621 15.8239 61.6867C15.3256 61.8113 14.9518 61.9359 14.4534 61.9359C13.5812 62.0605 12.5844 62.185 11.5876 62.0605C9.71864 61.9359 7.72507 61.4375 6.1053 60.5653C4.36093 59.6931 2.86575 58.3225 1.86897 56.7027C1.37058 55.9552 0.872186 55.083 0.498392 54.2108C0.373794 53.837 0.249196 53.3386 0.124598 52.8402C0.124598 52.4664 0 52.0926 0 51.5942C0.373794 51.968 0.62299 52.3418 0.872186 52.591C1.24598 52.9648 1.49518 53.3386 1.74437 53.5878C2.36736 54.2108 2.86575 54.8338 3.48874 55.3322C4.73472 56.4535 5.9807 57.4503 7.47588 58.1979C8.84646 58.9455 10.4662 59.5685 11.9614 60.0669C12.709 60.3161 13.5812 60.4407 14.4534 60.6899C14.8272 60.8145 15.3256 60.8145 15.6993 60.9391C16.3223 61.0637 16.6961 61.0637 17.1945 61.1883ZM45.3537 0.633646C45.9767 0.758244 46.475 1.00744 47.098 1.25664C47.721 1.50583 48.2194 1.75503 48.7178 2.00422C49.8392 2.62721 50.836 3.2502 51.8328 3.99779C53.8263 5.49297 55.4461 7.48654 56.5675 9.7293C57.6889 11.9721 58.3119 14.464 58.3119 16.8314C58.3119 18.0774 58.1873 19.1987 57.9381 20.4447C57.8135 21.0677 57.6889 21.5661 57.4397 22.1891C57.1905 22.8121 57.0659 23.3105 56.8167 23.8089L56.6921 22.0645C56.6921 21.4415 56.6921 20.9431 56.5675 20.3201L56.1937 16.956C55.8199 14.8378 55.0723 12.7196 54.0755 10.7261C53.0787 8.73251 51.8328 6.98814 50.3376 5.36837C49.59 4.49618 48.7178 3.7486 47.9702 2.87641C47.5964 2.50262 47.098 2.12882 46.5996 1.75503L45.3537 0.633646ZM56.1937 0.135254C56.6921 0.259852 57.0659 0.38445 57.4397 0.633646C57.8135 0.758244 58.3119 1.00744 58.6856 1.25664C59.4332 1.75503 60.1808 2.25342 60.9284 2.87641C62.299 4.12239 63.4204 5.61756 64.0434 7.36194C64.791 9.10631 65.0401 10.9753 64.7909 12.8442C64.6664 13.7164 64.4172 14.5886 64.168 15.4608C64.0434 15.8346 63.7942 16.333 63.6696 16.7068C63.4204 17.0806 63.2958 17.4544 62.922 17.8282V16.5822V15.3362C62.922 14.464 62.7974 13.7164 62.7974 12.9688C62.5482 11.3491 62.299 9.8539 61.676 8.48332C61.053 6.98814 60.3054 5.74216 59.4332 4.37159C58.9348 3.7486 58.4365 3.00101 57.9381 2.37802C57.6889 2.00422 57.4397 1.75503 57.0659 1.38123C56.8167 0.758244 56.4429 0.38445 56.1937 0.135254Z" fill="#42ADE2"/>
<path d="M9.9667 18.7C7.47474 19.8214 6.60255 22.8117 7.72393 25.3037L23.4233 58.073L32.1451 53.9612L16.4458 21.0674C15.3244 18.5754 12.4587 17.454 9.9667 18.7ZM51.2086 44.741L60.4289 40.38L42.4868 3.00065C41.2408 0.508686 38.2504 -0.612696 35.6339 0.633284C33.1419 1.87926 32.0205 4.86962 33.2665 7.48617L51.2086 44.741Z" fill="#FFDD67"/>
<path d="M35.7591 0.509011C35.5099 0.633609 35.2607 0.758207 35.0115 1.0074C37.3788 0.384413 39.8708 1.5058 40.9922 3.74856L58.9343 41.1279L60.5541 40.3804L42.612 3.00097C41.366 0.384414 38.3756 -0.736968 35.7591 0.509011Z" fill="#EBA352"/>
<path d="M32.1462 53.8367L41.7402 49.2266L23.4243 11.0996C22.1784 8.48302 18.9388 7.23704 16.3223 8.48302C13.7057 9.729 12.5843 12.9685 13.8303 15.5851L32.1462 53.8367Z" fill="#FFDD67"/>
<path d="M16.3223 8.60746C16.0731 8.73206 15.8239 8.85666 15.5747 9.10585C17.9421 8.48286 20.6832 9.60424 21.8046 11.9716L33.143 35.7698L35.8842 37.3896L23.4244 11.224C22.1784 8.48286 19.0635 7.36148 16.3223 8.60746Z" fill="#EBA352"/>
<path d="M40.2451 46.2366L49.8391 41.6265L31.5232 3.49952C30.2772 0.882964 27.0377 -0.363016 24.4211 1.00756C21.8046 2.25354 20.6832 5.49309 21.9292 8.10965L40.2451 46.2366Z" fill="#FFDD67"/>
<path d="M24.4217 0.882362C24.1725 1.00696 23.9233 1.25616 23.6741 1.38075C26.0414 0.757764 28.7826 1.87915 29.904 4.24651L42.7376 31.1597L45.4787 32.7794L31.5237 3.49892C30.2778 0.757764 27.0382 -0.363617 24.4217 0.882362ZM9.96829 18.6999C9.7191 18.8245 9.4699 18.9491 9.2207 19.1983C11.4635 18.5753 13.8308 19.6967 14.8276 21.9394L24.1725 41.5013L26.9136 43.1211L16.4474 21.1918C15.326 18.5753 12.4603 17.4539 9.96829 18.6999Z" fill="#EBA352"/>
<path d="M73.2634 14.9625C69.8993 12.3459 64.417 15.2117 61.6758 24.1827C59.8068 30.4126 59.5576 32.2816 55.5705 34.1506L53.3277 29.5405C53.3277 29.5405 17.9419 46.6104 19.3125 49.3515C19.3125 49.3515 23.5488 62.5589 30.7755 68.6642C41.4909 77.8845 66.5351 68.0412 67.6565 44.243C68.2795 30.4126 76.8768 17.8282 73.2634 14.9625Z" fill="#FFDD67"/>
<path d="M73.2639 14.963C72.6409 14.4646 71.8933 14.2154 71.1457 14.0908C71.2703 14.2154 71.5195 14.2154 71.6441 14.34C75.3821 17.2058 71.5195 23.8095 69.4014 29.7902C67.657 34.5249 66.1618 39.3842 66.411 44.1189C67.4078 64.8022 46.5999 74.6454 34.1401 70.9075C46.3507 76.016 69.0276 66.2974 68.0308 44.7419C67.7816 40.0072 69.1522 35.3971 71.0211 30.4132C73.0147 24.4325 76.8772 17.8288 73.2639 14.963Z" fill="#EBA352"/>
<path d="M56.6918 33.6528C48.9667 34.525 37.6283 45.6142 45.6026 57.7002C39.7464 45.4896 49.3405 37.2662 55.4458 34.4004C56.0688 33.902 56.6918 33.6528 56.6918 33.6528Z" fill="#EBA352"/>
</svg>
