<svg width="30" height="30" viewBox="0 0 30 30" fill="none" xmlns="http://www.w3.org/2000/svg">
<path d="M15 6.24989C16.7773 6.25015 18.5124 6.79164 19.9744 7.80231C21.4364 8.81297 22.5559 10.2449 23.184 11.9075C23.8122 13.5701 23.9191 15.3846 23.4906 17.1095C23.0621 18.8343 22.1185 20.3878 20.7853 21.5632C19.4522 22.7386 17.7927 23.4802 16.0277 23.6892C14.2628 23.8982 12.476 23.5648 10.9052 22.7333C9.33434 21.9018 8.05398 20.6117 7.23445 19.0346C6.41492 17.4575 6.09508 15.6682 6.3175 13.9049C6.34208 13.7401 6.33345 13.572 6.29213 13.4106C6.2508 13.2491 6.17762 13.0976 6.07687 12.9648C5.97613 12.8321 5.84986 12.7208 5.70549 12.6376C5.56112 12.5544 5.40157 12.5009 5.23621 12.4802C5.07086 12.4595 4.90304 12.4721 4.74262 12.5173C4.58221 12.5624 4.43244 12.6391 4.30212 12.743C4.1718 12.8469 4.06356 12.9757 3.98377 13.122C3.90398 13.2683 3.85425 13.4291 3.8375 13.5949C3.77917 14.0566 3.75 14.5249 3.75 14.9999C3.75019 17.5079 4.58843 19.9439 6.13155 21.921C7.67467 23.898 9.83419 25.3028 12.267 25.912C14.6999 26.5213 17.2666 26.3001 19.5594 25.2837C21.8522 24.2673 23.7396 22.5138 24.9218 20.302C26.104 18.0901 26.5132 15.5466 26.0843 13.0755C25.6555 10.6045 24.4133 8.34754 22.555 6.66329C20.6967 4.97904 18.3289 3.96404 15.8277 3.77952C13.3265 3.59501 10.8353 4.25156 8.75 5.64489V4.99989C8.75 4.66837 8.6183 4.35043 8.38388 4.11601C8.14946 3.88159 7.83152 3.74989 7.5 3.74989C7.16848 3.74989 6.85054 3.88159 6.61612 4.11601C6.3817 4.35043 6.25 4.66837 6.25 4.99989V8.74989C6.25 9.08141 6.3817 9.39935 6.61612 9.63377C6.85054 9.86819 7.16848 9.99989 7.5 9.99989H11.25C11.5815 9.99989 11.8995 9.86819 12.1339 9.63377C12.3683 9.39935 12.5 9.08141 12.5 8.74989C12.5 8.41837 12.3683 8.10043 12.1339 7.86601C11.8995 7.63159 11.5815 7.49989 11.25 7.49989H10.49C11.8512 6.6797 13.4108 6.24744 15 6.24989ZM16.25 9.99989C16.25 9.66837 16.1183 9.35043 15.8839 9.11601C15.6495 8.88159 15.3315 8.74989 15 8.74989C14.6685 8.74989 14.3505 8.88159 14.1161 9.11601C13.8817 9.35043 13.75 9.66837 13.75 9.99989V14.9999C13.75 15.3314 13.8817 15.6494 14.1161 15.8838C14.3505 16.1182 14.6685 16.2499 15 16.2499H18.125C18.4565 16.2499 18.7745 16.1182 19.0089 15.8838C19.2433 15.6494 19.375 15.3314 19.375 14.9999C19.375 14.6684 19.2433 14.3504 19.0089 14.116C18.7745 13.8816 18.4565 13.7499 18.125 13.7499H16.25V9.99989Z" fill="#EAE5D9"/>
</svg>
