<svg width="278" height="85" viewBox="0 0 278 85" fill="none" xmlns="http://www.w3.org/2000/svg">
<path d="M11.62 21.0508C8.87984 20.7084 6.38097 22.6522 6.03858 25.3923L0.459035 70.045C0.116646 72.7851 2.06039 75.284 4.8005 75.6264C7.54062 75.9688 10.0395 74.025 10.3819 71.2849L15.3415 31.5936L55.0328 36.5532C57.7729 36.8956 60.2718 34.9518 60.6142 32.2117C60.9566 29.4716 59.0128 26.9727 56.2727 26.6304L11.62 21.0508ZM101.746 68.1902L97.4503 65.631L101.746 68.1902ZM273 10.9267C275.761 10.9267 278 8.68814 278 5.92672C278 3.16529 275.761 0.926725 273 0.926735L273 10.9267ZM11 26.0122C7.05338 29.0821 7.05427 29.0833 7.05542 29.0847C7.05613 29.0856 7.05753 29.0874 7.05895 29.0893C7.06181 29.0929 7.06567 29.0979 7.07052 29.1041C7.08023 29.1165 7.0939 29.134 7.1115 29.1565C7.14668 29.2014 7.19756 29.2662 7.26371 29.35C7.39602 29.5177 7.58948 29.7617 7.84085 30.0754C8.34353 30.7029 9.07814 31.61 10.0187 32.7449C11.8991 35.014 14.6068 38.1988 17.9337 41.8842C24.5681 49.2335 33.7503 58.6689 43.8039 66.8046C53.7314 74.8383 65.0624 82.067 75.9651 84.2926C81.5198 85.4265 87.1981 85.3096 92.5361 83.1105C97.9074 80.8977 102.451 76.7749 106.041 70.7494L97.4503 65.631C94.7579 70.1499 91.754 72.6174 88.7269 73.8644C85.6666 75.1252 82.0958 75.3378 77.9652 74.4946C69.4971 72.766 59.7123 66.8141 50.0946 59.0311C40.6029 51.3501 31.8105 42.3327 25.3566 35.1834C22.1394 31.6195 19.5245 28.5435 17.7183 26.3641C16.8156 25.2748 16.116 24.4107 15.6452 23.8231C15.4099 23.5293 15.2318 23.3048 15.1143 23.1558C15.0555 23.0813 15.0119 23.0258 14.9838 22.9899C14.9698 22.972 14.9596 22.959 14.9534 22.951C14.9503 22.9471 14.9482 22.9443 14.947 22.9429C14.9465 22.9421 14.9464 22.942 14.9461 22.9417C14.9462 22.9418 14.9466 22.9423 11 26.0122ZM106.041 70.7494C112.15 60.4954 116.927 56.4595 120.649 55.0881C124.115 53.8113 127.767 54.4499 133.019 56.9035C135.645 58.1303 138.399 59.6766 141.573 61.4399C144.686 63.1696 148.127 65.0629 151.866 66.7956C159.396 70.2849 168.273 73.1902 178.996 73.1902L178.996 63.1902C170.174 63.1902 162.762 60.8232 156.07 57.7223C152.698 56.1598 149.543 54.4285 146.429 52.6983C143.375 51.0017 140.268 49.2529 137.252 47.8435C131.219 45.025 124.459 43.0274 117.192 45.7047C110.182 48.2876 103.906 54.7961 97.4503 65.631L106.041 70.7494ZM178.996 73.1902C189.174 73.1902 196.863 71.7629 202.712 68.9219C208.724 66.0016 212.443 61.7564 214.895 56.8789C217.238 52.2176 218.418 46.9535 219.492 42.1723C220.61 37.1966 221.655 32.508 223.596 27.9823L214.404 24.0423C212.039 29.5593 210.818 35.1643 209.736 39.98C208.61 44.9901 207.656 49.0151 205.961 52.3876C204.374 55.5439 202.15 58.0772 198.342 59.9269C194.371 61.8559 188.363 63.1902 178.996 63.1902L178.996 73.1902ZM223.596 27.9823C225.111 24.4471 228.433 21.3912 233.365 18.8424C238.26 16.3131 244.243 14.5461 250.219 13.3384C256.159 12.138 261.878 11.5319 266.13 11.2279C268.249 11.0763 269.988 11.001 271.189 10.9635C271.789 10.9448 272.253 10.9356 272.561 10.9311C272.716 10.9288 272.831 10.9277 272.905 10.9272C272.942 10.927 272.969 10.9268 272.985 10.9268C272.993 10.9268 272.998 10.9267 273 10.9267C273.002 10.9267 273.002 10.9267 273.002 10.9267C273.002 10.9267 273.002 10.9267 273.002 10.9267C273.001 10.9267 273 10.9267 273 5.92673C273 0.926735 272.999 0.926735 272.997 0.926735C272.997 0.926736 272.995 0.926737 272.994 0.926738C272.991 0.926741 272.987 0.926745 272.983 0.926752C272.975 0.926767 272.963 0.926794 272.95 0.926843C272.922 0.92694 272.883 0.927125 272.834 0.927475C272.736 0.928175 272.595 0.929536 272.415 0.932178C272.055 0.937461 271.535 0.947874 270.877 0.968402C269.561 1.00943 267.687 1.091 265.417 1.25333C260.889 1.57702 254.722 2.22624 248.238 3.53657C241.791 4.83957 234.812 6.83869 228.775 9.9584C222.775 13.0586 217.194 17.5349 214.404 24.0423L223.596 27.9823Z" fill="#647484"/>
</svg>
