<svg width="40" height="32" viewBox="0 0 40 32" fill="none" xmlns="http://www.w3.org/2000/svg">
<g clip-path="url(#clip0_2920_20915)">
<path d="M7.59007 31.3459V29.2941C7.59007 28.5075 7.12176 27.9946 6.31906 27.9946C5.91779 27.9946 5.483 28.1314 5.18197 28.576C4.94797 28.1998 4.61357 27.9946 4.11191 27.9946C3.77736 27.9946 3.44312 28.0971 3.17545 28.4733V28.063H2.47314V31.3459H3.17545V29.5334C3.17545 28.9522 3.47648 28.6785 3.94479 28.6785C4.41279 28.6785 4.64709 28.9863 4.64709 29.5334V31.3459H5.34939V29.5334C5.34939 28.9522 5.68364 28.6785 6.11843 28.6785C6.58673 28.6785 6.82073 28.9863 6.82073 29.5334V31.3459H7.59007ZM17.9907 28.063H16.8538V27.0713H16.1515V28.063H15.5161V28.7126H16.1513V30.2174C16.1513 30.9699 16.4524 31.4143 17.2551 31.4143C17.5561 31.4143 17.8903 31.3118 18.1246 31.175L17.9238 30.5594C17.7232 30.6962 17.4892 30.7304 17.3219 30.7304C16.9875 30.7304 16.8538 30.5253 16.8538 30.1832V28.7126H17.9907V28.063ZM23.9437 27.9945C23.5424 27.9945 23.2749 28.1998 23.1076 28.4733V28.063H22.4053V31.3459H23.1076V29.4993C23.1076 28.9522 23.3417 28.6444 23.7764 28.6444C23.9102 28.6444 24.0775 28.6787 24.2112 28.7128L24.4119 28.0289C24.2781 27.9946 24.0775 27.9946 23.9437 27.9946M14.9475 28.3367C14.613 28.0973 14.1448 27.9948 13.6431 27.9948C12.8406 27.9948 12.3056 28.4051 12.3056 29.0549C12.3056 29.6021 12.7068 29.9098 13.4091 30.0124L13.7435 30.0467C14.1114 30.1149 14.3121 30.2176 14.3121 30.3886C14.3121 30.6279 14.0446 30.799 13.5763 30.799C13.108 30.799 12.7402 30.6279 12.506 30.457L12.1717 31.0041C12.5396 31.2777 13.0412 31.4145 13.5427 31.4145C14.4792 31.4145 15.0144 30.97 15.0144 30.3544C15.0144 29.773 14.5796 29.4652 13.9107 29.3627L13.5763 29.3284C13.2752 29.2941 13.0412 29.2259 13.0412 29.0208C13.0412 28.7813 13.2752 28.6445 13.6431 28.6445C14.0446 28.6445 14.4458 28.8154 14.6465 28.9181L14.9475 28.3367ZM33.6089 27.9948C33.2074 27.9948 32.9399 28.2 32.7726 28.4735V28.0632H32.0703V31.3461H32.7726V29.4995C32.7726 28.9524 33.0068 28.6445 33.4414 28.6445C33.5753 28.6445 33.7426 28.6788 33.8764 28.7129L34.077 28.0291C33.9433 27.9948 33.7426 27.9948 33.6089 27.9948ZM24.646 29.7046C24.646 30.6963 25.3148 31.4145 26.3517 31.4145C26.8198 31.4145 27.1542 31.312 27.4886 31.0384L27.1542 30.457C26.8867 30.6622 26.6192 30.7647 26.3181 30.7647C25.7496 30.7647 25.3483 30.3544 25.3483 29.7046C25.3483 29.0891 25.7496 28.6787 26.3181 28.6445C26.6192 28.6445 26.8867 28.747 27.1542 28.9524L27.4886 28.371C27.1542 28.0973 26.8198 27.9948 26.3517 27.9948C25.3148 27.9948 24.646 28.7129 24.646 29.7046ZM31.134 29.7046V28.0632H30.4317V28.4735C30.1976 28.1658 29.8632 27.9948 29.4284 27.9948C28.5255 27.9948 27.8231 28.7129 27.8231 29.7046C27.8231 30.6963 28.5255 31.4145 29.4284 31.4145C29.8965 31.4145 30.2311 31.2436 30.4317 30.9357V31.3461H31.134V29.7046ZM28.5588 29.7046C28.5588 29.1233 28.9267 28.6445 29.5286 28.6445C30.0972 28.6445 30.4986 29.0891 30.4986 29.7046C30.4986 30.286 30.0972 30.7647 29.5286 30.7647C28.9267 30.7304 28.5588 30.286 28.5588 29.7046ZM20.1647 27.9948C19.2282 27.9948 18.5593 28.6787 18.5593 29.7046C18.5593 30.7306 19.2281 31.4145 20.198 31.4145C20.6662 31.4145 21.1345 31.2777 21.5024 30.97L21.1679 30.457C20.9003 30.6622 20.5659 30.799 20.2316 30.799C19.7968 30.799 19.362 30.5938 19.2616 30.0123H21.6362V29.7389C21.6697 28.6787 21.0678 27.9948 20.1647 27.9948ZM20.1645 28.6103C20.5992 28.6103 20.9003 28.884 20.9671 29.397H19.2949C19.3618 28.9524 19.6629 28.6103 20.1645 28.6103ZM37.5884 29.7046V26.7637H36.8861V28.4735C36.6519 28.1658 36.3175 27.9948 35.8827 27.9948C34.9798 27.9948 34.2775 28.7129 34.2775 29.7046C34.2775 30.6963 34.9798 31.4145 35.8827 31.4145C36.351 31.4145 36.6854 31.2436 36.8861 30.9357V31.3461H37.5884V29.7046ZM35.0133 29.7046C35.0133 29.1233 35.3811 28.6445 35.9831 28.6445C36.5517 28.6445 36.953 29.0891 36.953 29.7046C36.953 30.286 36.5517 30.7647 35.9831 30.7647C35.3811 30.7304 35.0133 30.286 35.0133 29.7046ZM11.5361 29.7046V28.0632H10.8338V28.4735C10.5996 28.1658 10.2652 27.9948 9.83043 27.9948C8.92749 27.9948 8.22519 28.7129 8.22519 29.7046C8.22519 30.6963 8.92749 31.4145 9.83043 31.4145C10.2987 31.4145 10.6331 31.2436 10.8338 30.9357V31.3461H11.5361V29.7046ZM8.92749 29.7046C8.92749 29.1233 9.2954 28.6445 9.89731 28.6445C10.4659 28.6445 10.8673 29.0891 10.8673 29.7046C10.8673 30.286 10.4659 30.7647 9.89731 30.7647C9.2954 30.7304 8.92749 30.286 8.92749 29.7046Z" fill="black"/>
<path d="M14.7134 3.13281H25.2479V22.4885H14.7134V3.13281Z" fill="#FF5F00"/>
<path d="M15.3823 12.811C15.3823 8.87841 17.1882 5.39021 19.9639 3.13313C17.924 1.49169 15.3489 0.5 12.5397 0.5C5.88428 0.5 0.5 6.00569 0.5 12.811C0.5 19.6164 5.88428 25.1221 12.5396 25.1221C15.3488 25.1221 17.9239 24.1304 19.9639 22.4888C17.1882 20.266 15.3823 16.7437 15.3823 12.811Z" fill="#EB001B"/>
<path d="M39.4615 12.811C39.4615 19.6163 34.0772 25.1221 27.4219 25.1221C24.6127 25.1221 22.0376 24.1304 19.9976 22.4888C22.8068 20.2319 24.5793 16.7437 24.5793 12.811C24.5793 8.87841 22.7733 5.39021 19.9976 3.13313C22.0374 1.49169 24.6127 0.5 27.4219 0.5C34.0772 0.5 39.4615 6.03996 39.4615 12.811Z" fill="#F79E1B"/>
</g>
<defs>
<clipPath id="clip0_2920_20915">
<rect width="39" height="31" fill="white" transform="translate(0.5 0.5)"/>
</clipPath>
</defs>
</svg>
