<svg width="28" height="40" viewBox="0 0 28 40" fill="none" xmlns="http://www.w3.org/2000/svg">
<path d="M27.4209 13.9043L25.4961 11.3555L25.8916 8.18262C25.9443 7.78711 25.7246 7.40918 25.3555 7.25098L22.4111 6.01172L21.1719 3.06739C21.0137 2.69825 20.6357 2.47852 20.2402 2.53125L17.0762 2.92676L14.5273 1.00196C14.3725 0.886403 14.1844 0.823975 13.9912 0.823975C13.798 0.823975 13.6099 0.886403 13.4551 1.00196L10.9063 2.92676L7.74219 2.53125C7.34668 2.47852 6.96875 2.69825 6.81055 3.06739L5.57129 6.01172L2.62696 7.25098C2.25782 7.40918 2.03809 7.78711 2.09082 8.18262L2.48633 11.3555L0.561527 13.9043C0.445973 14.0592 0.383545 14.2472 0.383545 14.4404C0.383545 14.6337 0.445973 14.8217 0.561527 14.9766L2.48633 17.5254L2.09082 20.6895C2.03809 21.085 2.25782 21.4629 2.62696 21.6211L5.57129 22.8604L6.81055 25.8047C6.96875 26.1738 7.34668 26.3936 7.74219 26.3408H7.75977L4.54297 38.5664C4.45508 38.918 4.57813 39.2871 4.87696 39.5068C5.03516 39.6211 5.21973 39.6826 5.4043 39.6826C5.5625 39.6826 5.7295 39.6387 5.87012 39.5508L13.9912 34.5234L22.1123 39.5508C22.4199 39.7441 22.8154 39.7266 23.1055 39.5068C23.3955 39.2871 23.5273 38.918 23.4395 38.5664L20.2227 26.3408H20.2402C20.6357 26.3936 21.0137 26.1738 21.1719 25.8047L22.4111 22.8604L25.3555 21.6211C25.7246 21.4629 25.9443 21.085 25.8916 20.6895L25.4961 17.5254L27.4209 14.9766C27.6582 14.6602 27.6582 14.2207 27.4209 13.9043ZM21.1631 36.8525L14.4658 32.7041C14.1758 32.5283 13.8154 32.5283 13.5342 32.7041L6.83692 36.8525L9.667 26.0859L10.9238 25.9277L13.4727 27.8525C13.6309 27.9756 13.8154 28.0283 14.0088 28.0283C14.2022 28.0283 14.3867 27.9668 14.5449 27.8525L17.0938 25.9277L18.3506 26.0859L21.1631 36.8525ZM23.8613 16.7344C23.7207 16.9189 23.6592 17.1475 23.6856 17.376L24.0459 20.2324L21.3916 21.3486C21.1807 21.4365 21.0049 21.6123 20.917 21.8232L19.8008 24.4863L16.9443 24.126C16.7158 24.0908 16.4873 24.1611 16.3027 24.3018L14 26.042L11.6973 24.3018C11.5391 24.1875 11.3545 24.126 11.1611 24.126C11.126 24.126 11.0908 24.126 11.0469 24.1348L8.19043 24.4951L7.08301 21.832C6.99512 21.6211 6.81934 21.4453 6.6084 21.3574L3.9541 20.2412L4.31446 17.3848C4.34082 17.1563 4.2793 16.9277 4.13868 16.7432L2.39844 14.4404L4.13868 12.1377C4.2793 11.9531 4.34082 11.7246 4.31446 11.4961L3.9541 8.63965L6.6084 7.52344C6.81934 7.43555 6.99512 7.25977 7.08301 7.04883L8.19922 4.38575L11.0557 4.7461C11.2842 4.77246 11.5127 4.71094 11.6973 4.57032L14 2.83008L16.3027 4.57032C16.4873 4.71094 16.7158 4.77246 16.9443 4.7461L19.8008 4.38575L20.917 7.04004C21.0049 7.25098 21.1807 7.42676 21.3916 7.51465L24.0459 8.63086L23.6856 11.4873C23.6592 11.7158 23.7207 11.9443 23.8613 12.1289L25.6016 14.4316L23.8613 16.7344Z" fill="#182531"/>
</svg>
