<svg width="46" height="46" viewBox="0 0 46 46" fill="none" xmlns="http://www.w3.org/2000/svg">
<path d="M23 8.93262C18.3066 8.93262 14.4922 12.7471 14.4922 17.4404C14.4922 22.1338 18.3066 25.9482 23 25.9482C27.6934 25.9482 31.5078 22.1338 31.5078 17.4404C31.5078 12.7471 27.6934 8.93262 23 8.93262ZM23 24.1729C19.291 24.1729 16.2676 21.1494 16.2676 17.4404C16.2676 13.7314 19.291 10.708 23 10.708C26.709 10.708 29.7324 13.7314 29.7324 17.4404C29.7324 21.1494 26.709 24.1729 23 24.1729Z" fill="#182531"/>
<path d="M36.4209 16.9043L34.4961 14.3555L34.8916 11.1826C34.9443 10.7871 34.7246 10.4092 34.3555 10.251L31.4111 9.01172L30.1719 6.06739C30.0137 5.69825 29.6357 5.47852 29.2402 5.53125L26.0762 5.92676L23.5273 4.00196C23.3725 3.8864 23.1844 3.82397 22.9912 3.82397C22.798 3.82397 22.6099 3.8864 22.4551 4.00196L19.9063 5.92676L16.7422 5.53125C16.3467 5.47852 15.9688 5.69825 15.8106 6.06739L14.5713 9.01172L11.627 10.251C11.2578 10.4092 11.0381 10.7871 11.0908 11.1826L11.4863 14.3555L9.56153 16.9043C9.44597 17.0592 9.38354 17.2472 9.38354 17.4404C9.38354 17.6337 9.44597 17.8217 9.56153 17.9766L11.4863 20.5254L11.0908 23.6895C11.0381 24.085 11.2578 24.4629 11.627 24.6211L14.5713 25.8604L15.8106 28.8047C15.9688 29.1738 16.3467 29.3936 16.7422 29.3408H16.7598L13.543 41.5664C13.4551 41.918 13.5781 42.2871 13.877 42.5068C14.0352 42.6211 14.2197 42.6826 14.4043 42.6826C14.5625 42.6826 14.7295 42.6387 14.8701 42.5508L22.9912 37.5234L31.1123 42.5508C31.4199 42.7441 31.8154 42.7266 32.1055 42.5068C32.3955 42.2871 32.5273 41.918 32.4395 41.5664L29.2227 29.3408H29.2402C29.6357 29.3936 30.0137 29.1738 30.1719 28.8047L31.4111 25.8604L34.3555 24.6211C34.7246 24.4629 34.9443 24.085 34.8916 23.6895L34.4961 20.5254L36.4209 17.9766C36.6582 17.6602 36.6582 17.2207 36.4209 16.9043ZM30.1631 39.8525L23.4658 35.7041C23.1758 35.5283 22.8154 35.5283 22.5342 35.7041L15.8369 39.8525L18.667 29.0859L19.9238 28.9277L22.4727 30.8525C22.6309 30.9756 22.8154 31.0283 23.0088 31.0283C23.2022 31.0283 23.3867 30.9668 23.5449 30.8525L26.0938 28.9277L27.3506 29.0859L30.1631 39.8525ZM32.8613 19.7344C32.7207 19.9189 32.6592 20.1475 32.6856 20.376L33.0459 23.2324L30.3916 24.3486C30.1807 24.4365 30.0049 24.6123 29.917 24.8232L28.8008 27.4863L25.9443 27.126C25.7158 27.0908 25.4873 27.1611 25.3027 27.3018L23 29.042L20.6973 27.3018C20.5391 27.1875 20.3545 27.126 20.1611 27.126C20.126 27.126 20.0908 27.126 20.0469 27.1348L17.1904 27.4951L16.083 24.832C15.9951 24.6211 15.8193 24.4453 15.6084 24.3574L12.9541 23.2412L13.3145 20.3848C13.3408 20.1563 13.2793 19.9277 13.1387 19.7432L11.3984 17.4404L13.1387 15.1377C13.2793 14.9531 13.3408 14.7246 13.3145 14.4961L12.9541 11.6397L15.6084 10.5234C15.8193 10.4356 15.9951 10.2598 16.083 10.0488L17.1992 7.38575L20.0557 7.7461C20.2842 7.77246 20.5127 7.71094 20.6973 7.57032L23 5.83008L25.3027 7.57032C25.4873 7.71094 25.7158 7.77246 25.9443 7.7461L28.8008 7.38575L29.917 10.04C30.0049 10.251 30.1807 10.4268 30.3916 10.5147L33.0459 11.6309L32.6856 14.4873C32.6592 14.7158 32.7207 14.9443 32.8613 15.1289L34.6016 17.4316L32.8613 19.7344Z" fill="#182531"/>
</svg>
