<svg width="38" height="37" viewBox="0 0 38 37" fill="none" xmlns="http://www.w3.org/2000/svg">
<path d="M19 14V2.75H17.125V14H19ZM20.875 14H35.75C36.8546 14 37.7612 14.8982 37.645 15.9966C36.9998 22.0913 33.4348 27.3147 28.375 30.2416V34.5C28.375 35.6046 27.4796 36.5 26.375 36.5H11.625C10.5204 36.5 9.625 35.6046 9.625 34.5V30.2416C4.56525 27.3147 1.00017 22.0913 0.355051 15.9966C0.238781 14.8982 1.14543 14 2.25 14H7.75V6.5H6C4.89543 6.5 4 5.60457 4 4.5V2.875C4 1.77043 4.89543 0.875 6 0.875H35.75C36.8546 0.875 37.75 1.77043 37.75 2.875V4.5C37.75 5.60457 36.8546 6.5 35.75 6.5H20.875V14ZM9.625 14H11.5V2.75H9.625V14ZM13.375 2.75V14H15.25V2.75H13.375ZM35.7715 15.875H2.22852C2.82098 21.2138 5.91939 25.9319 10.5639 28.6186L11.2232 29H26.7768L27.4361 28.6186C32.0806 25.9319 35.179 21.2138 35.7715 15.875ZM20.875 4.625H35.875V2.75H20.875V4.625ZM7.75 2.75H5.875V4.625H7.75V2.75ZM26.5 30.875H11.5V34.625H26.5V30.875Z" fill="#182531"/>
</svg>
