<svg width="46" height="46" viewBox="0 0 46 46" fill="none" xmlns="http://www.w3.org/2000/svg">
<path d="M23 19V7.75H21.125V19H23ZM24.875 19H39.75C40.8546 19 41.7612 19.8982 41.645 20.9966C40.9998 27.0913 37.4348 32.3147 32.375 35.2416V39.5C32.375 40.6046 31.4796 41.5 30.375 41.5H15.625C14.5204 41.5 13.625 40.6046 13.625 39.5V35.2416C8.56525 32.3147 5.00017 27.0913 4.35505 20.9966C4.23878 19.8982 5.14543 19 6.25 19H11.75V11.5H10C8.89543 11.5 8 10.6046 8 9.5V7.875C8 6.77043 8.89543 5.875 10 5.875H39.75C40.8546 5.875 41.75 6.77043 41.75 7.875V9.5C41.75 10.6046 40.8546 11.5 39.75 11.5H24.875V19ZM13.625 19H15.5V7.75H13.625V19ZM17.375 7.75V19H19.25V7.75H17.375ZM39.7715 20.875H6.22852C6.82098 26.2138 9.91939 30.9319 14.5639 33.6186L15.2232 34H30.7768L31.4361 33.6186C36.0806 30.9319 39.179 26.2138 39.7715 20.875ZM24.875 9.625H39.875V7.75H24.875V9.625ZM11.75 7.75H9.875V9.625H11.75V7.75ZM30.5 35.875H15.5V39.625H30.5V35.875Z" fill="#182531"/>
</svg>
