<svg width="37" height="36" viewBox="0 0 37 36" fill="none" xmlns="http://www.w3.org/2000/svg">
<path d="M35.6992 17.25L29.0992 10.05C28.9492 9.9 28.7992 9.75 28.6492 9.75C28.4992 9.75 28.4992 9.9 28.4992 10.2V25.65C28.4992 25.95 28.4992 26.1 28.6492 26.25C28.7992 26.25 28.9492 26.25 29.0992 26.1L35.6992 18.75C36.1492 18.3 36.1492 17.7 35.6992 17.25ZM20.8492 27V21H14.9992V27H10.4992C10.4992 27 8.99922 27 10.4992 29.25C10.4992 29.25 16.4992 36 17.9992 36C19.4992 36 25.4992 29.25 25.4992 29.25C26.9992 27.15 25.4992 27.15 25.4992 27.15L20.8492 27ZM20.8492 9V15H14.9992V9H10.4992C10.4992 9 8.99922 9 10.4992 6.75C10.4992 6.75 16.4992 0 17.9992 0C19.4992 0 25.4992 6.75 25.4992 6.75C26.9992 8.85 25.4992 8.85 25.4992 8.85L20.8492 9ZM6.74922 9.9L0.299219 17.25C-0.000781246 17.7 -0.000781246 18.3 0.299219 18.6L6.74922 25.95C6.89922 26.1 7.04922 26.1 7.19922 26.1C7.34922 26.1 7.34922 25.95 7.34922 25.65V10.2C7.34922 9.9 7.34922 9.75 7.19922 9.75C7.19922 9.75 7.04922 9.75 6.74922 9.9Z" fill="#FF0000"/>
</svg>
