<svg width="25" height="29" viewBox="0 0 25 29" fill="none" xmlns="http://www.w3.org/2000/svg">
<g clip-path="url(#clip0_2920_20908)">
<path d="M20.8564 2.679C19.5506 1.20649 17.1901 0.575195 14.1703 0.575195H5.40611C5.10731 0.57515 4.81831 0.680586 4.59108 0.872538C4.36385 1.06449 4.21331 1.33036 4.16654 1.62232L0.517282 24.5199C0.444747 24.9714 0.798146 25.3803 1.26072 25.3803H6.67144L8.03031 16.8532L7.98814 17.1202C8.08494 16.5175 8.606 16.0729 9.22302 16.0729H11.7942C16.8452 16.0729 20.8003 14.0432 21.9556 8.17163C21.9899 7.99798 22.0196 7.82896 22.0453 7.66383C21.8995 7.58743 21.8995 7.58743 22.0453 7.66383C22.3893 5.49365 22.0429 4.01641 20.8564 2.679Z" fill="#27346A"/>
<path d="M10.1007 6.88206C10.2485 6.81226 10.4104 6.77615 10.5742 6.77636H17.4452C18.2588 6.77636 19.0177 6.82874 19.7112 6.93917C19.9053 6.9698 20.0983 7.00635 20.2901 7.04876C20.5619 7.10811 20.8306 7.18073 21.0951 7.26636C21.436 7.37901 21.7535 7.5102 22.0454 7.66383C22.3893 5.49281 22.0429 4.01641 20.8564 2.679C19.5498 1.20649 17.1901 0.575195 14.1703 0.575195H5.40536C4.78824 0.575195 4.26325 1.01967 4.16654 1.62232L0.517283 24.5191C0.444748 24.9714 0.798146 25.3797 1.25997 25.3797H6.67144L9.49067 7.69239C9.51841 7.51854 9.58842 7.35397 9.69468 7.21282C9.80093 7.07166 9.94025 6.95816 10.1007 6.88206Z" fill="#27346A"/>
<path d="M21.9557 8.17186C20.8003 14.0426 16.8454 16.0731 11.7942 16.0731H9.22233C8.60531 16.0731 8.08416 16.5177 7.98829 17.1205L6.29777 27.7229C6.23461 28.1181 6.54349 28.4761 6.94759 28.4761H11.5087C11.77 28.4761 12.0226 28.3838 12.2213 28.2159C12.4199 28.0479 12.5515 27.8154 12.5923 27.5601L12.6367 27.3302L13.4964 21.9401L13.5518 21.6422C13.5926 21.3869 13.7241 21.1544 13.9228 20.9865C14.1214 20.8185 14.374 20.7262 14.6353 20.7262H15.3179C19.7363 20.7262 23.196 18.9503 24.207 13.8142C24.629 11.6679 24.4106 9.87588 23.2943 8.61717C22.9557 8.23593 22.5352 7.92107 22.0453 7.66406C22.0188 7.83002 21.99 7.99821 21.9557 8.17186Z" fill="#2790C3"/>
<path d="M20.836 7.187C20.6559 7.13497 20.4741 7.08889 20.2908 7.04886C20.0989 7.00713 19.9059 6.97083 19.7119 6.94001C19.0177 6.82885 18.2594 6.77637 17.445 6.77637H10.5748C10.4109 6.7761 10.249 6.81252 10.1013 6.8829C9.94068 6.95873 9.80117 7.07215 9.69486 7.21335C9.58856 7.35455 9.51865 7.51927 9.49121 7.69323L8.03094 16.8533L7.98877 17.1203C8.08483 16.5176 8.60588 16.073 9.22299 16.073H11.7949C16.8459 16.073 20.8009 14.0433 21.9562 8.17173C21.9906 7.99808 22.0195 7.8298 22.046 7.66393C21.7535 7.51126 21.4367 7.37902 21.0957 7.2672C21.0097 7.23898 20.9231 7.21224 20.8361 7.187" fill="#1F264F"/>
</g>
<defs>
<clipPath id="clip0_2920_20908">
<rect width="24" height="28" fill="white" transform="translate(0.5 0.5)"/>
</clipPath>
</defs>
</svg>
