<svg width="30" height="30" viewBox="0 0 30 30" fill="none" xmlns="http://www.w3.org/2000/svg">
<path d="M15 25.0002H26.25H15ZM20.47 4.52766C20.9676 4.03004 21.6425 3.75049 22.3462 3.75049C23.05 3.75049 23.7249 4.03004 24.2225 4.52766C24.7201 5.02527 24.9996 5.70018 24.9996 6.40391C24.9996 7.10764 24.7201 7.78254 24.2225 8.28016L9.20997 23.2939C8.91259 23.5913 8.545 23.8088 8.14122 23.9264L4.55122 24.9739C4.44366 25.0053 4.32964 25.0072 4.22111 24.9794C4.11257 24.9515 4.0135 24.8951 3.93428 24.8158C3.85505 24.7366 3.79858 24.6376 3.77077 24.529C3.74297 24.4205 3.74485 24.3065 3.77622 24.1989L4.82372 20.6089C4.9415 20.2056 5.15903 19.8384 5.45622 19.5414L20.47 4.52766Z" fill="#EAE5D9"/>
<path d="M15 25.0002H26.25M20.47 4.52766C20.9676 4.03004 21.6425 3.75049 22.3462 3.75049C23.05 3.75049 23.7249 4.03004 24.2225 4.52766C24.7201 5.02527 24.9996 5.70018 24.9996 6.40391C24.9996 7.10764 24.7201 7.78254 24.2225 8.28016L9.20997 23.2939C8.91259 23.5913 8.545 23.8088 8.14122 23.9264L4.55122 24.9739C4.44366 25.0053 4.32964 25.0072 4.22111 24.9794C4.11257 24.9515 4.0135 24.8951 3.93428 24.8158C3.85505 24.7366 3.79858 24.6376 3.77077 24.529C3.74297 24.4205 3.74485 24.3065 3.77622 24.1989L4.82372 20.6089C4.9415 20.2056 5.15903 19.8384 5.45622 19.5414L20.47 4.52766Z" stroke="#EAE5D9" stroke-width="2.5" stroke-linecap="round" stroke-linejoin="round"/>
</svg>
