<svg width="25" height="25" viewBox="0 0 25 25" fill="none" xmlns="http://www.w3.org/2000/svg">
<path d="M7.81268 6.25018C7.50365 6.25018 7.20155 6.34182 6.9446 6.51351C6.68765 6.6852 6.48738 6.92923 6.36912 7.21474C6.25086 7.50025 6.21991 7.81441 6.2802 8.11751C6.34049 8.4206 6.48931 8.69901 6.70783 8.91753C6.92634 9.13605 7.20476 9.28487 7.50785 9.34516C7.81095 9.40545 8.12511 9.3745 8.41062 9.25624C8.69613 9.13798 8.94016 8.93771 9.11185 8.68076C9.28354 8.42381 9.37518 8.12171 9.37518 7.81268C9.37518 7.39828 9.21056 7.00085 8.91753 6.70783C8.62451 6.4148 8.22708 6.25018 7.81268 6.25018ZM22.0002 11.1564L13.2398 2.3856C13.1424 2.28905 13.027 2.21267 12.9001 2.16084C12.7732 2.109 12.6373 2.08272 12.5002 2.08351H3.12518C2.84891 2.08351 2.58396 2.19326 2.38861 2.38861C2.19326 2.58396 2.08351 2.84891 2.08351 3.12518V12.5002C2.08272 12.6373 2.109 12.7732 2.16084 12.9001C2.21267 13.027 2.28905 13.1424 2.3856 13.2398L11.1564 22.0002C11.7424 22.5854 12.5366 22.9141 13.3648 22.9141C14.1929 22.9141 14.9872 22.5854 15.5731 22.0002L22.0002 15.6252C22.5854 15.0392 22.9141 14.245 22.9141 13.4168C22.9141 12.5887 22.5854 11.7945 22.0002 11.2085V11.1564ZM20.5314 14.0939L14.0939 20.521C13.8988 20.715 13.6347 20.8239 13.3596 20.8239C13.0844 20.8239 12.8203 20.715 12.6252 20.521L4.16685 12.0731V4.16685H12.0731L20.5314 12.6252C20.628 12.7225 20.7044 12.8379 20.7562 12.9649C20.808 13.0918 20.8343 13.2277 20.8335 13.3648C20.8324 13.638 20.7239 13.8999 20.5314 14.0939Z" fill="#182531"/>
</svg>
