<svg width="30" height="30" viewBox="0 0 30 30" fill="none" xmlns="http://www.w3.org/2000/svg">
<g clip-path="url(#clip0_1223_5491)">
<path fill-rule="evenodd" clip-rule="evenodd" d="M11.807 0.367888C11.943 0.216894 12.1191 0.10586 12.3157 0.0471781C12.5124 -0.0115034 12.7218 -0.0155227 12.9207 0.0355689C15.3809 0.663283 19.1612 2.29447 22.3469 5.19847C25.557 8.12852 28.1836 12.3792 28.1836 18.1763C28.1836 20.4721 27.6578 23.2806 25.8365 25.6068C23.9863 27.9743 20.9182 29.6902 16.1574 29.9791H16.1441C9.79934 30.2918 5.3447 27.0642 3.55441 22.6181C1.77966 18.2111 2.66925 12.7289 6.66911 8.56945C6.77492 8.45909 6.90312 8.3716 7.04549 8.31261C7.18786 8.25361 7.34125 8.2244 7.49582 8.22686C7.6504 8.22931 7.80275 8.26337 7.94309 8.32686C8.08343 8.39034 8.20866 8.48185 8.31076 8.59551L11.1171 11.7145C12.1442 9.92044 12.6434 8.35659 12.7188 6.79056C12.7965 5.19847 12.4371 3.51732 11.6096 1.49082C11.5333 1.30392 11.5116 1.09994 11.5469 0.901649C11.5821 0.703361 11.673 0.518565 11.8092 0.367888H11.807ZM11.6961 16.8861C11.6961 16.6722 11.7391 16.4604 11.8228 16.2627C11.9064 16.0651 12.0289 15.8855 12.1834 15.7342C12.3379 15.583 12.5214 15.463 12.7232 15.3811C12.9251 15.2992 13.1414 15.2571 13.3599 15.2571C13.5784 15.2571 13.7948 15.2992 13.9967 15.3811C14.1985 15.463 14.3819 15.583 14.5364 15.7342C14.691 15.8855 14.8135 16.0651 14.8971 16.2627C14.9807 16.4604 15.0238 16.6722 15.0238 16.8861C15.0238 17.3182 14.8485 17.7325 14.5364 18.038C14.2244 18.3435 13.8012 18.5151 13.3599 18.5151C12.9187 18.5151 12.4955 18.3435 12.1834 18.038C11.8714 17.7325 11.6961 17.3182 11.6961 16.8861ZM20.5477 17.1598C20.6507 17.0588 20.7324 16.939 20.788 16.8071C20.8437 16.6752 20.8723 16.5339 20.8722 16.3912C20.8721 16.2485 20.8433 16.1072 20.7874 15.9754C20.7316 15.8436 20.6497 15.7239 20.5466 15.6231C20.4435 15.5223 20.3211 15.4423 20.1864 15.3878C20.0517 15.3333 19.9073 15.3053 19.7616 15.3054C19.6158 15.3055 19.4715 15.3337 19.3369 15.3884C19.2023 15.4431 19.08 15.5232 18.977 15.6242L11.6939 22.7549C11.5879 22.8551 11.5034 22.9749 11.4453 23.1074C11.3872 23.2399 11.3566 23.3824 11.3553 23.5266C11.354 23.6708 11.3821 23.8138 11.4379 23.9473C11.4936 24.0808 11.576 24.202 11.6801 24.304C11.7843 24.406 11.9081 24.4866 12.0445 24.5412C12.1808 24.5958 12.3268 24.6233 12.4741 24.6221C12.6214 24.6208 12.767 24.5908 12.9023 24.5339C13.0376 24.477 13.16 24.3943 13.2623 24.2905L20.5477 17.1598ZM17.5972 23.0308C17.5972 22.5987 17.7725 22.1844 18.0845 21.8789C18.3965 21.5734 18.8197 21.4018 19.261 21.4018C19.7023 21.4018 20.1255 21.5734 20.4375 21.8789C20.7495 22.1844 20.9248 22.5987 20.9248 23.0308C20.9248 23.4628 20.7495 23.8772 20.4375 24.1827C20.1255 24.4882 19.7023 24.6598 19.261 24.6598C18.8197 24.6598 18.3965 24.4882 18.0845 24.1827C17.7725 23.8772 17.5972 23.4628 17.5972 23.0308Z" fill="#EAE5D9"/>
</g>
<defs>
<clipPath id="clip0_1223_5491">
<rect width="30" height="30" fill="white"/>
</clipPath>
</defs>
</svg>
