<svg width="28" height="28" viewBox="0 0 28 28" fill="none" xmlns="http://www.w3.org/2000/svg">
<path fill-rule="evenodd" clip-rule="evenodd" d="M14 13.9999C10.9116 13.9999 8.4 11.4883 8.4 8.39995C8.4 5.31155 10.9116 2.79995 14 2.79995C17.0884 2.79995 19.6 5.31155 19.6 8.39995C19.6 11.4883 17.0884 13.9999 14 13.9999ZM19.2612 14.9421C20.2414 14.1567 21.0325 13.1611 21.5758 12.0286C22.1191 10.8962 22.4008 9.65599 22.4 8.39995C22.401 6.97971 22.0419 5.58249 21.3563 4.33872C20.6706 3.09495 19.6808 2.04519 18.4794 1.28784C17.2779 0.530484 15.9041 0.0901906 14.4862 0.00798092C13.0684 -0.0742288 11.6528 0.204446 10.3719 0.817869C9.09098 1.43129 7.98651 2.35948 7.16171 3.51567C6.33692 4.67186 5.81871 6.01824 5.65558 7.42907C5.49246 8.83991 5.68971 10.269 6.22891 11.5829C6.7681 12.8968 7.63166 14.0526 8.73881 14.9421C3.61621 16.8671 0 21.6229 0 28H2.8C2.8 21 7.8246 16.7999 14 16.7999C20.1754 16.7999 25.2 21 25.2 28H28C28 21.6229 24.3838 16.8671 19.2612 14.9421Z" fill="#EAE5D9"/>
</svg>
