<svg width="25" height="25" viewBox="0 0 25 25" fill="none" xmlns="http://www.w3.org/2000/svg">
<g clip-path="url(#clip0_2001_9929)">
<path d="M15.9474 24.7859L15.9474 24.7859L15.9492 24.7859C16.3331 24.7907 16.7147 24.7242 17.0744 24.5899L17.0747 24.5898C18.2003 24.1614 18.8512 23.1166 19.4138 22.205L19.4138 22.2051L19.415 22.2029C19.6779 21.7244 19.9985 21.2801 20.3697 20.8797C20.7763 20.5526 21.2204 20.275 21.6925 20.0526L21.6925 20.0526L21.6945 20.0516C22.656 19.5459 23.7658 18.9603 24.2811 17.8136L24.2812 17.8135C24.7947 16.6635 24.4996 15.4506 24.2438 14.399L24.2412 14.3884L24.2413 14.3884L24.2407 14.3863C24.0958 13.8868 24.0125 13.3714 23.9927 12.8516C24.0446 12.3085 24.1636 11.7738 24.3469 11.2599L24.347 11.2599L24.3477 11.2574L24.3501 11.2494C24.6557 10.226 25.0096 9.04085 24.5822 7.91814C24.1538 6.79261 23.1091 6.1417 22.1975 5.57909L22.1975 5.57903L22.1952 5.57776C21.7148 5.31531 21.2701 4.9921 20.8722 4.6161C20.5438 4.21355 20.2662 3.7721 20.0457 3.30169C19.6114 2.2209 18.8268 1.3172 17.8176 0.735467L17.8177 0.735247L17.8131 0.733178C16.6795 0.223768 15.4698 0.509971 14.4242 0.757335L14.3883 0.765841L14.3883 0.765787L14.386 0.766437C13.8857 0.909931 13.3707 0.99552 12.8509 1.02153C12.3077 0.970376 11.7731 0.851419 11.2595 0.667428L11.2595 0.6674L11.2579 0.66687C10.2319 0.339123 9.05796 -0.0179162 7.92496 0.410589C6.79198 0.83909 6.14125 1.88395 5.57823 2.83182L5.57782 2.83253C5.31075 3.29947 4.98766 3.73204 4.61573 4.12064C4.21357 4.45155 3.77211 4.73155 3.30135 4.9543C2.21373 5.38266 1.30215 6.16498 0.713731 7.17505L0.71348 7.1749L0.71128 7.17983C0.197782 8.32977 0.492827 9.54269 0.748641 10.5943L0.751208 10.6049L0.751162 10.6049L0.751771 10.607C0.896708 11.1066 0.979974 11.6221 0.999716 12.142C0.95538 12.6891 0.84354 13.2287 0.666735 13.7484L0.666479 13.7492C0.338218 14.7697 0.017564 15.9569 0.44592 17.0823C0.874349 18.2078 1.9191 18.8587 2.83067 19.4213L2.83065 19.4214L2.83243 19.4224C3.303 19.6869 3.73808 20.0101 4.12725 20.3842C4.45602 20.7871 4.73387 21.2291 4.95451 21.7L4.95448 21.7L4.9554 21.7018C5.45411 22.6636 6.03961 23.7733 7.18644 24.2887C8.33178 24.8034 9.55466 24.5059 10.6078 24.2497L10.6116 24.2488L10.6116 24.2488L10.613 24.2484C11.1145 24.1108 11.6294 24.0277 12.1487 24.0003C12.6918 24.0522 13.2263 24.1712 13.7401 24.3545L13.7404 24.3545C14.4514 24.6041 15.1947 24.7493 15.9474 24.7859ZM15.9498 24.7359C15.202 24.6996 14.4634 24.5553 13.7569 24.3074L15.9498 24.7359ZM24.3 11.2423L24.2998 11.2431L20.8355 4.65021C21.2371 5.03011 21.6861 5.35661 22.1712 5.62164C23.0855 6.18593 24.1141 6.82878 24.5355 7.93593C24.9568 9.04278 24.6071 10.2139 24.3 11.2423ZM12.0855 22.0931V22.093L12.083 22.0931C11.433 22.1251 10.789 22.2337 10.1643 22.4165L10.1643 22.4164L10.1605 22.4178C9.45947 22.6858 8.69439 22.7381 7.96354 22.568C7.35144 22.1343 6.88285 21.5275 6.618 20.8254L6.61816 20.8254L6.61642 20.8217C6.32226 20.1998 5.95035 19.6178 5.50961 19.0896L5.50983 19.0894L5.50596 19.0857C4.99459 18.5917 4.42268 18.1645 3.80389 17.8144L3.79611 17.8095C3.43065 17.5824 3.07953 17.3643 2.79347 17.1361C2.50644 16.9072 2.2907 16.6726 2.19112 16.4155C2.07179 15.7019 2.16267 14.9689 2.45274 14.306L2.45285 14.306L2.45403 14.3027C2.69553 13.6259 2.84773 12.9205 2.90677 12.2043L2.90705 12.2043L2.90692 12.199C2.89032 11.5088 2.77903 10.8241 2.57616 10.1641L2.57626 10.1641L2.5751 10.161C2.3086 9.45946 2.25876 8.69414 2.4319 7.96405C2.86566 7.35191 3.4725 6.88329 4.17458 6.61842L4.17465 6.6186L4.17856 6.61672C4.8012 6.31809 5.38325 5.94133 5.91064 5.49554L5.91079 5.49572L5.91421 5.49222C6.40725 4.98527 6.83441 4.41819 7.1856 3.8044L7.1905 3.79651C7.41757 3.43106 7.63574 3.07994 7.86388 2.79389C8.0928 2.50686 8.32738 2.29113 8.58446 2.19155C9.29811 2.07221 10.0311 2.16309 10.694 2.45316L10.694 2.45327L10.6973 2.45445C11.3741 2.69595 12.0795 2.84815 12.7957 2.90719L12.7957 2.90744L12.8007 2.90735C13.4915 2.89481 14.177 2.78339 14.8362 2.57649L14.8362 2.57657L14.839 2.57553C15.5405 2.30902 16.3059 2.25918 17.036 2.43233C17.6481 2.86609 18.1167 3.47292 18.3816 4.175L18.3814 4.17506L18.3832 4.17874C18.6773 4.80061 19.0492 5.38262 19.49 5.91082L19.4897 5.911L19.4936 5.91475C20.005 6.40874 20.5769 6.83593 21.1957 7.18609L21.2035 7.19094C21.569 7.41801 21.9201 7.63617 22.2061 7.8643C22.4931 8.09316 22.7088 8.32767 22.8084 8.58466C22.9218 9.30497 22.8236 10.0428 22.5256 10.7084L22.5254 10.7083L22.524 10.7123C22.2898 11.3853 22.1448 12.086 22.0928 12.7966L22.0925 12.7965L22.0927 12.8017C22.1126 13.4861 22.2213 14.1651 22.4161 14.8216L22.416 14.8216L22.4175 14.8254C22.6889 15.5256 22.7412 16.2917 22.5677 17.0222C22.1359 17.6361 21.5285 18.1051 20.8252 18.3677L20.8251 18.3675L20.821 18.3694C20.1984 18.6681 19.6163 19.0448 19.0889 19.4906L19.0888 19.4904L19.0853 19.494C18.5913 20.0054 18.1641 20.5773 17.8139 21.1961L17.795 21.2266C17.5729 21.5841 17.3591 21.9283 17.1357 22.2093C16.9067 22.4973 16.6723 22.7127 16.4156 22.8087C15.6952 22.9222 14.9573 22.824 14.2917 22.526L14.2917 22.5258L14.2877 22.5244C13.6148 22.2902 12.914 22.1452 12.2034 22.0932L12.2035 22.0931H12.1998H12.0855Z" fill="#182531" stroke="#182531" stroke-width="0.1"/>
<path d="M11.143 15.9071C11.0281 15.9085 10.914 15.8871 10.8073 15.8442C10.7007 15.8013 10.6036 15.7377 10.5216 15.6571L7.95018 13.1357C7.8667 13.054 7.8001 12.9568 7.75421 12.8495C7.70831 12.7421 7.684 12.6268 7.68267 12.51C7.68135 12.3933 7.70303 12.2774 7.74647 12.1691C7.78992 12.0607 7.85429 11.962 7.93589 11.8785C8.0175 11.795 8.11475 11.7284 8.2221 11.6825C8.32944 11.6366 8.44477 11.6123 8.56151 11.611C8.67824 11.6097 8.7941 11.6314 8.90246 11.6748C9.01081 11.7183 9.10955 11.7826 9.19304 11.8642L11.1502 13.7785L15.8145 9.33565C15.8979 9.24804 15.9983 9.1783 16.1095 9.13067C16.2208 9.08305 16.3405 9.05852 16.4615 9.05859C16.5825 9.05866 16.7022 9.08333 16.8134 9.13108C16.9246 9.17884 17.0249 9.24869 17.1082 9.3364C17.1916 9.42411 17.2562 9.52785 17.2982 9.64131C17.3403 9.75477 17.3588 9.87559 17.3527 9.99643C17.3466 10.1173 17.316 10.2356 17.2628 10.3443C17.2096 10.4529 17.1348 10.5496 17.043 10.6285L11.7573 15.6285C11.6783 15.7131 11.5834 15.7813 11.478 15.8291C11.3726 15.8769 11.2587 15.9034 11.143 15.9071Z" fill="#182531"/>
</g>
<defs>
<clipPath id="clip0_2001_9929">
<rect width="25" height="25" fill="white"/>
</clipPath>
</defs>
</svg>
