<svg width="20" height="21" viewBox="0 0 20 21" fill="none" xmlns="http://www.w3.org/2000/svg">
<path d="M16.0766 14.6814C15.6682 14.6814 15.307 14.7521 14.9929 14.8934C14.6788 15.0347 14.3726 15.2311 14.0742 15.4823L6.9364 11.2656C6.98351 11.1557 7.01099 11.034 7.01885 10.9005C7.0267 10.767 7.03062 10.6531 7.03062 10.5589C7.03062 10.4647 7.0267 10.3508 7.01885 10.2173C7.01099 10.0838 6.98351 9.96211 6.9364 9.85218L14.0742 5.72968C14.3255 5.98096 14.6199 6.17727 14.9576 6.31861C15.2952 6.45995 15.6682 6.53062 16.0766 6.53062C16.9246 6.53062 17.6392 6.24401 18.2203 5.67079C18.8013 5.09757 19.0919 4.37907 19.0919 3.51531C19.0919 2.66726 18.8013 1.95269 18.2203 1.37161C17.6392 0.790537 16.9246 0.5 16.0766 0.5C15.2285 0.5 14.5139 0.790537 13.9329 1.37161C13.3518 1.95269 13.0612 2.66726 13.0612 3.51531C13.0612 3.62525 13.0652 3.74696 13.073 3.88045C13.0809 4.01394 13.1084 4.1278 13.1555 4.22202L6.01767 8.34452C5.76639 8.09325 5.47193 7.89694 5.13428 7.75559C4.79662 7.61425 4.42364 7.54358 4.01531 7.54358C3.16726 7.54358 2.45269 7.83412 1.87161 8.41519C1.29054 8.99627 1 9.71084 1 10.5589C1 11.4069 1.29054 12.1215 1.87161 12.7026C2.45269 13.2837 3.16726 13.5742 4.01531 13.5742C4.42364 13.5742 4.79662 13.5035 5.13428 13.3622C5.47193 13.2208 5.76639 13.0245 6.01767 12.7733L13.1555 16.99C13.1084 17.0842 13.0809 17.1824 13.073 17.2845C13.0652 17.3865 13.0612 17.4925 13.0612 17.6025C13.0612 18.4034 13.3479 19.0866 13.9211 19.6519C14.4943 20.2173 15.1814 20.5 15.9823 20.5C16.7833 20.5 17.4664 20.2173 18.0318 19.6519C18.5972 19.0866 18.8799 18.4034 18.8799 17.6025C18.8799 16.7858 18.6129 16.0948 18.0789 15.5294C17.545 14.9641 16.8775 14.6814 16.0766 14.6814Z" fill="#182531"/>
</svg>
