<svg width="22" height="20" viewBox="0 0 22 20" fill="none" xmlns="http://www.w3.org/2000/svg">
<path d="M16.8018 14.1814C16.3935 14.1814 16.0322 14.2521 15.7182 14.3934C15.4041 14.5347 15.0978 14.7311 14.7994 14.9823L7.66162 10.7656C7.70873 10.6557 7.73621 10.534 7.74407 10.4005C7.75192 10.267 7.75584 10.1531 7.75584 10.0589C7.75584 9.96466 7.75192 9.8508 7.74407 9.71731C7.73621 9.58382 7.70873 9.46211 7.66162 9.35218L14.7994 5.22968C15.0507 5.48096 15.3452 5.67727 15.6828 5.81861C16.0205 5.95995 16.3935 6.03062 16.8018 6.03062C17.6498 6.03062 18.3644 5.74401 18.9455 5.17079C19.5266 4.59757 19.8171 3.87907 19.8171 3.01531C19.8171 2.16726 19.5266 1.45269 18.9455 0.871613C18.3644 0.290537 17.6498 0 16.8018 0C15.9537 0 15.2392 0.290537 14.6581 0.871613C14.077 1.45269 13.7865 2.16726 13.7865 3.01531C13.7865 3.12524 13.7904 3.24696 13.7982 3.38045C13.8061 3.51394 13.8336 3.6278 13.8807 3.72202L6.74289 7.84452C6.49161 7.59325 6.19715 7.39694 5.8595 7.25559C5.52184 7.11425 5.14886 7.04358 4.74053 7.04358C3.89248 7.04358 3.17791 7.33412 2.59683 7.91519C2.01576 8.49627 1.72522 9.21084 1.72522 10.0589C1.72522 10.9069 2.01576 11.6215 2.59683 12.2026C3.17791 12.7837 3.89248 13.0742 4.74053 13.0742C5.14886 13.0742 5.52184 13.0035 5.8595 12.8622C6.19715 12.7208 6.49161 12.5245 6.74289 12.2733L13.8807 16.49C13.8336 16.5842 13.8061 16.6824 13.7982 16.7845C13.7904 16.8865 13.7865 16.9925 13.7865 17.1025C13.7865 17.9034 14.0731 18.5866 14.6463 19.1519C15.2195 19.7173 15.9066 20 16.7076 20C17.5085 20 18.1917 19.7173 18.757 19.1519C19.3224 18.5866 19.6051 17.9034 19.6051 17.1025C19.6051 16.2858 19.3381 15.5948 18.8041 15.0294C18.2702 14.4641 17.6027 14.1814 16.8018 14.1814Z" fill="#182531"/>
</svg>
