<svg width="30" height="30" viewBox="0 0 30 30" fill="none" xmlns="http://www.w3.org/2000/svg">
<path d="M19.6265 23.3357V8.79422C19.6265 8.2259 19.4008 7.68086 18.9989 7.279C18.597 6.87713 18.052 6.65137 17.4837 6.65137H3.64725C3.07893 6.65137 2.53389 6.87713 2.13202 7.279C1.73016 7.68086 1.50439 8.2259 1.50439 8.79422V22.9928C1.50439 23.5611 1.73016 24.1062 2.13202 24.508C2.53389 24.9099 3.07893 25.1357 3.64725 25.1357H5.25439M28.4958 16.7935H19.6287M25.6115 24.7349H26.3508C26.9191 24.7349 27.4642 24.5092 27.8661 24.1073C28.2679 23.7054 28.4937 23.1604 28.4937 22.5921V16.1635L25.5087 10.0499C25.3323 9.68994 25.0585 9.38665 24.7183 9.17452C24.3781 8.96239 23.9853 8.84994 23.5844 8.84994H20.0123" stroke="#EAE5D9" stroke-width="2.14286" stroke-linecap="round" stroke-linejoin="round"/>
<path d="M7.00049 22.5L5.00049 24.5L3.00049 25L1.50049 23.5V8.5L3.00049 6.5H17.5005L19.5005 8.5V16.5H28.5005V20L28.0005 23.5L26.5005 24.5L25.0005 24C24.5005 23.6667 23.4005 23 23.0005 23H20.5005L19.0005 24.5L15.0005 25L11.0005 24.5L9.50049 22.5H7.00049Z" fill="#EAE5D9"/>
<path d="M18.3794 25.1356H12.0859M5.36157 25.1999C5.36157 25.9933 5.67674 26.7542 6.23774 27.3152C6.79874 27.8762 7.55962 28.1914 8.353 28.1914C9.14638 28.1914 9.90726 27.8762 10.4683 27.3152C11.0293 26.7542 11.3444 25.9933 11.3444 25.1999C11.3444 24.4065 11.0293 23.6457 10.4683 23.0847C9.90726 22.5237 9.14638 22.2085 8.353 22.2085C7.55962 22.2085 6.79874 22.5237 6.23774 23.0847C5.67674 23.6457 5.36157 24.4065 5.36157 25.1999ZM18.9409 25.1999C18.9409 25.5928 19.0182 25.9818 19.1686 26.3447C19.3189 26.7076 19.5392 27.0374 19.817 27.3152C20.0948 27.593 20.4246 27.8133 20.7875 27.9636C21.1505 28.114 21.5394 28.1914 21.9323 28.1914C22.3251 28.1914 22.7141 28.114 23.0771 27.9636C23.44 27.8133 23.7698 27.593 24.0475 27.3152C24.3253 27.0374 24.5457 26.7076 24.696 26.3447C24.8463 25.9818 24.9237 25.5928 24.9237 25.1999C24.9237 24.8071 24.8463 24.4181 24.696 24.0552C24.5457 23.6922 24.3253 23.3624 24.0475 23.0847C23.7698 22.8069 23.44 22.5865 23.0771 22.4362C22.7141 22.2859 22.3251 22.2085 21.9323 22.2085C21.5394 22.2085 21.1505 22.2859 20.7875 22.4362C20.4246 22.5865 20.0948 22.8069 19.817 23.0847C19.5392 23.3624 19.3189 23.6922 19.1686 24.0552C19.0182 24.4181 18.9409 24.8071 18.9409 25.1999Z" stroke="#EAE5D9" stroke-width="2.14286" stroke-linecap="round" stroke-linejoin="round"/>
</svg>
