<svg width="25" height="25" viewBox="0 0 25 25" fill="none" xmlns="http://www.w3.org/2000/svg">
<g clip-path="url(#clip0_2001_9919)">
<path d="M18.0286 18.0784H9.50001C9.26321 18.0784 9.03611 17.9843 8.86867 17.8169C8.70123 17.6494 8.60716 17.4223 8.60716 17.1855C8.60716 16.9487 8.70123 16.7216 8.86867 16.5542C9.03611 16.3867 9.26321 16.2926 9.50001 16.2926H18.0286C18.2654 16.2926 18.4925 16.3867 18.6599 16.5542C18.8274 16.7216 18.9214 16.9487 18.9214 17.1855C18.9214 17.4223 18.8274 17.6494 18.6599 17.8169C18.4925 17.9843 18.2654 18.0784 18.0286 18.0784ZM22.9429 18.0784H22.7286C22.4918 18.0784 22.2647 17.9843 22.0972 17.8169C21.9298 17.6494 21.8357 17.4223 21.8357 17.1855C21.8357 16.9487 21.9298 16.7216 22.0972 16.5542C22.2647 16.3867 22.4918 16.2926 22.7286 16.2926H22.9429C23.0016 16.2936 23.06 16.2828 23.1145 16.261C23.1691 16.2392 23.2188 16.2067 23.2606 16.1655C23.3025 16.1243 23.3358 16.0751 23.3585 16.0209C23.3812 15.9667 23.3929 15.9086 23.3929 15.8498V12.7855C23.3926 12.685 23.3587 12.5875 23.2965 12.5086C23.2344 12.4296 23.1476 12.3737 23.05 12.3498H17.7857C17.194 12.3498 16.6264 12.1152 16.2074 11.6975C15.7883 11.2798 15.5519 10.7129 15.55 10.1212V5.33551C15.551 5.27708 15.5402 5.21906 15.5183 5.1649C15.4964 5.11073 15.4638 5.06152 15.4225 5.02021C15.3811 4.97889 15.3319 4.9463 15.2778 4.92439C15.2236 4.90248 15.1656 4.89168 15.1072 4.89265H4.58573C4.34893 4.89265 4.12183 4.79858 3.95438 4.63114C3.78694 4.46369 3.69287 4.23659 3.69287 3.99979C3.69287 3.76299 3.78694 3.53589 3.95438 3.36845C4.12183 3.201 4.34893 3.10693 4.58573 3.10693H15.1072C15.3998 3.10693 15.6896 3.16458 15.96 3.27657C16.2304 3.38857 16.4761 3.55273 16.683 3.75967C16.8899 3.96661 17.0541 4.21229 17.1661 4.48267C17.2781 4.75305 17.3357 5.04284 17.3357 5.33551V10.1069C17.3357 10.1657 17.3474 10.2239 17.3701 10.2781C17.3928 10.3323 17.4261 10.3814 17.468 10.4226C17.5098 10.4639 17.5595 10.4963 17.6141 10.5182C17.6686 10.54 17.727 10.5507 17.7857 10.5498H22.9429C23.1059 10.5519 23.2685 10.5686 23.4286 10.5998L23.5857 10.6498C24.0482 10.785 24.454 11.0674 24.7415 11.4541C25.0289 11.8409 25.1824 12.3108 25.1786 12.7926V15.8569C25.1748 16.4474 24.9376 17.0124 24.5187 17.4286C24.0999 17.8448 23.5334 18.0784 22.9429 18.0784Z" fill="#182531"/>
<path d="M23.2502 12.3787C23.0666 12.3786 22.8876 12.3216 22.7379 12.2154C22.5882 12.1091 22.4752 11.959 22.4145 11.7858L20.9859 7.81438C20.9475 7.76079 20.8972 7.7168 20.839 7.68583C20.7807 7.65485 20.7161 7.63774 20.6502 7.63581H16.4288C16.192 7.63581 15.9649 7.54174 15.7974 7.3743C15.63 7.20686 15.5359 6.97976 15.5359 6.74295C15.5359 6.50615 15.63 6.27905 15.7974 6.11161C15.9649 5.94417 16.192 5.8501 16.4288 5.8501H20.6502C21.046 5.85164 21.4341 5.95994 21.7735 6.1636C22.113 6.36725 22.3911 6.65871 22.5788 7.00724C22.6008 7.04872 22.6199 7.09168 22.6359 7.13581L24.0645 11.1858C24.1426 11.4094 24.1294 11.6548 24.0278 11.8687C23.9262 12.0827 23.7443 12.2479 23.5216 12.3287C23.4336 12.3567 23.3424 12.3735 23.2502 12.3787ZM20.3788 21.893C19.736 21.893 19.1076 21.7023 18.5732 21.3452C18.0387 20.9881 17.6222 20.4805 17.3762 19.8867C17.1302 19.2928 17.0658 18.6393 17.1912 18.0089C17.3166 17.3785 17.6262 16.7994 18.0807 16.3449C18.5352 15.8903 19.1143 15.5808 19.7447 15.4554C20.3752 15.33 21.0286 15.3944 21.6225 15.6403C22.2164 15.8863 22.7239 16.3029 23.0811 16.8374C23.4382 17.3718 23.6288 18.0002 23.6288 18.643C23.6288 19.5049 23.2864 20.3316 22.6769 20.9411C22.0674 21.5505 21.2407 21.893 20.3788 21.893ZM20.3788 17.1787C20.0878 17.1716 19.8012 17.2514 19.5558 17.4079C19.3103 17.5644 19.1171 17.7905 19.0008 18.0574C18.8844 18.3243 18.8503 18.6197 18.9027 18.9061C18.9551 19.1925 19.0917 19.4567 19.295 19.6651C19.4982 19.8734 19.759 20.0165 20.044 20.0759C20.329 20.1354 20.6252 20.1086 20.8949 19.9989C21.1645 19.8892 21.3953 19.7016 21.5579 19.4601C21.7204 19.2185 21.8073 18.9341 21.8074 18.643C21.8075 18.2607 21.6581 17.8936 21.3912 17.62C21.1242 17.3464 20.7609 17.188 20.3788 17.1787ZM7.14307 21.893C6.50028 21.893 5.87192 21.7023 5.33746 21.3452C4.803 20.9881 4.38644 20.4805 4.14046 19.8867C3.89447 19.2928 3.83011 18.6393 3.95552 18.0089C4.08092 17.3785 4.39045 16.7994 4.84497 16.3449C5.29949 15.8903 5.87859 15.5808 6.50902 15.4554C7.13946 15.33 7.79293 15.3944 8.38679 15.6403C8.98065 15.8863 9.48823 16.3029 9.84534 16.8374C10.2025 17.3718 10.3931 18.0002 10.3931 18.643C10.3931 19.5049 10.0507 20.3316 9.44116 20.9411C8.83167 21.5505 8.00502 21.893 7.14307 21.893ZM7.14307 17.1787C6.85346 17.1787 6.57035 17.2645 6.32955 17.4254C6.08875 17.5863 5.90107 17.815 5.79024 18.0826C5.67942 18.3502 5.65042 18.6446 5.70692 18.9286C5.76342 19.2127 5.90288 19.4736 6.10766 19.6784C6.31245 19.8831 6.57336 20.0226 6.8574 20.0791C7.14144 20.1356 7.43586 20.1066 7.70343 19.9958C7.97099 19.885 8.19968 19.6973 8.36058 19.4565C8.52147 19.2157 8.60735 18.9326 8.60735 18.643C8.60735 18.2546 8.45308 17.8822 8.17847 17.6075C7.90387 17.3329 7.53142 17.1787 7.14307 17.1787Z" fill="#182531"/>
<path d="M16.4285 18.0787C16.311 18.0797 16.1945 18.0572 16.0857 18.0127C15.9769 17.9682 15.8781 17.9024 15.795 17.8193C15.7119 17.7362 15.6462 17.6374 15.6017 17.5287C15.5571 17.4199 15.5347 17.3034 15.5356 17.1859V9.37872C15.5356 9.14192 15.6297 8.91482 15.7972 8.74738C15.9646 8.57994 16.1917 8.48587 16.4285 8.48587C16.6653 8.48587 16.8924 8.57994 17.0598 8.74738C17.2273 8.91482 17.3214 9.14192 17.3214 9.37872V17.1859C17.3223 17.3034 17.2999 17.4199 17.2553 17.5287C17.2108 17.6374 17.1451 17.7362 17.062 17.8193C16.9789 17.9024 16.8801 17.9682 16.7713 18.0127C16.6625 18.0572 16.546 18.0797 16.4285 18.0787ZM7.2785 9.4073H1.4285C1.1917 9.4073 0.9646 9.31323 0.797156 9.14578C0.629713 8.97834 0.535645 8.75124 0.535645 8.51444C0.535645 8.27764 0.629713 8.05054 0.797156 7.88309C0.9646 7.71565 1.1917 7.62158 1.4285 7.62158H7.2785C7.5153 7.62158 7.7424 7.71565 7.90985 7.88309C8.07729 8.05054 8.17136 8.27764 8.17136 8.51444C8.17136 8.75124 8.07729 8.97834 7.90985 9.14578C7.7424 9.31323 7.5153 9.4073 7.2785 9.4073ZM8.3785 13.393H5.32136C5.08456 13.393 4.85746 13.2989 4.69001 13.1315C4.52257 12.9641 4.4285 12.737 4.4285 12.5002C4.4285 12.2634 4.52257 12.0363 4.69001 11.8688C4.85746 11.7014 5.08456 11.6073 5.32136 11.6073H8.3785C8.6153 11.6073 8.8424 11.7014 9.00985 11.8688C9.17729 12.0363 9.27136 12.2634 9.27136 12.5002C9.27136 12.737 9.17729 12.9641 9.00985 13.1315C8.8424 13.2989 8.6153 13.393 8.3785 13.393Z" fill="#182531"/>
</g>
<defs>
<clipPath id="clip0_2001_9919">
<rect width="25" height="25" fill="white"/>
</clipPath>
</defs>
</svg>
