<svg width="36" height="36" viewBox="0 0 36 36" fill="none" xmlns="http://www.w3.org/2000/svg">
<mask id="mask0_2708_19567" style="mask-type:luminance" maskUnits="userSpaceOnUse" x="0" y="0" width="36" height="36">
<path fill-rule="evenodd" clip-rule="evenodd" d="M0 0H36V36H0V0Z" fill="white"/>
</mask>
<g mask="url(#mask0_2708_19567)">
<path fill-rule="evenodd" clip-rule="evenodd" d="M27.1501 20.25L17.2501 18C14.2501 17.4 12.4501 14.4 13.0501 11.4C13.6501 8.4 16.6501 6.6 19.6501 7.2C22.6501 7.8 24.4501 10.8 23.8501 13.8C23.5501 15.3 22.6501 16.5 21.4501 17.25V17.4C21.4501 17.4 21.4501 17.55 21.6001 17.55L25.9501 18.6C26.1001 18.6 26.1001 18.6 26.2501 18.45C27.4501 16.8 28.2001 14.85 28.2001 12.6C28.2001 7.5 24.1501 3.3 19.2001 3H18.7501C16.5001 3 14.2501 3.6 12.3001 4.95C7.20011 8.4 6.00011 15.3 9.45011 20.25L18.3001 32.85L18.4501 33C18.4501 33 18.6001 33 18.6001 32.85L27.3001 20.55V20.4C27.3001 20.4 27.3001 20.25 27.1501 20.25Z" fill="#FABC26"/>
</g>
</svg>
