<svg width="60" height="19" viewBox="0 0 60 19" fill="none" xmlns="http://www.w3.org/2000/svg">
<g clip-path="url(#clip0_3306_20467)">
<path d="M31.0272 6.04961C30.993 8.6858 33.4324 10.1568 35.2699 11.0315C37.1578 11.9289 37.792 12.5043 37.7845 13.3069C37.7704 14.5351 36.2785 15.0771 34.8825 15.0982C32.4469 15.135 31.0308 14.4559 29.9049 13.9422L29.0275 17.9525C30.1571 18.461 32.2487 18.9044 34.4176 18.9238C39.5088 18.9238 42.8396 16.4689 42.8577 12.6628C42.8776 7.83218 36.0175 7.5648 36.0644 5.40567C36.0805 4.75097 36.7201 4.05232 38.1215 3.87468C38.8152 3.78495 40.73 3.71627 42.901 4.69283L43.7531 0.812708C42.5856 0.397455 41.0851 -0.000171661 39.2168 -0.000171661C34.4248 -0.000171661 31.0544 2.48814 31.0272 6.04961ZM51.9409 0.334045C51.0112 0.334045 50.2278 0.863756 49.8781 1.67664L42.6055 18.6388H47.693L48.7054 15.9058H54.9223L55.5095 18.6388H59.9936L56.0807 0.334045H51.9409ZM52.6526 5.27885L54.1208 12.1525H50.0998L52.6526 5.27885ZM24.8589 0.334274L20.8487 18.6386H25.6967L29.705 0.333817L24.8589 0.334274ZM17.6871 0.334274L12.6411 12.793L10.5999 2.19948C10.3604 1.0169 9.41454 0.334045 8.36419 0.334045H0.115535L0 0.865587C1.69341 1.22453 3.61743 1.80346 4.78308 2.4229C5.49644 2.8013 5.69986 3.13208 5.93421 4.03126L9.80028 18.6388H14.9234L22.7779 0.334045L17.6871 0.334274Z" fill="white"/>
</g>
<defs>
<clipPath id="clip0_3306_20467">
<rect width="60" height="19" fill="white"/>
</clipPath>
</defs>
</svg>
