<svg width="61" height="20" viewBox="0 0 61 20" fill="none" xmlns="http://www.w3.org/2000/svg">
<g clip-path="url(#clip0_2920_20904)">
<path d="M31.5272 6.54961C31.493 9.1858 33.9324 10.6568 35.7699 11.5315C37.6578 12.4289 38.292 13.0043 38.2845 13.8069C38.2704 15.0351 36.7785 15.5771 35.3825 15.5982C32.9469 15.635 31.5308 14.9559 30.4049 14.4422L29.5275 18.4525C30.6571 18.961 32.7487 19.4044 34.9176 19.4238C40.0088 19.4238 43.3396 16.9689 43.3577 13.1628C43.3776 8.33218 36.5175 8.0648 36.5644 5.90567C36.5805 5.25097 37.2201 4.55232 38.6215 4.37468C39.3152 4.28495 41.23 4.21627 43.401 5.19283L44.2531 1.31271C43.0856 0.897455 41.5851 0.499828 39.7168 0.499828C34.9248 0.499828 31.5544 2.98814 31.5272 6.54961ZM52.4409 0.834045C51.5112 0.834045 50.7278 1.36376 50.3781 2.17664L43.1055 19.1388H48.193L49.2054 16.4058H55.4223L56.0095 19.1388H60.4936L56.5807 0.834045H52.4409ZM53.1526 5.77885L54.6208 12.6525H50.5998L53.1526 5.77885ZM25.3589 0.834274L21.3487 19.1386H26.1967L30.205 0.833817L25.3589 0.834274ZM18.1871 0.834274L13.1411 13.293L11.0999 2.69948C10.8604 1.5169 9.91454 0.834045 8.86419 0.834045H0.615535L0.5 1.36559C2.19341 1.72453 4.11743 2.30346 5.28308 2.9229C5.99644 3.3013 6.19986 3.63208 6.43421 4.53126L10.3003 19.1388H15.4234L23.2779 0.834045L18.1871 0.834274Z" fill="url(#paint0_linear_2920_20904)"/>
</g>
<defs>
<linearGradient id="paint0_linear_2920_20904" x1="2758.65" y1="57.3854" x2="2812.15" y2="-1886.21" gradientUnits="userSpaceOnUse">
<stop stop-color="#222357"/>
<stop offset="1" stop-color="#254AA5"/>
</linearGradient>
<clipPath id="clip0_2920_20904">
<rect width="60" height="19" fill="white" transform="translate(0.5 0.5)"/>
</clipPath>
</defs>
</svg>
