<svg width="30" height="30" viewBox="0 0 30 30" fill="none" xmlns="http://www.w3.org/2000/svg">
<path d="M24 8.99998H5.25V8.24998L21.75 6.92998V8.24998H24V5.99998C24 4.34998 22.6635 3.19198 21.0315 3.42448L5.97 5.57548C4.3365 5.80948 3 7.34998 3 8.99998V24C3 24.7956 3.31607 25.5587 3.87868 26.1213C4.44129 26.6839 5.20435 27 6 27H24C24.7956 27 25.5587 26.6839 26.1213 26.1213C26.6839 25.5587 27 24.7956 27 24V12C27 11.2043 26.6839 10.4413 26.1213 9.87866C25.5587 9.31605 24.7956 8.99998 24 8.99998ZM21.75 19.509C21.4544 19.5089 21.1618 19.4506 20.8887 19.3374C20.6157 19.2242 20.3676 19.0583 20.1587 18.8492C19.9498 18.6402 19.7841 18.392 19.671 18.1189C19.558 17.8458 19.4999 17.5531 19.5 17.2575C19.5001 16.9619 19.5584 16.6692 19.6716 16.3962C19.7848 16.1232 19.9507 15.8751 20.1598 15.6662C20.3688 15.4572 20.617 15.2915 20.8901 15.1785C21.1632 15.0655 21.4559 15.0074 21.7515 15.0075C22.3484 15.0077 22.9208 15.245 23.3428 15.6672C23.7648 16.0895 24.0017 16.662 24.0015 17.259C24.0013 17.8559 23.764 18.4283 23.3417 18.8503C22.9195 19.2722 22.3469 19.5092 21.75 19.509Z" fill="#EAE5D9"/>
</svg>
