<svg width="150" height="150" viewBox="0 0 150 150" fill="none" xmlns="http://www.w3.org/2000/svg">
<rect width="150" height="150" fill="#EAE5D9"/>
<path d="M66.3417 84.144C65.0777 84.144 63.9017 83.936 62.8137 83.52C61.7417 83.088 60.8057 82.488 60.0057 81.72C59.2217 80.936 58.6057 80.032 58.1577 79.008C57.7257 77.968 57.5097 76.832 57.5097 75.6C57.5097 74.368 57.7257 73.24 58.1577 72.216C58.6057 71.176 59.2217 70.272 60.0057 69.504C60.8057 68.72 61.7417 68.12 62.8137 67.704C63.8857 67.272 65.0617 67.056 66.3417 67.056C67.6057 67.056 68.7737 67.272 69.8457 67.704C70.9177 68.12 71.8457 68.712 72.6297 69.48C73.4297 70.248 74.0457 71.152 74.4777 72.192C74.9257 73.232 75.1497 74.368 75.1497 75.6C75.1497 76.832 74.9257 77.968 74.4777 79.008C74.0457 80.048 73.4297 80.952 72.6297 81.72C71.8457 82.488 70.9177 83.088 69.8457 83.52C68.7737 83.936 67.6057 84.144 66.3417 84.144ZM71.8377 87.336C71.3257 87.336 70.8297 87.272 70.3497 87.144C69.8697 87.016 69.3817 86.808 68.8857 86.52C68.4057 86.248 67.9097 85.888 67.3977 85.44C66.8857 84.992 66.3257 84.448 65.7177 83.808L67.6617 83.328C68.1577 83.92 68.6377 84.408 69.1017 84.792C69.5817 85.176 70.0457 85.456 70.4937 85.632C70.9577 85.824 71.4137 85.92 71.8617 85.92C73.1097 85.92 74.1737 85.408 75.0537 84.384L75.9177 85.416C74.8617 86.696 73.5017 87.336 71.8377 87.336ZM66.3417 82.56C67.3497 82.56 68.2777 82.392 69.1257 82.056C69.9897 81.704 70.7337 81.208 71.3577 80.568C71.9977 79.928 72.4937 79.192 72.8457 78.36C73.1977 77.512 73.3737 76.592 73.3737 75.6C73.3737 74.592 73.1977 73.672 72.8457 72.84C72.4937 71.992 71.9977 71.256 71.3577 70.632C70.7337 69.992 69.9897 69.504 69.1257 69.168C68.2777 68.816 67.3497 68.64 66.3417 68.64C65.3337 68.64 64.3977 68.816 63.5337 69.168C62.6697 69.504 61.9177 69.992 61.2777 70.632C60.6537 71.256 60.1577 71.992 59.7897 72.84C59.4377 73.672 59.2617 74.592 59.2617 75.6C59.2617 76.592 59.4377 77.512 59.7897 78.36C60.1577 79.192 60.6537 79.928 61.2777 80.568C61.9177 81.208 62.6697 81.704 63.5337 82.056C64.3977 82.392 65.3337 82.56 66.3417 82.56ZM79.1305 84V67.2H85.4185C86.8425 67.2 88.0665 67.432 89.0905 67.896C90.1145 68.344 90.8985 69 91.4425 69.864C92.0025 70.712 92.2825 71.744 92.2825 72.96C92.2825 74.144 92.0025 75.168 91.4425 76.032C90.8985 76.88 90.1145 77.536 89.0905 78C88.0665 78.448 86.8425 78.672 85.4185 78.672H80.1145L80.9065 77.856V84H79.1305ZM90.6025 84L86.2825 77.904H88.2025L92.5465 84H90.6025ZM80.9065 78L80.1145 77.16H85.3705C87.0505 77.16 88.3225 76.792 89.1865 76.056C90.0665 75.32 90.5065 74.288 90.5065 72.96C90.5065 71.616 90.0665 70.576 89.1865 69.84C88.3225 69.104 87.0505 68.736 85.3705 68.736H80.1145L80.9065 67.896V78Z" fill="#182531"/>
</svg>
